SplineFontDB: 3.0
FontName: Lavi
FullName: Lavi Regular
FamilyName: Lavi
Weight: Regular
Copyright: A creation by Ruben Holthuijsen aka Rholt (2009).\nMaintainance and modification by David Revoy for the webcomic www.peppercarrot.com.\nCorrection by Solve Svartskogen.\nAdaptation for Cyrillic glyph imported from a derivative done by Gleki "lagleki" Arxokuna ( https://github.com/lagleki ).\nGNU GPL V3 ( https://www.gnu.org/copyleft/gpl.html)\nRepository and sources available here: https://github.com/Deevad/peppercarrot_fonts/\n
Version: 2.0
ItalicAngle: 0
UnderlinePosition: -240
UnderlineWidth: 120
Ascent: 1638
Descent: 410
InvalidEm: 0
LayerCount: 2
Layer: 0 1 "Back" 1
Layer: 1 1 "Fore" 0
XUID: [1021 91 1847977381 2065907]
FSType: 0
OS2Version: 3
OS2_WeightWidthSlopeOnly: 0
OS2_UseTypoMetrics: 1
CreationTime: 1231154524
ModificationTime: 1514571868
PfmFamily: 65
TTFWeight: 400
TTFWidth: 5
LineGap: 122
VLineGap: 0
Panose: 3 0 5 0 0 0 0 2 0 4
OS2TypoAscent: 1556
OS2TypoAOffset: 0
OS2TypoDescent: -412
OS2TypoDOffset: 0
OS2TypoLinegap: 122
OS2WinAscent: 2174
OS2WinAOffset: 0
OS2WinDescent: 626
OS2WinDOffset: 0
HheadAscent: 1556
HheadAOffset: 0
HheadDescent: -412
HheadDOffset: 0
OS2SubXSize: 1434
OS2SubYSize: 1331
OS2SubXOff: 0
OS2SubYOff: 293
OS2SupXSize: 1434
OS2SupYSize: 1331
OS2SupXOff: 0
OS2SupYOff: 928
OS2StrikeYSize: 102
OS2StrikeYPos: 512
OS2FamilyClass: 2048
OS2Vendor: 'RL  '
OS2CodePages: 20000001.00000000
OS2UnicodeRanges: 00000007.00000000.00000000.00000000
Lookup: 258 0 0 "'kern' Horizontal Kerning in Latin lookup 0" { "'kern' Horizontal Kerning in Latin lookup 0 subtable"  } ['kern' ('latn' <'dflt' > ) ]
MarkAttachClasses: 1
DEI: 91125
TtTable: prep
PUSHW_1
 0
CALL
SVTCA[y-axis]
PUSHW_3
 1
 4
 7
CALL
PUSHW_1
 0
DUP
RCVT
RDTG
ROUND[Black]
RTG
WCVTP
EndTTInstrs
TtTable: fpgm
PUSHW_1
 0
FDEF
MPPEM
PUSHW_1
 9
LT
IF
PUSHB_2
 1
 1
INSTCTRL
EIF
PUSHW_1
 511
SCANCTRL
PUSHW_1
 68
SCVTCI
PUSHW_2
 9
 3
SDS
SDB
ENDF
PUSHW_1
 1
FDEF
DUP
DUP
RCVT
ROUND[Black]
WCVTP

StartChar: .notdef
Encoding: 65536 -1 0
Width: 1556
Flags: W
LayerCount: 2
Fore
SplineSet
256 0 m 1,0,-1
 318 1536 l 1,1,-1
 1324 1536 l 1,2,-1
 1262 0 l 1,3,-1
 256 0 l 1,0,-1
384 128 m 1,4,-1
 1134 128 l 1,5,-1
 1196 1408 l 1,6,-1
 446 1408 l 1,7,-1
 384 128 l 1,4,-1
EndSplineSet
Validated: 1
EndChar

StartChar: exclam
Encoding: 33 33 4
Width: 700
GlyphClass: 2
Flags: W
LayerCount: 2
Fore
SplineSet
223 169 m 256,0,1
 223 202 223 202 236 232 c 128,-1,2
 249 262 249 262 271 284 c 128,-1,3
 293 306 293 306 323 319 c 128,-1,4
 353 332 353 332 387 332 c 0,5,6
 422 332 422 332 451 319 c 0,7,8
 482 305 482 305 501 284 c 0,9,10
 521 262 521 262 533 232 c 128,-1,11
 545 202 545 202 545 173 c 0,12,13
 545 171 545 171 545 169 c 256,14,15
 545 138 545 138 533 106 c 0,16,17
 523 79 523 79 501 54 c 0,18,19
 480 30 480 30 451 18 c 0,20,21
 420 5 420 5 387 5 c 0,22,23
 353 5 353 5 323 18 c 128,-1,24
 293 31 293 31 271 53 c 128,-1,25
 249 75 249 75 236 105 c 128,-1,26
 223 135 223 135 223 169 c 256,0,1
618 1468 m 2,27,-1
 618 1434 l 1,28,-1
 588 944 l 2,29,30
 588 937 588 937 585 920 c 0,31,32
 581 899 581 899 578 876 c 0,33,34
 574 848 574 848 568 815 c 128,-1,35
 562 782 562 782 557 750 c 128,-1,36
 552 718 552 718 547 689 c 128,-1,37
 542 660 542 660 538 639 c 0,38,39
 532 608 532 608 529 590 c 0,40,41
 524 563 524 563 513 536 c 0,42,43
 503 512 503 512 484 495 c 128,-1,44
 465 478 465 478 429 478 c 0,45,46
 392 478 392 478 369 502 c 0,47,48
 345 527 345 527 345 565 c 2,49,-1
 345 587 l 1,50,-1
 410 1015 l 1,51,-1
 442 1507 l 2,52,53
 444 1540 444 1540 469 1560 c 128,-1,54
 494 1580 494 1580 524 1580 c 0,55,56
 618 1580 618 1580 618 1468 c 2,27,-1
EndSplineSet
Validated: 1
EndChar

StartChar: quotedbl
Encoding: 34 34 5
Width: 811
GlyphClass: 2
Flags: W
LayerCount: 2
Fore
SplineSet
72 1066 m 0,0,1
 117 1118 117 1118 147 1168 c 128,-1,2
 177 1218 177 1218 196 1269 c 128,-1,3
 215 1320 215 1320 226 1374 c 128,-1,4
 237 1428 237 1428 245 1486 c 0,5,6
 250 1518 250 1518 276 1535.5 c 128,-1,7
 302 1553 302 1553 332 1553 c 0,8,9
 364 1553 364 1553 385.5 1540 c 128,-1,10
 407 1527 407 1527 419 1497 c 1,11,-1
 419 1438 l 2,12,13
 419 1405 419 1405 411.5 1358.5 c 128,-1,14
 404 1312 404 1312 389 1260.5 c 128,-1,15
 374 1209 374 1209 352 1158.5 c 128,-1,16
 330 1108 330 1108 301.5 1067.5 c 128,-1,17
 273 1027 273 1027 238 1002 c 128,-1,18
 203 977 203 977 162 977 c 0,19,20
 142 977 142 977 122 987 c 128,-1,21
 102 997 102 997 87.5 1011 c 128,-1,22
 73 1025 73 1025 67.5 1040 c 128,-1,23
 62 1055 62 1055 72 1066 c 0,0,1
380 1066 m 0,24,25
 425 1118 425 1118 455 1168 c 128,-1,26
 485 1218 485 1218 504 1269 c 128,-1,27
 523 1320 523 1320 534 1373.5 c 128,-1,28
 545 1427 545 1427 553 1485 c 0,29,30
 558 1517 558 1517 584 1535 c 128,-1,31
 610 1553 610 1553 640 1553 c 0,32,33
 672 1553 672 1553 693.5 1540 c 128,-1,34
 715 1527 715 1527 727 1497 c 1,35,-1
 727 1438 l 2,36,37
 727 1405 727 1405 719.5 1358.5 c 128,-1,38
 712 1312 712 1312 697 1260.5 c 128,-1,39
 682 1209 682 1209 660 1158.5 c 128,-1,40
 638 1108 638 1108 609.5 1067.5 c 128,-1,41
 581 1027 581 1027 546 1002 c 128,-1,42
 511 977 511 977 470 977 c 0,43,44
 450 977 450 977 430 987 c 128,-1,45
 410 997 410 997 395.5 1011 c 128,-1,46
 381 1025 381 1025 375.5 1040 c 128,-1,47
 370 1055 370 1055 380 1066 c 0,24,25
EndSplineSet
Validated: 1
EndChar

StartChar: numbersign
Encoding: 35 35 6
Width: 1421
GlyphClass: 2
Flags: W
LayerCount: 2
Fore
SplineSet
134 78 m 0,0,1
 134 129 134 129 155 177.5 c 128,-1,2
 176 226 176 226 200.5 274.5 c 128,-1,3
 225 323 225 323 246 372.5 c 128,-1,4
 267 422 267 422 267 475 c 1,5,-1
 102 475 l 2,6,7
 87 475 87 475 75.5 483.5 c 128,-1,8
 64 492 64 492 55.5 505 c 128,-1,9
 47 518 47 518 43 532 c 128,-1,10
 39 546 39 546 39 558 c 0,11,12
 39 569 39 569 42 582.5 c 128,-1,13
 45 596 45 596 51 608 c 128,-1,14
 57 620 57 620 67 635.5 c 128,-1,15
 77 651 77 651 91 651 c 2,16,-1
 313 651 l 1,17,-1
 359 953 l 1,18,-1
 154 953 l 2,19,20
 139 953 139 953 127.5 961.5 c 128,-1,21
 116 970 116 970 107.5 983 c 128,-1,22
 99 996 99 996 95 1010 c 128,-1,23
 91 1024 91 1024 91 1036 c 0,24,25
 91 1047 91 1047 94 1060.5 c 128,-1,26
 97 1074 97 1074 103 1086 c 128,-1,27
 109 1098 109 1098 119 1113.5 c 128,-1,28
 129 1129 129 1129 143 1129 c 2,29,-1
 382 1129 l 1,30,-1
 382 1433 l 2,31,32
 382 1449 382 1449 390.5 1463 c 128,-1,33
 399 1477 399 1477 411 1486 c 128,-1,34
 423 1495 423 1495 437.5 1499 c 128,-1,35
 452 1503 452 1503 466 1503 c 0,36,37
 494 1503 494 1503 510.5 1492 c 128,-1,38
 527 1481 527 1481 535.5 1463.5 c 128,-1,39
 544 1446 544 1446 546 1424 c 0,40,41
 550 1394 550 1394 549 1379 c 0,42,43
 546 1320 546 1320 544.5 1253.5 c 128,-1,44
 543 1187 543 1187 543 1129 c 1,45,-1
 926 1129 l 1,46,47
 926 1139 926 1139 926 1149 c 1,48,49
 927 1157 927 1157 928 1166 c 128,-1,50
 929 1175 929 1175 929 1180 c 1,51,52
 932 1194 932 1194 933.5 1233 c 128,-1,53
 935 1272 935 1272 936.5 1315.5 c 128,-1,54
 938 1359 938 1359 938 1398 c 128,-1,55
 938 1437 938 1437 941 1451 c 0,56,57
 949 1479 949 1479 969.5 1491 c 128,-1,58
 990 1503 990 1503 1019 1503 c 0,59,60
 1085 1503 1085 1503 1102 1439 c 1,61,-1
 1102 1353 l 2,62,63
 1102 1323 1102 1323 1102 1295.5 c 128,-1,64
 1102 1268 1102 1268 1101 1241 c 128,-1,65
 1100 1214 1100 1214 1100 1186 c 128,-1,66
 1100 1158 1100 1158 1096 1126 c 1,67,-1
 1264 1126 l 2,68,69
 1276 1126 1276 1126 1285 1116 c 128,-1,70
 1294 1106 1294 1106 1301 1092.5 c 128,-1,71
 1308 1079 1308 1079 1311.5 1065 c 128,-1,72
 1315 1051 1315 1051 1315 1042 c 0,73,74
 1315 1029 1315 1029 1310 1014.5 c 128,-1,75
 1305 1000 1305 1000 1296 987.5 c 128,-1,76
 1287 975 1287 975 1274 967 c 128,-1,77
 1261 959 1261 959 1246 959 c 2,78,-1
 1085 959 l 1,79,-1
 1042 648 l 1,80,-1
 1212 648 l 2,81,82
 1224 648 1224 648 1233.5 638 c 128,-1,83
 1243 628 1243 628 1249.5 614.5 c 128,-1,84
 1256 601 1256 601 1260 587 c 128,-1,85
 1264 573 1264 573 1264 564 c 0,86,87
 1264 551 1264 551 1259 536.5 c 128,-1,88
 1254 522 1254 522 1244.5 509.5 c 128,-1,89
 1235 497 1235 497 1222 489 c 128,-1,90
 1209 481 1209 481 1194 481 c 2,91,-1
 1004 481 l 1,92,93
 976 368 976 368 938.5 254 c 128,-1,94
 901 140 901 140 843 40 c 1,95,96
 828 20 828 20 811.5 10 c 128,-1,97
 795 0 795 0 771 0 c 0,98,99
 734 0 734 0 710.5 23 c 128,-1,100
 687 46 687 46 687 83 c 0,101,102
 687 133 687 133 708.5 181 c 128,-1,103
 730 229 730 229 756.5 277 c 128,-1,104
 783 325 783 325 804.5 374 c 128,-1,105
 826 423 826 423 826 475 c 1,106,107
 814 476 814 476 783.5 476 c 128,-1,108
 753 476 753 476 719 476.5 c 128,-1,109
 685 477 685 477 654 478 c 1,110,111
 613 478 613 478 612 478 c 0,112,113
 606 477 606 477 566 477 c 1,114,115
 563 475 563 475 513 475 c 1,116,117
 483 472 483 472 451 472 c 1,118,-1
 445 461 l 1,119,120
 439 441 439 441 430 399 c 128,-1,121
 421 357 421 357 408 305.5 c 128,-1,122
 395 254 395 254 376.5 200 c 128,-1,123
 358 146 358 146 334.5 101.5 c 128,-1,124
 311 57 311 57 281.5 28.5 c 128,-1,125
 252 0 252 0 215 0 c 0,126,127
 180 0 180 0 157 22.5 c 128,-1,128
 134 45 134 45 134 78 c 0,0,1
486 651 m 1,129,-1
 866 651 l 1,130,131
 868 661 868 661 871 671 c 0,132,133
 873 679 873 679 874.5 688 c 128,-1,134
 876 697 876 697 878 702 c 1,135,136
 882 727 882 727 888 768 c 128,-1,137
 894 809 894 809 899 849 c 128,-1,138
 904 889 904 889 908 918.5 c 128,-1,139
 912 948 912 948 912 950 c 2,140,-1
 912 959 l 1,141,142
 898 958 898 958 863 958 c 128,-1,143
 828 958 828 958 788.5 957.5 c 128,-1,144
 749 957 749 957 713.5 956.5 c 128,-1,145
 678 956 678 956 664 956 c 0,146,147
 649 955 649 955 626.5 954 c 128,-1,148
 604 953 604 953 583 953 c 0,149,150
 565 953 565 953 532 950 c 1,151,-1
 526 927 l 1,152,-1
 486 651 l 1,129,-1
EndSplineSet
Validated: 1
EndChar

StartChar: dollar
Encoding: 36 36 7
Width: 1280
GlyphClass: 2
Flags: W
LayerCount: 2
Fore
SplineSet
515 0 m 1,0,1
 476 0 476 0 427 9.5 c 128,-1,2
 378 19 378 19 326.5 34 c 128,-1,3
 275 49 275 49 226 71 c 128,-1,4
 177 93 177 93 138.5 123 c 128,-1,5
 100 153 100 153 76.5 191.5 c 128,-1,6
 53 230 53 230 53 278 c 0,7,8
 53 313 53 313 75 338 c 128,-1,9
 97 363 97 363 135 363 c 0,10,11
 155 363 155 363 177 350.5 c 128,-1,12
 199 338 199 338 224 318.5 c 128,-1,13
 249 299 249 299 278.5 276 c 128,-1,14
 308 253 308 253 343.5 232.5 c 128,-1,15
 379 212 379 212 421.5 194.5 c 128,-1,16
 464 177 464 177 515 177 c 1,17,-1
 515 757 l 1,18,-1
 410 785 l 2,19,20
 362 798 362 798 313.5 819 c 128,-1,21
 265 840 265 840 224 871 c 128,-1,22
 183 902 183 902 153 943 c 128,-1,23
 123 984 123 984 112 1037 c 1,24,-1
 112 1098 l 2,25,26
 112 1184 112 1184 139 1255.5 c 128,-1,27
 166 1327 166 1327 215 1380.5 c 128,-1,28
 264 1434 264 1434 333 1467.5 c 128,-1,29
 402 1501 402 1501 487 1511 c 1,30,-1
 515 1511 l 1,31,-1
 515 1664 l 1,32,-1
 689 1664 l 1,33,-1
 689 1513 l 1,34,35
 729 1509 729 1509 776 1509 c 128,-1,36
 823 1509 823 1509 870 1500 c 128,-1,37
 917 1491 917 1491 961 1480 c 128,-1,38
 1005 1469 1005 1469 1038.5 1453 c 128,-1,39
 1072 1437 1072 1437 1092.5 1414.5 c 128,-1,40
 1113 1392 1113 1392 1113 1362 c 0,41,42
 1113 1327 1113 1327 1091 1302 c 128,-1,43
 1069 1277 1069 1277 1031 1277 c 2,44,-1
 1019 1277 l 1,45,46
 936 1295 936 1295 854.5 1315.5 c 128,-1,47
 773 1336 773 1336 689 1336 c 1,48,-1
 689 892 l 1,49,-1
 850 849 l 2,50,51
 919 831 919 831 985.5 799.5 c 128,-1,52
 1052 768 1052 768 1103.5 722 c 128,-1,53
 1155 676 1155 676 1187 614.5 c 128,-1,54
 1219 553 1219 553 1219 475 c 0,55,56
 1219 407 1219 407 1197 349.5 c 128,-1,57
 1175 292 1175 292 1137 244 c 128,-1,58
 1099 196 1099 196 1047.5 158 c 128,-1,59
 996 120 996 120 937 91 c 128,-1,60
 878 62 878 62 814.5 42.5 c 128,-1,61
 751 23 751 23 689 13 c 1,62,-1
 689 -133 l 1,63,-1
 515 -133 l 1,64,-1
 515 0 l 1,0,1
689 711 m 1,65,-1
 689 191 l 1,66,67
 751 203 751 203 815 225.5 c 128,-1,68
 879 248 879 248 931 282.5 c 128,-1,69
 983 317 983 317 1016 364.5 c 128,-1,70
 1049 412 1049 412 1049 475 c 0,71,72
 1049 513 1049 513 1030.5 544.5 c 128,-1,73
 1012 576 1012 576 983 600.5 c 128,-1,74
 954 625 954 625 919 642 c 128,-1,75
 884 659 884 659 850 668 c 2,76,-1
 689 711 l 1,65,-1
282 1095 m 0,77,78
 282 1066 282 1066 296 1044 c 128,-1,79
 310 1022 310 1022 331 1005.5 c 128,-1,80
 352 989 352 989 378 978 c 128,-1,81
 404 967 404 967 428 961 c 2,82,-1
 515 940 l 1,83,-1
 515 1337 l 1,84,85
 465 1331 465 1331 422.5 1315 c 128,-1,86
 380 1299 380 1299 348.5 1270.5 c 128,-1,87
 317 1242 317 1242 299.5 1199 c 128,-1,88
 282 1156 282 1156 282 1095 c 0,77,78
EndSplineSet
Validated: 1
EndChar

StartChar: percent
Encoding: 37 37 8
Width: 1659
GlyphClass: 2
Flags: W
LayerCount: 2
Fore
SplineSet
165 50 m 0,0,1
 165 68 165 68 167 83.5 c 128,-1,2
 169 99 169 99 183 112 c 1,3,-1
 786 765 l 1,4,-1
 1078 1114 l 2,5,6
 1091 1129 1091 1129 1111 1164.5 c 128,-1,7
 1131 1200 1131 1200 1155 1243.5 c 128,-1,8
 1179 1287 1179 1287 1206 1334.5 c 128,-1,9
 1233 1382 1233 1382 1258.5 1421 c 128,-1,10
 1284 1460 1284 1460 1306 1486 c 0,11,12
 1328 1511 1328 1511 1346 1514 c 0,13,14
 1352 1515 1352 1515 1357 1515 c 0,15,16
 1385 1514 1385 1514 1407 1494 c 0,17,18
 1432 1471 1432 1471 1432 1432 c 0,19,20
 1432 1397 1432 1397 1420 1357 c 128,-1,21
 1408 1317 1408 1317 1389 1275 c 128,-1,22
 1370 1233 1370 1233 1345.5 1191.5 c 128,-1,23
 1321 1150 1321 1150 1296 1113 c 128,-1,24
 1271 1076 1271 1076 1248 1046 c 0,25,26
 1226 1017 1226 1017 1208 996 c 2,27,-1
 690 383 l 1,28,-1
 301 -12 l 2,29,30
 290 -23 290 -23 276 -26 c 0,31,32
 261 -29 261 -29 248 -29 c 0,33,34
 213 -29 213 -29 189 -6 c 128,-1,35
 165 17 165 17 165 50 c 0,0,1
974 357 m 0,36,37
 974 424 974 424 997 488 c 128,-1,38
 1020 552 1020 552 1061.5 602 c 128,-1,39
 1103 652 1103 652 1161.5 682.5 c 128,-1,40
 1220 713 1220 713 1292 713 c 0,41,42
 1365 713 1365 713 1423.5 683 c 128,-1,43
 1482 653 1482 653 1523.5 603.5 c 128,-1,44
 1565 554 1565 554 1587.5 489.5 c 128,-1,45
 1610 425 1610 425 1610 357 c 0,46,47
 1610 288 1610 288 1587.5 224 c 128,-1,48
 1565 160 1565 160 1523.5 110 c 128,-1,49
 1482 60 1482 60 1423.5 30 c 128,-1,50
 1365 0 1365 0 1292 0 c 0,51,52
 1220 0 1220 0 1161.5 30.5 c 128,-1,53
 1103 61 1103 61 1061.5 111 c 128,-1,54
 1020 161 1020 161 997 225 c 128,-1,55
 974 289 974 289 974 357 c 0,36,37
1145 357 m 256,56,57
 1145 326 1145 326 1154.5 294 c 128,-1,58
 1164 262 1164 262 1182.5 236 c 128,-1,59
 1201 210 1201 210 1228 193.5 c 128,-1,60
 1255 177 1255 177 1289 177 c 0,61,62
 1325 177 1325 177 1353 192.5 c 128,-1,63
 1381 208 1381 208 1400 233.5 c 128,-1,64
 1419 259 1419 259 1429 291.5 c 128,-1,65
 1439 324 1439 324 1439 357 c 256,66,67
 1439 390 1439 390 1429 422 c 128,-1,68
 1419 454 1419 454 1400 479.5 c 128,-1,69
 1381 505 1381 505 1353 520.5 c 128,-1,70
 1325 536 1325 536 1289 536 c 0,71,72
 1255 536 1255 536 1228 519.5 c 128,-1,73
 1201 503 1201 503 1182.5 477 c 128,-1,74
 1164 451 1164 451 1154.5 419.5 c 128,-1,75
 1145 388 1145 388 1145 357 c 256,56,57
107 1119 m 0,76,77
 107 1189 107 1189 131 1252.5 c 128,-1,78
 155 1316 155 1316 198 1365 c 128,-1,79
 241 1414 241 1414 301 1443 c 128,-1,80
 361 1472 361 1472 434 1472 c 0,81,82
 508 1472 508 1472 569 1444 c 128,-1,83
 630 1416 630 1416 674 1368.5 c 128,-1,84
 718 1321 718 1321 742.5 1257.5 c 128,-1,85
 767 1194 767 1194 767 1122 c 0,86,87
 767 1052 767 1052 743.5 988 c 128,-1,88
 720 924 720 924 677.5 874.5 c 128,-1,89
 635 825 635 825 575.5 795.5 c 128,-1,90
 516 766 516 766 443 766 c 256,91,92
 370 766 370 766 308.5 794.5 c 128,-1,93
 247 823 247 823 202 871.5 c 128,-1,94
 157 920 157 920 132 984 c 128,-1,95
 107 1048 107 1048 107 1119 c 0,76,77
278 1122 m 0,96,97
 278 1090 278 1090 289.5 1057 c 128,-1,98
 301 1024 301 1024 322 997 c 128,-1,99
 343 970 343 970 372.5 953 c 128,-1,100
 402 936 402 936 437 936 c 0,101,102
 474 936 474 936 504 952.5 c 128,-1,103
 534 969 534 969 554 995 c 128,-1,104
 574 1021 574 1021 585 1054.5 c 128,-1,105
 596 1088 596 1088 596 1122 c 0,106,107
 596 1155 596 1155 585.5 1187 c 128,-1,108
 575 1219 575 1219 554.5 1244.5 c 128,-1,109
 534 1270 534 1270 505 1286 c 128,-1,110
 476 1302 476 1302 440 1302 c 0,111,112
 405 1302 405 1302 375 1286.5 c 128,-1,113
 345 1271 345 1271 323.5 1246 c 128,-1,114
 302 1221 302 1221 290 1188.5 c 128,-1,115
 278 1156 278 1156 278 1122 c 0,96,97
EndSplineSet
Validated: 1
EndChar

StartChar: ampersand
Encoding: 38 38 9
Width: 1247
GlyphClass: 2
Flags: W
LayerCount: 2
Fore
SplineSet
868 234 m 1,0,1
 828 197 828 197 785 157.5 c 128,-1,2
 742 118 742 118 694 85 c 128,-1,3
 646 52 646 52 593 31 c 128,-1,4
 540 10 540 10 482 10 c 0,5,6
 398 10 398 10 318 35.5 c 128,-1,7
 238 61 238 61 176 109.5 c 128,-1,8
 114 158 114 158 76 228.5 c 128,-1,9
 38 299 38 299 38 389 c 0,10,11
 38 466 38 466 68 522.5 c 128,-1,12
 98 579 98 579 142 626 c 128,-1,13
 186 673 186 673 237 716.5 c 128,-1,14
 288 760 288 760 332 812 c 1,15,16
 296 848 296 848 261 884 c 128,-1,17
 226 920 226 920 199 959.5 c 128,-1,18
 172 999 172 999 156 1044.5 c 128,-1,19
 140 1090 140 1090 140 1144 c 0,20,21
 140 1220 140 1220 175 1284 c 128,-1,22
 210 1348 210 1348 267 1394 c 128,-1,23
 324 1440 324 1440 396 1465.5 c 128,-1,24
 468 1491 468 1491 538 1491 c 0,25,26
 604 1491 604 1491 670 1463.5 c 128,-1,27
 736 1436 736 1436 788 1389.5 c 128,-1,28
 840 1343 840 1343 872 1281.5 c 128,-1,29
 904 1220 904 1220 904 1152 c 0,30,31
 904 1095 904 1095 884 1046 c 128,-1,32
 864 997 864 997 831 955 c 128,-1,33
 798 913 798 913 757 876.5 c 128,-1,34
 716 840 716 840 674 807 c 1,35,-1
 670 803 l 2,36,37
 670 802 670 802 670 801 c 2,38,-1
 884 502 l 1,39,-1
 1038 716 l 2,40,41
 1050 732 1050 732 1065 737.5 c 128,-1,42
 1080 743 1080 743 1098 743 c 0,43,44
 1132 743 1132 743 1155 724 c 128,-1,45
 1178 705 1178 705 1178 670 c 0,46,47
 1178 654 1178 654 1172 637.5 c 128,-1,48
 1166 621 1166 621 1156 609 c 1,49,-1
 984 373 l 1,50,51
 984 371 984 371 982 368 c 128,-1,52
 980 365 980 365 980 363 c 2,53,-1
 980 360 l 1,54,-1
 980 357 l 2,55,56
 980 355 980 355 982 351 c 0,57,58
 982 349 982 349 984 347 c 2,59,-1
 1198 58 l 2,60,61
 1206 47 1206 47 1208 35.5 c 128,-1,62
 1210 24 1210 24 1210 12 c 0,63,64
 1210 -18 1210 -18 1189 -39 c 128,-1,65
 1168 -60 1168 -60 1138 -60 c 256,66,67
 1108 -60 1108 -60 1088 -45 c 128,-1,68
 1068 -30 1068 -30 1048 -6 c 1,69,-1
 872 229 l 1,70,-1
 868 234 l 1,0,1
198 392 m 0,71,72
 198 334 198 334 224 291 c 128,-1,73
 250 248 250 248 291 220 c 128,-1,74
 332 192 332 192 384 178.5 c 128,-1,75
 436 165 436 165 488 165 c 0,76,77
 512 165 512 165 538 176 c 128,-1,78
 564 187 564 187 589 203.5 c 128,-1,79
 614 220 614 220 636 238.5 c 128,-1,80
 658 257 658 257 674 272 c 0,81,82
 686 283 686 283 703 299.5 c 128,-1,83
 720 316 720 316 738 333 c 1,84,85
 756 352 756 352 776 373 c 1,86,-1
 572 668 l 1,87,88
 570 673 570 673 563 682.5 c 128,-1,89
 556 692 556 692 547 702 c 128,-1,90
 538 712 538 712 528 719 c 128,-1,91
 518 726 518 726 508 726 c 0,92,93
 480 726 480 726 446 709.5 c 128,-1,94
 412 693 412 693 377 666 c 128,-1,95
 342 639 342 639 310 604 c 128,-1,96
 278 569 278 569 253 532 c 128,-1,97
 228 495 228 495 213 458.5 c 128,-1,98
 198 422 198 422 198 392 c 0,71,72
294 1144 m 0,99,100
 294 1111 294 1111 315 1069 c 128,-1,101
 336 1027 336 1027 367 990 c 128,-1,102
 398 953 398 953 436 928 c 128,-1,103
 474 903 474 903 508 903 c 0,104,105
 532 903 532 903 559 915 c 128,-1,106
 586 927 586 927 613 946.5 c 128,-1,107
 640 966 640 966 664 992 c 128,-1,108
 688 1018 688 1018 707 1045.5 c 128,-1,109
 726 1073 726 1073 738 1100.5 c 128,-1,110
 750 1128 750 1128 750 1152 c 0,111,112
 750 1186 750 1186 729 1219 c 128,-1,113
 708 1252 708 1252 677 1278 c 128,-1,114
 646 1304 646 1304 609 1320 c 128,-1,115
 572 1336 572 1336 540 1336 c 0,116,117
 502 1336 502 1336 459 1321.5 c 128,-1,118
 416 1307 416 1307 379 1281.5 c 128,-1,119
 342 1256 342 1256 318 1221 c 128,-1,120
 294 1186 294 1186 294 1144 c 0,99,100
EndSplineSet
Validated: 1
EndChar

StartChar: quotesingle
Encoding: 39 39 10
Width: 720
GlyphClass: 2
Flags: W
LayerCount: 2
Fore
SplineSet
76 1066 m 4,0,1
 121 1118 121 1118 151 1168 c 132,-1,2
 181 1218 181 1218 200 1269 c 132,-1,3
 219 1320 219 1320 230 1374 c 132,-1,4
 241 1428 241 1428 249 1486 c 4,5,6
 254 1518 254 1518 280 1535.5 c 132,-1,7
 306 1553 306 1553 336 1553 c 4,8,9
 368 1553 368 1553 389.5 1540 c 132,-1,10
 411 1527 411 1527 423 1497 c 5,11,-1
 423 1438 l 6,12,13
 423 1405 423 1405 415.5 1358.5 c 132,-1,14
 408 1312 408 1312 393 1260.5 c 132,-1,15
 378 1209 378 1209 356 1158.5 c 132,-1,16
 334 1108 334 1108 305.5 1067.5 c 132,-1,17
 277 1027 277 1027 242 1002 c 132,-1,18
 207 977 207 977 166 977 c 4,19,20
 146 977 146 977 126 987 c 132,-1,21
 106 997 106 997 91.5 1011 c 132,-1,22
 77 1025 77 1025 71.5 1040 c 132,-1,23
 66 1055 66 1055 76 1066 c 4,0,1
EndSplineSet
Validated: 1
EndChar

StartChar: parenleft
Encoding: 40 40 11
Width: 720
GlyphClass: 2
Flags: W
LayerCount: 2
Fore
SplineSet
607 -341 m 0,0,1
 509 -251 509 -251 427.5 -147.5 c 128,-1,2
 346 -44 346 -44 288 71 c 128,-1,3
 230 186 230 186 198 312 c 128,-1,4
 166 438 166 438 166 573 c 0,5,6
 166 622 166 622 178.5 691.5 c 128,-1,7
 191 761 191 761 213.5 842 c 128,-1,8
 236 923 236 923 267.5 1009.5 c 128,-1,9
 299 1096 299 1096 338.5 1179 c 128,-1,10
 378 1262 378 1262 423.5 1337 c 128,-1,11
 469 1412 469 1412 519 1468 c 128,-1,12
 569 1524 569 1524 622.5 1557 c 128,-1,13
 676 1590 676 1590 731 1590 c 0,14,15
 775 1590 775 1590 801 1566 c 0,16,17
 825 1544 825 1544 827 1497 c 0,18,19
 828 1484 828 1484 828 1470 c 128,-1,20
 828 1456 828 1456 820 1446 c 1,21,22
 731 1357 731 1357 649 1259.5 c 128,-1,23
 567 1162 567 1162 504 1055 c 128,-1,24
 441 948 441 948 403 829.5 c 128,-1,25
 365 711 365 711 365 580 c 0,26,27
 365 479 365 479 394.5 385 c 128,-1,28
 424 291 424 291 468.5 207 c 128,-1,29
 513 123 513 123 565 50 c 128,-1,30
 617 -23 617 -23 661.5 -83.5 c 128,-1,31
 706 -144 706 -144 735.5 -190 c 128,-1,32
 765 -236 765 -236 765 -266 c 0,33,34
 765 -308 765 -308 739 -335 c 128,-1,35
 713 -362 713 -362 669 -362 c 0,36,37
 651 -362 651 -362 636.5 -358.5 c 128,-1,38
 622 -355 622 -355 607 -341 c 0,0,1
EndSplineSet
Validated: 1
EndChar

StartChar: parenright
Encoding: 41 41 12
Width: 871
GlyphClass: 2
Flags: W
LayerCount: 2
Fore
SplineSet
298 -339 m 0,0,1
 283 -353 283 -353 268.5 -356.5 c 128,-1,2
 254 -360 254 -360 236 -360 c 0,3,4
 192 -360 192 -360 166 -333 c 128,-1,5
 140 -306 140 -306 140 -264 c 0,6,7
 140 -234 140 -234 169.5 -188 c 128,-1,8
 199 -142 199 -142 243.5 -81.5 c 128,-1,9
 288 -21 288 -21 340 52 c 128,-1,10
 392 125 392 125 436.5 209 c 128,-1,11
 481 293 481 293 510.5 387 c 128,-1,12
 540 481 540 481 540 582 c 0,13,14
 540 713 540 713 502 831.5 c 128,-1,15
 464 950 464 950 401 1057 c 128,-1,16
 338 1164 338 1164 256 1261.5 c 128,-1,17
 174 1359 174 1359 85 1448 c 1,18,19
 78 1458 78 1458 78 1472 c 128,-1,20
 78 1486 78 1486 78 1499 c 0,21,22
 80 1546 80 1546 104 1568 c 0,23,24
 130 1592 130 1592 174 1592 c 0,25,26
 229 1592 229 1592 282.5 1559 c 128,-1,27
 336 1526 336 1526 386 1470 c 128,-1,28
 436 1414 436 1414 481.5 1339 c 128,-1,29
 527 1264 527 1264 566.5 1181 c 128,-1,30
 606 1098 606 1098 637.5 1011.5 c 128,-1,31
 669 925 669 925 691.5 844 c 128,-1,32
 714 763 714 763 726.5 693.5 c 128,-1,33
 739 624 739 624 739 575 c 0,34,35
 739 440 739 440 707 314 c 128,-1,36
 675 188 675 188 617 73 c 128,-1,37
 559 -42 559 -42 477.5 -145.5 c 128,-1,38
 396 -249 396 -249 298 -339 c 0,0,1
EndSplineSet
Validated: 1
EndChar

StartChar: asterisk
Encoding: 42 42 13
Width: 894
GlyphClass: 2
Flags: W
LayerCount: 2
Fore
SplineSet
243 910 m 2,0,1
 230 899 230 899 223 899 c 128,-1,2
 216 899 216 899 199 899 c 0,3,4
 167 899 167 899 145 917.5 c 128,-1,5
 123 936 123 936 123 969 c 0,6,7
 123 986 123 986 128.5 1002 c 128,-1,8
 134 1018 134 1018 150 1029 c 1,9,-1
 375 1148 l 2,10,11
 377 1150 377 1150 378.5 1152 c 128,-1,12
 380 1154 380 1154 380 1156 c 2,13,-1
 380 1158 l 1,14,-1
 159 1282 l 1,15,16
 123 1306 123 1306 123 1351 c 0,17,18
 123 1380 123 1380 143.5 1400.5 c 128,-1,19
 164 1421 164 1421 193 1421 c 0,20,21
 205 1421 205 1421 217 1419.5 c 128,-1,22
 229 1418 229 1418 237 1410 c 2,23,-1
 422 1233 l 1,24,-1
 397 1452 l 2,25,26
 395 1466 395 1466 402 1477.5 c 128,-1,27
 409 1489 409 1489 420.5 1497 c 128,-1,28
 432 1505 432 1505 446 1509.5 c 128,-1,29
 460 1514 460 1514 472 1514 c 0,30,31
 495 1514 495 1514 509.5 1494.5 c 128,-1,32
 524 1475 524 1475 533 1446 c 128,-1,33
 542 1417 542 1417 543 1382.5 c 128,-1,34
 544 1348 544 1348 544 1318 c 128,-1,35
 544 1288 544 1288 544 1267 c 128,-1,36
 544 1246 544 1246 545 1243 c 1,37,-1
 583 1300 l 1,38,39
 590 1306 590 1306 606 1321.5 c 128,-1,40
 622 1337 622 1337 639.5 1354 c 128,-1,41
 657 1371 657 1371 673 1386 c 128,-1,42
 689 1401 689 1401 697 1406 c 0,43,44
 706 1412 706 1412 711 1415 c 128,-1,45
 716 1418 716 1418 720 1419.5 c 128,-1,46
 724 1421 724 1421 728.5 1421 c 128,-1,47
 733 1421 733 1421 741 1421 c 0,48,49
 776 1421 776 1421 795.5 1400 c 128,-1,50
 815 1379 815 1379 815 1346 c 0,51,52
 815 1326 815 1326 810.5 1312 c 128,-1,53
 806 1298 806 1298 790 1286 c 1,54,-1
 574 1148 l 1,55,-1
 779 1038 l 2,56,57
 799 1027 799 1027 807 1010 c 128,-1,58
 815 993 815 993 815 972 c 0,59,60
 815 899 815 899 743 899 c 0,61,62
 728 899 728 899 708 911.5 c 128,-1,63
 688 924 688 924 667.5 942.5 c 128,-1,64
 647 961 647 961 626 983.5 c 128,-1,65
 605 1006 605 1006 587.5 1026 c 128,-1,66
 570 1046 570 1046 556 1061.5 c 128,-1,67
 542 1077 542 1077 536 1081 c 1,68,-1
 536 822 l 2,69,70
 536 810 536 810 540.5 801.5 c 128,-1,71
 545 793 545 793 533.5 787 c 128,-1,72
 522 781 522 781 509 778 c 128,-1,73
 496 775 496 775 487 775 c 0,74,75
 476 775 476 775 462.5 779 c 128,-1,76
 449 783 449 783 437.5 790 c 128,-1,77
 426 797 426 797 428.5 807.5 c 128,-1,78
 431 818 431 818 432 832 c 1,79,-1
 432 1081 l 1,80,-1
 243 910 l 2,0,1
EndSplineSet
Validated: 1
EndChar

StartChar: plus
Encoding: 43 43 14
Width: 1650
GlyphClass: 2
Flags: W
LayerCount: 2
Fore
SplineSet
660 149 m 1,0,1
 663 164 663 164 669 200 c 128,-1,2
 675 236 675 236 682.5 282 c 128,-1,3
 690 328 690 328 698 379 c 128,-1,4
 706 430 706 430 713 476 c 0,5,6
 724 548 724 548 726 558 c 0,7,8
 735 600 735 600 735 609 c 0,9,10
 735 612 735 612 736 621.5 c 128,-1,11
 737 631 737 631 738.5 642 c 128,-1,12
 740 653 740 653 741.5 662.5 c 128,-1,13
 743 672 743 672 743 675 c 1,14,15
 725 680 725 680 686.5 680 c 128,-1,16
 648 680 648 680 599 680.5 c 128,-1,17
 550 681 550 681 495.5 681 c 128,-1,18
 441 681 441 681 391.5 681.5 c 128,-1,19
 342 682 342 682 303.5 682 c 128,-1,20
 265 682 265 682 247 686 c 0,21,22
 233 689 233 689 192 696 c 1,23,24
 162 700 162 700 137.5 710.5 c 128,-1,25
 113 721 113 721 97 740 c 128,-1,26
 81 759 81 759 81 793 c 0,27,28
 81 821 81 821 90.5 838 c 128,-1,29
 100 855 100 855 117 864.5 c 128,-1,30
 134 874 134 874 156 877 c 0,31,32
 198 883 198 883 206 880 c 2,33,-1
 247 867 l 1,34,-1
 793 867 l 1,35,-1
 793 1410 l 2,36,37
 793 1454 793 1454 809.5 1482 c 128,-1,38
 826 1510 826 1510 864 1510 c 0,39,40
 900 1510 900 1510 924.5 1499 c 128,-1,41
 949 1488 949 1488 964.5 1468 c 128,-1,42
 980 1448 980 1448 986 1420 c 1,43,44
 995 1385 995 1385 993 1360 c 0,45,46
 984 1239 984 1239 979.5 1141 c 128,-1,47
 975 1043 975 1043 975 921 c 2,48,-1
 975 845 l 1,49,-1
 1482 821 l 1,50,51
 1504 821 1504 821 1519.5 818 c 128,-1,52
 1535 815 1535 815 1545 809 c 128,-1,53
 1555 803 1555 803 1560 792 c 128,-1,54
 1565 781 1565 781 1565 762 c 0,55,56
 1565 712 1565 712 1545.5 686.5 c 128,-1,57
 1526 661 1526 661 1482 642 c 1,58,-1
 1337 642 l 1,59,60
 1246 646 1246 646 1156.5 648 c 128,-1,61
 1067 650 1067 650 976 650 c 2,62,-1
 951 650 l 1,63,-1
 943 625 l 1,64,65
 941 611 941 611 936.5 580 c 128,-1,66
 932 549 932 549 926 509 c 128,-1,67
 920 469 920 469 914 424.5 c 128,-1,68
 908 380 908 380 902 340 c 128,-1,69
 896 300 896 300 891.5 268.5 c 128,-1,70
 887 237 887 237 885 224 c 0,71,72
 879 193 879 193 878 154 c 128,-1,73
 877 115 877 115 870 81 c 128,-1,74
 863 47 863 47 843.5 23.5 c 128,-1,75
 824 0 824 0 781 0 c 0,76,77
 727 0 727 0 693.5 33.5 c 128,-1,78
 660 67 660 67 660 120 c 2,79,-1
 660 149 l 1,0,1
EndSplineSet
Validated: 1
EndChar

StartChar: comma
Encoding: 44 44 15
Width: 720
GlyphClass: 2
Flags: W
LayerCount: 2
Fore
SplineSet
76 -185 m 0,0,1
 121 -133 121 -133 151 -83 c 128,-1,2
 181 -33 181 -33 200 18 c 128,-1,3
 219 69 219 69 230 122.5 c 128,-1,4
 241 176 241 176 249 234 c 0,5,6
 254 266 254 266 280 284 c 128,-1,7
 306 302 306 302 336 302 c 0,8,9
 368 302 368 302 389.5 289 c 128,-1,10
 411 276 411 276 423 246 c 1,11,-1
 423 187 l 2,12,13
 423 155 423 155 415.5 108 c 128,-1,14
 408 61 408 61 393 9.5 c 128,-1,15
 378 -42 378 -42 356 -92.5 c 128,-1,16
 334 -143 334 -143 305.5 -183.5 c 128,-1,17
 277 -224 277 -224 242 -249 c 128,-1,18
 207 -274 207 -274 166 -274 c 0,19,20
 146 -274 146 -274 126 -264 c 128,-1,21
 106 -254 106 -254 91.5 -240 c 128,-1,22
 77 -226 77 -226 71.5 -211 c 128,-1,23
 66 -196 66 -196 76 -185 c 0,0,1
EndSplineSet
Validated: 1
EndChar

StartChar: hyphen
Encoding: 45 45 16
AltUni2: 0000ad.ffffffff.0
Width: 720
GlyphClass: 2
Flags: W
LayerCount: 2
Fore
SplineSet
792 561 m 1,0,-1
 136 561 l 1,1,-1
 172 742 l 1,2,-1
 828 742 l 1,3,-1
 792 561 l 1,0,-1
EndSplineSet
Validated: 1
EndChar

StartChar: period
Encoding: 46 46 17
Width: 720
GlyphClass: 2
Flags: W
LayerCount: 2
Fore
SplineSet
106 151 m 256,0,1
 106 181 106 181 117.5 208 c 128,-1,2
 129 235 129 235 148.5 255 c 128,-1,3
 168 275 168 275 195 286.5 c 128,-1,4
 222 298 222 298 252 298 c 256,5,6
 282 298 282 298 309 286.5 c 128,-1,7
 336 275 336 275 356 255 c 128,-1,8
 376 235 376 235 387.5 208 c 128,-1,9
 399 181 399 181 399 151 c 256,10,11
 399 121 399 121 387.5 94 c 128,-1,12
 376 67 376 67 356 47.5 c 128,-1,13
 336 28 336 28 309 16.5 c 128,-1,14
 282 5 282 5 252 5 c 256,15,16
 222 5 222 5 195 16.5 c 128,-1,17
 168 28 168 28 148.5 47.5 c 128,-1,18
 129 67 129 67 117.5 94 c 128,-1,19
 106 121 106 121 106 151 c 256,0,1
EndSplineSet
Validated: 1
EndChar

StartChar: slash
Encoding: 47 47 18
Width: 944
GlyphClass: 2
Flags: W
LayerCount: 2
Fore
SplineSet
119 0 m 0,0,1
 119 22 119 22 124.5 47 c 128,-1,2
 130 72 130 72 139 96 c 128,-1,3
 148 120 148 120 158.5 143 c 128,-1,4
 169 166 169 166 179 186 c 1,5,-1
 490 895 l 1,6,7
 517 950 517 950 545.5 1024.5 c 128,-1,8
 574 1099 574 1099 600 1177 c 128,-1,9
 626 1255 626 1255 647 1327.5 c 128,-1,10
 668 1400 668 1400 682 1451 c 1,11,12
 703 1511 703 1511 765 1511 c 0,13,14
 785 1511 785 1511 803.5 1504.5 c 128,-1,15
 822 1498 822 1498 836.5 1486 c 128,-1,16
 851 1474 851 1474 859.5 1459 c 128,-1,17
 868 1444 868 1444 868 1422 c 0,18,19
 868 1372 868 1372 856.5 1312.5 c 128,-1,20
 845 1253 845 1253 825.5 1189.5 c 128,-1,21
 806 1126 806 1126 781 1062 c 128,-1,22
 756 998 756 998 729.5 937.5 c 128,-1,23
 703 877 703 877 677 823.5 c 128,-1,24
 651 770 651 770 629 729 c 1,25,-1
 351 94 l 1,26,27
 337 68 337 68 328 35.5 c 128,-1,28
 319 3 319 3 305.5 -25.5 c 128,-1,29
 292 -54 292 -54 270.5 -73 c 128,-1,30
 249 -92 249 -92 212 -92 c 0,31,32
 172 -92 172 -92 145.5 -66 c 128,-1,33
 119 -40 119 -40 119 0 c 0,0,1
EndSplineSet
Validated: 1
EndChar

StartChar: zero
Encoding: 48 48 19
Width: 1366
GlyphClass: 2
Flags: W
LayerCount: 2
Fore
SplineSet
115 767 m 0,0,1
 115 833 115 833 131 952 c 0,2,3
 142 1030 142 1030 180 1128 c 0,4,5
 212 1213 212 1213 260.5 1286.5 c 128,-1,6
 309 1360 309 1360 374 1413.5 c 128,-1,7
 439 1467 439 1467 520.5 1498 c 128,-1,8
 602 1529 602 1529 700 1529 c 0,9,10
 797 1529 797 1529 872.5 1491.5 c 128,-1,11
 948 1454 948 1454 1005 1391 c 128,-1,12
 1062 1328 1062 1328 1102 1245 c 128,-1,13
 1142 1162 1142 1162 1167 1071.5 c 128,-1,14
 1192 981 1192 981 1203 888.5 c 128,-1,15
 1214 796 1214 796 1214 713 c 0,16,17
 1214 637 1214 637 1201.5 557 c 128,-1,18
 1189 477 1189 477 1163 400.5 c 128,-1,19
 1137 324 1137 324 1097 254 c 128,-1,20
 1057 184 1057 184 1003 128 c 128,-1,21
 949 72 949 72 880 33.5 c 128,-1,22
 811 -5 811 -5 727 -19 c 1,23,-1
 639 -19 l 2,24,25
 526 -19 526 -19 443 9 c 128,-1,26
 360 37 360 37 302 88 c 128,-1,27
 244 139 244 139 207.5 211 c 128,-1,28
 171 283 171 283 146.5 370 c 128,-1,29
 122 457 122 457 118.5 557.5 c 128,-1,30
 115 658 115 658 115 767 c 0,0,1
286 761 m 0,31,32
 286 677 286 677 287 599.5 c 128,-1,33
 288 522 288 522 299.5 454.5 c 128,-1,34
 311 387 311 387 332.5 331.5 c 128,-1,35
 354 276 354 276 393.5 236 c 128,-1,36
 433 196 433 196 492.5 174 c 128,-1,37
 552 152 552 152 639 152 c 0,38,39
 709 152 709 152 766 176.5 c 128,-1,40
 823 201 823 201 868 243 c 128,-1,41
 913 285 913 285 946 340.5 c 128,-1,42
 979 396 979 396 1000.5 458 c 128,-1,43
 1022 520 1022 520 1032 584 c 1,44,45
 1044 653 1044 653 1044 691 c 0,46,47
 1044 702 1044 702 1043 710 c 0,48,49
 1038 750 1038 750 1038 838 c 0,50,51
 1038 908 1038 908 1020.5 979 c 128,-1,52
 1003 1050 1003 1050 978 1117.5 c 128,-1,53
 953 1185 953 1185 914.5 1237 c 128,-1,54
 876 1289 876 1289 822.5 1320.5 c 128,-1,55
 769 1352 769 1352 697 1352 c 0,56,57
 623 1352 623 1352 563.5 1327.5 c 128,-1,58
 504 1303 504 1303 458 1260 c 128,-1,59
 412 1217 412 1217 379.5 1159.5 c 128,-1,60
 347 1102 347 1102 326 1036 c 1,61,62
 304 963 304 963 296 900 c 0,63,64
 286 819 286 819 286 761 c 0,31,32
EndSplineSet
Validated: 1
EndChar

StartChar: one
Encoding: 49 49 20
Width: 1013
GlyphClass: 2
Flags: W
LayerCount: 2
Fore
SplineSet
732 204 m 1,0,-1
 852 181 l 2,1,2
 874 177 874 177 882 172 c 0,3,4
 896 162 896 162 906 148 c 128,-1,5
 916 134 916 134 921.5 117.5 c 128,-1,6
 927 101 927 101 927 87 c 0,7,8
 927 75 927 75 922.5 60.5 c 128,-1,9
 918 46 918 46 910 33.5 c 128,-1,10
 902 21 902 21 890.5 12 c 128,-1,11
 879 3 879 3 865 3 c 2,12,-1
 221 3 l 2,13,14
 197 3 197 3 173.5 6 c 128,-1,15
 150 9 150 9 131.5 18.5 c 128,-1,16
 113 28 113 28 101.5 45.5 c 128,-1,17
 90 63 90 63 90 91 c 0,18,19
 90 106 90 106 93.5 123 c 128,-1,20
 97 140 97 140 105.5 154 c 128,-1,21
 114 168 114 168 127 177.5 c 128,-1,22
 140 187 140 187 159 187 c 2,23,-1
 534 187 l 1,24,-1
 534 1164 l 1,25,-1
 534 1183 l 1,26,27
 500 1157 500 1157 462 1132.5 c 128,-1,28
 424 1108 424 1108 383.5 1088.5 c 128,-1,29
 343 1069 343 1069 300 1057.5 c 128,-1,30
 257 1046 257 1046 212 1046 c 2,31,-1
 178 1046 l 1,32,33
 147 1057 147 1057 134 1078.5 c 128,-1,34
 121 1100 121 1100 121 1133 c 0,35,36
 121 1160 121 1160 136 1180 c 128,-1,37
 151 1200 151 1200 175 1215 c 128,-1,38
 199 1230 199 1230 228.5 1241.5 c 128,-1,39
 258 1253 258 1253 288 1263.5 c 128,-1,40
 318 1274 318 1274 345 1284.5 c 128,-1,41
 372 1295 372 1295 390 1308 c 0,42,43
 447 1350 447 1350 498 1401 c 128,-1,44
 549 1452 549 1452 596 1501 c 1,45,46
 606 1509 606 1509 618 1512 c 0,47,48
 630 1514 630 1514 643 1514 c 0,49,50
 683 1514 683 1514 708 1486 c 128,-1,51
 733 1458 733 1458 733 1417 c 2,52,-1
 733 1408 l 1,53,-1
 732 204 l 1,0,-1
EndSplineSet
Validated: 1
EndChar

StartChar: two
Encoding: 50 50 21
Width: 1315
GlyphClass: 2
Flags: W
LayerCount: 2
Fore
SplineSet
115 88 m 0,0,1
 115 117 115 117 150 161 c 128,-1,2
 185 205 185 205 242.5 260.5 c 128,-1,3
 300 316 300 316 373 381.5 c 128,-1,4
 446 447 446 447 522.5 520 c 128,-1,5
 599 593 599 593 672.5 672 c 128,-1,6
 746 751 746 751 803.5 833 c 128,-1,7
 861 915 861 915 896 998.5 c 128,-1,8
 931 1082 931 1082 931 1164 c 0,9,10
 931 1212 931 1212 904.5 1245.5 c 128,-1,11
 878 1279 878 1279 837.5 1300 c 128,-1,12
 797 1321 797 1321 750 1330 c 128,-1,13
 703 1339 703 1339 662 1339 c 0,14,15
 599 1339 599 1339 546 1308.5 c 128,-1,16
 493 1278 493 1278 449 1232 c 128,-1,17
 405 1186 405 1186 369 1133.5 c 128,-1,18
 333 1081 333 1081 302 1037 c 0,19,20
 288 1018 288 1018 270.5 1012 c 128,-1,21
 253 1006 253 1006 230 1006 c 0,22,23
 196 1006 196 1006 170 1029 c 0,24,25
 145 1051 145 1051 145 1083 c 0,26,27
 145 1086 145 1086 145 1088 c 0,28,29
 146 1099 146 1099 146 1107.5 c 128,-1,30
 146 1116 146 1116 151 1127 c 1,31,32
 201 1196 201 1196 252 1265.5 c 128,-1,33
 303 1335 303 1335 363 1390 c 128,-1,34
 423 1445 423 1445 496 1479.5 c 128,-1,35
 569 1514 569 1514 662 1514 c 0,36,37
 742 1514 742 1514 822.5 1492.5 c 128,-1,38
 903 1471 903 1471 967.5 1427.5 c 128,-1,39
 1032 1384 1032 1384 1072 1317.5 c 128,-1,40
 1112 1251 1112 1251 1112 1160 c 0,41,42
 1112 1070 1112 1070 1083 980.5 c 128,-1,43
 1054 891 1054 891 1005.5 805 c 128,-1,44
 957 719 957 719 894 638 c 128,-1,45
 831 557 831 557 763 483.5 c 128,-1,46
 695 410 695 410 627.5 345 c 128,-1,47
 560 280 560 280 502 227 c 1,48,-1
 511 227 l 1,49,50
 577 233 577 233 641 236 c 128,-1,51
 705 239 705 239 771 239 c 1,52,53
 771 242 771 242 788 242 c 128,-1,54
 805 242 805 242 840 239 c 0,55,56
 883 236 883 236 933 236 c 128,-1,57
 983 236 983 236 1034.5 226 c 128,-1,58
 1086 216 1086 216 1127 199.5 c 128,-1,59
 1168 183 1168 183 1194.5 156 c 128,-1,60
 1221 129 1221 129 1221 88 c 0,61,62
 1221 50 1221 50 1198 30 c 1,63,64
 1175 8 1175 8 1146 8 c 0,65,66
 1141 8 1141 8 1136 9 c 0,67,68
 1093 14 1093 14 1047.5 14 c 128,-1,69
 1002 14 1002 14 955.5 23 c 128,-1,70
 909 32 909 32 862 35 c 1,71,72
 805 37 805 37 782 37 c 0,73,74
 776 37 776 37 771 37 c 0,75,76
 766 36 766 36 634 36 c 1,77,78
 573 33 573 33 501 33 c 0,79,80
 431 33 431 33 369 23 c 1,81,82
 303 16 303 16 236 3 c 1,83,-1
 206 3 l 2,84,85
 167 3 167 3 141 26.5 c 128,-1,86
 115 50 115 50 115 88 c 0,0,1
EndSplineSet
Validated: 1
EndChar

StartChar: three
Encoding: 51 51 22
Width: 1306
GlyphClass: 2
Flags: W
LayerCount: 2
Fore
SplineSet
78 290 m 0,0,1
 78 308 78 308 85 324.5 c 128,-1,2
 92 341 92 341 103.5 353.5 c 128,-1,3
 115 366 115 366 131 373 c 128,-1,4
 147 380 147 380 165 380 c 0,5,6
 207 380 207 380 250.5 365.5 c 128,-1,7
 294 351 294 351 340 330 c 128,-1,8
 386 309 386 309 434 283.5 c 128,-1,9
 482 258 482 258 532.5 237 c 128,-1,10
 583 216 583 216 636 201.5 c 128,-1,11
 689 187 689 187 745 187 c 0,12,13
 772 187 772 187 806 190.5 c 128,-1,14
 840 194 840 194 874.5 202 c 128,-1,15
 909 210 909 210 942 223.5 c 128,-1,16
 975 237 975 237 1000.5 257.5 c 128,-1,17
 1026 278 1026 278 1041.5 306 c 128,-1,18
 1057 334 1057 334 1057 371 c 0,19,20
 1057 416 1057 416 1038.5 454.5 c 128,-1,21
 1020 493 1020 493 989.5 526.5 c 128,-1,22
 959 560 959 560 920 587.5 c 128,-1,23
 881 615 881 615 839.5 638.5 c 128,-1,24
 798 662 798 662 757 681 c 128,-1,25
 716 700 716 700 683 715 c 1,26,27
 670 725 670 725 662.5 733.5 c 128,-1,28
 655 742 655 742 650.5 751 c 128,-1,29
 646 760 646 760 645.5 771.5 c 128,-1,30
 645 783 645 783 645 799 c 2,31,32
 645 814 l 0,33,34
 645 820 645 820 645.5 825 c 128,-1,35
 646 830 646 830 649 835.5 c 128,-1,36
 652 841 652 841 658 851 c 2,37,-1
 954 1302 l 1,38,-1
 954 1308 l 1,39,40
 857 1308 857 1308 760.5 1301.5 c 128,-1,41
 664 1295 664 1295 564 1295 c 0,42,43
 542 1295 542 1295 502 1293 c 128,-1,44
 462 1291 462 1291 414.5 1291 c 128,-1,45
 367 1291 367 1291 317.5 1296.5 c 128,-1,46
 268 1302 268 1302 227.5 1316 c 128,-1,47
 187 1330 187 1330 161.5 1356 c 128,-1,48
 136 1382 136 1382 136 1424 c 0,49,50
 136 1460 136 1460 160 1486 c 0,51,52
 186 1514 186 1514 226 1514 c 0,53,54
 231 1514 231 1514 236 1514 c 0,55,56
 240 1514 240 1514 244 1514 c 0,57,58
 267 1514 267 1514 312 1510 c 0,59,60
 353 1506 353 1506 400 1501 c 0,61,62
 443 1496 443 1496 486.5 1491 c 128,-1,63
 530 1486 530 1486 574 1486 c 0,64,65
 708 1486 708 1486 839.5 1497 c 128,-1,66
 971 1508 971 1508 1105 1508 c 0,67,68
 1130 1508 1130 1508 1155 1504.5 c 128,-1,69
 1180 1501 1180 1501 1200 1491 c 128,-1,70
 1220 1481 1220 1481 1232 1461.5 c 128,-1,71
 1244 1442 1244 1442 1244 1411 c 0,72,73
 1244 1403 1244 1403 1242 1393.5 c 128,-1,74
 1240 1384 1240 1384 1237 1379 c 2,75,-1
 877 838 l 1,76,-1
 883 831 l 1,77,78
 947 793 947 793 1012.5 748 c 128,-1,79
 1078 703 1078 703 1130.5 647 c 128,-1,80
 1183 591 1183 591 1216.5 523.5 c 128,-1,81
 1250 456 1250 456 1250 374 c 0,82,83
 1250 308 1250 308 1228.5 254.5 c 128,-1,84
 1207 201 1207 201 1170 159.5 c 128,-1,85
 1133 118 1133 118 1083.5 88 c 128,-1,86
 1034 58 1034 58 978 38.5 c 128,-1,87
 922 19 922 19 863 9.5 c 128,-1,88
 804 0 804 0 748 0 c 0,89,90
 721 0 721 0 678.5 5 c 128,-1,91
 636 10 636 10 583.5 20 c 128,-1,92
 531 30 531 30 473.5 45 c 128,-1,93
 416 60 416 60 360 79 c 128,-1,94
 304 98 304 98 253 120.5 c 128,-1,95
 202 143 202 143 163 170 c 128,-1,96
 124 197 124 197 101 227 c 128,-1,97
 78 257 78 257 78 290 c 0,0,1
EndSplineSet
Validated: 1
EndChar

StartChar: four
Encoding: 52 52 23
Width: 1045
GlyphClass: 2
Flags: W
LayerCount: 2
Fore
SplineSet
677 79 m 0,0,1
 677 136 677 136 694.5 202 c 128,-1,2
 712 268 712 268 733.5 339 c 128,-1,3
 755 410 755 410 772.5 484 c 128,-1,4
 790 558 790 558 790 632 c 2,5,-1
 790 660 l 1,6,7
 761 678 761 678 713.5 689.5 c 128,-1,8
 666 701 666 701 609 710 c 128,-1,9
 552 719 552 719 488.5 726 c 128,-1,10
 425 733 425 733 363 741 c 128,-1,11
 301 749 301 749 245 759.5 c 128,-1,12
 189 770 189 770 146.5 786 c 128,-1,13
 104 802 104 802 78.5 824.5 c 128,-1,14
 53 847 53 847 53 879 c 2,15,-1
 53 904 l 1,16,-1
 132 1142 l 2,17,18
 141 1167 141 1167 147 1209 c 128,-1,19
 153 1251 153 1251 157.5 1295.5 c 128,-1,20
 162 1340 162 1340 164 1380 c 128,-1,21
 166 1420 166 1420 166 1443 c 1,22,23
 167 1458 167 1458 174 1470.5 c 128,-1,24
 181 1483 181 1483 191.5 1492 c 128,-1,25
 202 1501 202 1501 215.5 1506 c 128,-1,26
 229 1511 229 1511 243 1511 c 0,27,28
 283 1511 283 1511 306.5 1487.5 c 128,-1,29
 330 1464 330 1464 330 1423 c 0,30,31
 330 1303 330 1303 311 1188.5 c 128,-1,32
 292 1074 292 1074 251 961 c 1,33,-1
 251 955 l 2,34,35
 251 949 251 949 255.5 945.5 c 128,-1,36
 260 942 260 942 268 944 c 1,37,38
 325 935 325 935 396.5 925 c 128,-1,39
 468 915 468 915 541 902.5 c 128,-1,40
 614 890 614 890 683.5 873.5 c 128,-1,41
 753 857 753 857 807 836 c 1,42,-1
 824 1454 l 2,43,44
 824 1466 824 1466 833 1475 c 128,-1,45
 842 1484 842 1484 854.5 1491 c 128,-1,46
 867 1498 867 1498 880.5 1501.5 c 128,-1,47
 894 1505 894 1505 904 1505 c 0,48,49
 936 1505 936 1505 956 1486 c 128,-1,50
 976 1467 976 1467 983 1437 c 1,51,52
 983 1426 983 1426 983.5 1400 c 128,-1,53
 984 1374 984 1374 984.5 1345 c 128,-1,54
 985 1316 985 1316 985.5 1289.5 c 128,-1,55
 986 1263 986 1263 986 1253 c 0,56,57
 986 1236 986 1236 985.5 1206 c 128,-1,58
 985 1176 985 1176 984.5 1146.5 c 128,-1,59
 984 1117 984 1117 983.5 1094 c 128,-1,60
 983 1071 983 1071 983 1068 c 0,61,62
 982 1048 982 1048 980 1005 c 128,-1,63
 978 962 978 962 975 907.5 c 128,-1,64
 972 853 972 853 968 793.5 c 128,-1,65
 964 734 964 734 960.5 679.5 c 128,-1,66
 957 625 957 625 954 582 c 128,-1,67
 951 539 951 539 949 519 c 0,68,69
 947 504 947 504 941 467.5 c 128,-1,70
 935 431 935 431 929 390 c 128,-1,71
 923 349 923 349 917 313 c 128,-1,72
 911 277 911 277 909 263 c 0,73,74
 904 234 904 234 894 190 c 128,-1,75
 884 146 884 146 866.5 104.5 c 128,-1,76
 849 63 849 63 822 33 c 128,-1,77
 795 3 795 3 756 3 c 0,78,79
 720 3 720 3 698.5 23 c 128,-1,80
 677 43 677 43 677 79 c 0,0,1
EndSplineSet
Validated: 1
EndChar

StartChar: five
Encoding: 53 53 24
Width: 1380
GlyphClass: 2
Flags: W
LayerCount: 2
Fore
SplineSet
105 255 m 0,0,1
 105 300 105 300 133 324.5 c 128,-1,2
 161 349 161 349 206 349 c 0,3,4
 260 349 260 349 318 326 c 128,-1,5
 376 303 376 303 439 275 c 128,-1,6
 502 247 502 247 570.5 224 c 128,-1,7
 639 201 639 201 713 201 c 0,8,9
 746 201 746 201 789.5 205.5 c 128,-1,10
 833 210 833 210 880 220 c 128,-1,11
 927 230 927 230 972 247.5 c 128,-1,12
 1017 265 1017 265 1053 290.5 c 128,-1,13
 1089 316 1089 316 1111 351.5 c 128,-1,14
 1133 387 1133 387 1133 433 c 0,15,16
 1133 505 1133 505 1092.5 553 c 128,-1,17
 1052 601 1052 601 986 632.5 c 128,-1,18
 920 664 920 664 835.5 682.5 c 128,-1,19
 751 701 751 701 663 714.5 c 128,-1,20
 575 728 575 728 490.5 740 c 128,-1,21
 406 752 406 752 340 770.5 c 128,-1,22
 274 789 274 789 233.5 817.5 c 128,-1,23
 193 846 193 846 193 893 c 2,24,-1
 193 926 l 1,25,26
 199 944 199 944 209.5 970.5 c 128,-1,27
 220 997 220 997 231 1027 c 128,-1,28
 242 1057 242 1057 250 1087 c 128,-1,29
 258 1117 258 1117 260 1141 c 2,30,-1
 273 1430 l 1,31,32
 273 1458 273 1458 294 1480 c 128,-1,33
 315 1502 315 1502 340 1510 c 1,34,-1
 417 1510 l 1,35,-1
 495 1510 l 1,36,37
 522 1509 522 1509 578.5 1507 c 128,-1,38
 635 1505 635 1505 706.5 1502.5 c 128,-1,39
 778 1500 778 1500 857 1497 c 128,-1,40
 936 1494 936 1494 1007.5 1491 c 128,-1,41
 1079 1488 1079 1488 1136 1486 c 128,-1,42
 1193 1484 1193 1484 1220 1483 c 1,43,44
 1252 1473 1252 1473 1269.5 1447.5 c 128,-1,45
 1287 1422 1287 1422 1287 1389 c 0,46,47
 1287 1351 1287 1351 1264 1327 c 128,-1,48
 1241 1303 1241 1303 1206 1295 c 1,49,-1
 1035 1295 l 2,50,51
 908 1295 908 1295 781.5 1302 c 128,-1,52
 655 1309 655 1309 528 1309 c 2,53,-1
 468 1309 l 1,54,55
 466 1271 466 1271 460 1229.5 c 128,-1,56
 454 1188 454 1188 446.5 1146.5 c 128,-1,57
 439 1105 439 1105 433.5 1064 c 128,-1,58
 428 1023 428 1023 428 987 c 2,59,-1
 428 980 l 1,60,61
 481 963 481 963 547.5 948.5 c 128,-1,62
 614 934 614 934 687.5 917.5 c 128,-1,63
 761 901 761 901 836.5 881.5 c 128,-1,64
 912 862 912 862 983 835.5 c 128,-1,65
 1054 809 1054 809 1116.5 773.5 c 128,-1,66
 1179 738 1179 738 1226 689.5 c 128,-1,67
 1273 641 1273 641 1300 578 c 128,-1,68
 1327 515 1327 515 1327 433 c 0,69,70
 1327 357 1327 357 1299 295 c 128,-1,71
 1271 233 1271 233 1224.5 185 c 128,-1,72
 1178 137 1178 137 1116 102 c 128,-1,73
 1054 67 1054 67 985.5 44.5 c 128,-1,74
 917 22 917 22 847 11 c 128,-1,75
 777 0 777 0 713 0 c 0,76,77
 682 0 682 0 625 7 c 128,-1,78
 568 14 568 14 500.5 28 c 128,-1,79
 433 42 433 42 362.5 63.5 c 128,-1,80
 292 85 292 85 235 113 c 128,-1,81
 178 141 178 141 141.5 176.5 c 128,-1,82
 105 212 105 212 105 255 c 0,0,1
EndSplineSet
Validated: 1
EndChar

StartChar: six
Encoding: 54 54 25
Width: 1205
GlyphClass: 2
Flags: W
LayerCount: 2
Fore
SplineSet
99 880 m 1,0,1
 117 1010 117 1010 171.5 1126.5 c 128,-1,2
 226 1243 226 1243 312 1331.5 c 128,-1,3
 398 1420 398 1420 513 1472 c 128,-1,4
 628 1524 628 1524 767 1524 c 0,5,6
 787 1524 787 1524 816 1526.5 c 128,-1,7
 845 1529 845 1529 876.5 1530 c 128,-1,8
 908 1531 908 1531 940 1528.5 c 128,-1,9
 972 1526 972 1526 997 1517 c 128,-1,10
 1022 1508 1022 1508 1037.5 1489.5 c 128,-1,11
 1053 1471 1053 1471 1053 1441 c 0,12,13
 1053 1403 1053 1403 1026 1380 c 128,-1,14
 999 1357 999 1357 963 1357 c 0,15,16
 914 1357 914 1357 866 1351 c 128,-1,17
 818 1345 818 1345 767 1345 c 0,18,19
 675 1345 675 1345 587 1308.5 c 128,-1,20
 499 1272 499 1272 430.5 1208.5 c 128,-1,21
 362 1145 362 1145 320 1059.5 c 128,-1,22
 278 974 278 974 278 877 c 2,23,-1
 278 862 l 1,24,25
 318 892 318 892 362 919.5 c 128,-1,26
 406 947 406 947 453 967 c 128,-1,27
 500 987 500 987 550 999 c 128,-1,28
 600 1011 600 1011 653 1011 c 0,29,30
 764 1011 764 1011 852 968 c 128,-1,31
 940 925 940 925 1002 853 c 128,-1,32
 1064 781 1064 781 1097 686 c 128,-1,33
 1130 591 1130 591 1130 487 c 0,34,35
 1130 424 1130 424 1107 362 c 128,-1,36
 1084 300 1084 300 1044 244.5 c 128,-1,37
 1004 189 1004 189 950.5 141.5 c 128,-1,38
 897 94 897 94 835.5 59.5 c 128,-1,39
 774 25 774 25 707.5 5.5 c 128,-1,40
 641 -14 641 -14 576 -14 c 0,41,42
 469 -14 469 -14 392 17.5 c 128,-1,43
 315 49 315 49 262 103.5 c 128,-1,44
 209 158 209 158 177 232 c 128,-1,45
 145 306 145 306 127.5 391.5 c 128,-1,46
 110 477 110 477 104.5 569.5 c 128,-1,47
 99 662 99 662 99 755 c 2,48,-1
 99 880 l 1,0,1
278 603 m 0,49,50
 278 519 278 519 290 440 c 128,-1,51
 302 361 302 361 334.5 300 c 128,-1,52
 367 239 367 239 423 202 c 128,-1,53
 479 165 479 165 567 165 c 2,54,-1
 624 165 l 1,55,56
 658 173 658 173 696 190 c 128,-1,57
 734 207 734 207 771 230 c 128,-1,58
 808 253 808 253 842 282 c 128,-1,59
 876 311 876 311 901.5 343.5 c 128,-1,60
 927 376 927 376 942 411.5 c 128,-1,61
 957 447 957 447 957 484 c 0,62,63
 957 554 957 554 937.5 617.5 c 128,-1,64
 918 681 918 681 880 728.5 c 128,-1,65
 842 776 842 776 785 804 c 128,-1,66
 728 832 728 832 653 832 c 0,67,68
 627 832 627 832 589 823.5 c 128,-1,69
 551 815 551 815 509.5 799.5 c 128,-1,70
 468 784 468 784 426.5 762.5 c 128,-1,71
 385 741 385 741 352 715.5 c 128,-1,72
 319 690 319 690 298.5 661.5 c 128,-1,73
 278 633 278 633 278 603 c 0,49,50
EndSplineSet
Validated: 1
EndChar

StartChar: seven
Encoding: 55 55 26
Width: 1302
GlyphClass: 2
Flags: W
LayerCount: 2
Fore
SplineSet
450 134 m 2,0,1
 450 238 450 238 472 342 c 128,-1,2
 494 446 494 446 531.5 548.5 c 128,-1,3
 569 651 569 651 618.5 750.5 c 128,-1,4
 668 850 668 850 724 945 c 128,-1,5
 780 1040 780 1040 839 1129 c 128,-1,6
 898 1218 898 1218 953 1299 c 1,7,-1
 953 1305 l 1,8,9
 871 1305 871 1305 788 1302 c 128,-1,10
 705 1299 705 1299 623 1299 c 0,11,12
 596 1299 596 1299 543 1296 c 128,-1,13
 490 1293 490 1293 426 1292 c 0,14,15
 409 1291 409 1291 391 1291 c 0,16,17
 337 1291 337 1291 295 1294 c 0,18,19
 225 1299 225 1299 174 1312 c 0,20,21
 119 1326 119 1326 84 1353 c 128,-1,22
 49 1380 49 1380 49 1426 c 0,23,24
 49 1436 49 1436 52 1449.5 c 128,-1,25
 55 1463 55 1463 61.5 1475.5 c 128,-1,26
 68 1488 68 1488 78.5 1496.5 c 128,-1,27
 89 1505 89 1505 104 1505 c 2,28,-1
 177 1505 l 1,29,30
 258 1495 258 1495 316 1489 c 128,-1,31
 374 1483 374 1483 425.5 1479.5 c 128,-1,32
 477 1476 477 1476 528.5 1475 c 128,-1,33
 580 1474 580 1474 647 1474 c 0,34,35
 711 1474 711 1474 774 1480 c 128,-1,36
 837 1486 837 1486 900.5 1492.5 c 128,-1,37
 964 1499 964 1499 1027 1505 c 128,-1,38
 1090 1511 1090 1511 1154 1511 c 0,39,40
 1190 1511 1190 1511 1217.5 1491 c 128,-1,41
 1245 1471 1245 1471 1245 1429 c 0,42,43
 1245 1399 1245 1399 1227 1371 c 1,44,45
 1146 1260 1146 1260 1068 1145.5 c 128,-1,46
 990 1031 990 1031 919.5 911.5 c 128,-1,47
 849 792 849 792 788 668 c 128,-1,48
 727 544 727 544 680 413 c 0,49,50
 672 390 672 390 667.5 350.5 c 128,-1,51
 663 311 663 311 658 265.5 c 128,-1,52
 653 220 653 220 646 172.5 c 128,-1,53
 639 125 639 125 625 87 c 128,-1,54
 611 49 611 49 589 24.5 c 128,-1,55
 567 0 567 0 532 0 c 0,56,57
 504 0 504 0 481.5 17 c 128,-1,58
 459 34 459 34 450 61 c 1,59,-1
 450 134 l 2,0,1
EndSplineSet
Validated: 1
EndChar

StartChar: eight
Encoding: 56 56 27
Width: 1059
GlyphClass: 2
Flags: W
LayerCount: 2
Fore
SplineSet
1029 399 m 0,0,1
 1029 343 1029 343 1008.5 292.5 c 128,-1,2
 988 242 988 242 953 198 c 128,-1,3
 918 154 918 154 871 118.5 c 128,-1,4
 824 83 824 83 771.5 58 c 128,-1,5
 719 33 719 33 663 19.5 c 128,-1,6
 607 6 607 6 554 6 c 0,7,8
 463 6 463 6 370.5 38 c 128,-1,9
 278 70 278 70 203 128.5 c 128,-1,10
 128 187 128 187 81 269.5 c 128,-1,11
 34 352 34 352 34 452 c 0,12,13
 34 524 34 524 50 573 c 128,-1,14
 66 622 66 622 91.5 656 c 128,-1,15
 117 690 117 690 150 714 c 128,-1,16
 183 738 183 738 216.5 761 c 128,-1,17
 250 784 250 784 281.5 809.5 c 128,-1,18
 313 835 313 835 336 873 c 1,19,20
 307 907 307 907 276 934.5 c 128,-1,21
 245 962 245 962 215 988 c 128,-1,22
 185 1014 185 1014 158 1040.5 c 128,-1,23
 131 1067 131 1067 110 1098 c 128,-1,24
 89 1129 89 1129 77 1167 c 128,-1,25
 65 1205 65 1205 65 1254 c 0,26,27
 65 1336 65 1336 99 1403 c 128,-1,28
 133 1470 133 1470 189 1517 c 128,-1,29
 245 1564 245 1564 317 1590 c 128,-1,30
 389 1616 389 1616 465 1616 c 0,31,32
 525 1616 525 1616 589.5 1598.5 c 128,-1,33
 654 1581 654 1581 716 1549.5 c 128,-1,34
 778 1518 778 1518 833.5 1474 c 128,-1,35
 889 1430 889 1430 931 1377.5 c 128,-1,36
 973 1325 973 1325 997.5 1265.5 c 128,-1,37
 1022 1206 1022 1206 1022 1143 c 0,38,39
 1022 1082 1022 1082 1000 1032.5 c 128,-1,40
 978 983 978 983 941.5 942.5 c 128,-1,41
 905 902 905 902 858.5 869.5 c 128,-1,42
 812 837 812 837 764 811 c 1,43,-1
 764 808 l 2,44,45
 764 791 764 791 783.5 767.5 c 128,-1,46
 803 744 803 744 832.5 714.5 c 128,-1,47
 862 685 862 685 896.5 650 c 128,-1,48
 931 615 931 615 960.5 575.5 c 128,-1,49
 990 536 990 536 1009.5 491.5 c 128,-1,50
 1029 447 1029 447 1029 399 c 0,0,1
850 403 m 0,51,52
 850 426 850 426 842 445 c 128,-1,53
 834 464 834 464 820 483 c 1,54,55
 812 491 812 491 790 513.5 c 128,-1,56
 768 536 768 536 738 564.5 c 128,-1,57
 708 593 708 593 673 623.5 c 128,-1,58
 638 654 638 654 606 679.5 c 128,-1,59
 574 705 574 705 547 721.5 c 128,-1,60
 520 738 520 738 505 738 c 0,61,62
 475 738 475 738 441.5 725.5 c 128,-1,63
 408 713 408 713 376 692 c 128,-1,64
 344 671 344 671 314 642.5 c 128,-1,65
 284 614 284 614 262 583 c 128,-1,66
 240 552 240 552 226.5 519 c 128,-1,67
 213 486 213 486 213 455 c 0,68,69
 213 393 213 393 246 342.5 c 128,-1,70
 279 292 279 292 329 256.5 c 128,-1,71
 379 221 379 221 439.5 202 c 128,-1,72
 500 183 500 183 554 183 c 0,73,74
 582 183 582 183 614.5 191 c 128,-1,75
 647 199 647 199 680 213 c 128,-1,76
 713 227 713 227 743.5 247 c 128,-1,77
 774 267 774 267 798 291.5 c 128,-1,78
 822 316 822 316 836 344 c 128,-1,79
 850 372 850 372 850 403 c 0,51,52
839 1146 m 0,80,81
 839 1183 839 1183 821 1219 c 128,-1,82
 803 1255 803 1255 773 1287.5 c 128,-1,83
 743 1320 743 1320 704 1347.5 c 128,-1,84
 665 1375 665 1375 623.5 1395 c 128,-1,85
 582 1415 582 1415 541 1426.5 c 128,-1,86
 500 1438 500 1438 465 1438 c 0,87,88
 425 1438 425 1438 386.5 1425.5 c 128,-1,89
 348 1413 348 1413 317.5 1389 c 128,-1,90
 287 1365 287 1365 268.5 1331 c 128,-1,91
 250 1297 250 1297 250 1254 c 0,92,93
 250 1212 250 1212 268 1181.5 c 128,-1,94
 286 1151 286 1151 318 1125 c 2,95,-1
 533 953 l 1,96,97
 537 948 537 948 541.5 947 c 128,-1,98
 546 946 546 946 551 946 c 0,99,100
 574 946 574 946 604.5 954 c 128,-1,101
 635 962 635 962 667 976 c 128,-1,102
 699 990 699 990 729.5 1009 c 128,-1,103
 760 1028 760 1028 784.5 1050.5 c 128,-1,104
 809 1073 809 1073 824 1097 c 128,-1,105
 839 1121 839 1121 839 1146 c 0,80,81
EndSplineSet
Validated: 1
EndChar

StartChar: nine
Encoding: 57 57 28
Width: 1205
GlyphClass: 2
Flags: W
LayerCount: 2
Fore
SplineSet
1130 655 m 1,0,1
 1112 525 1112 525 1054 407.5 c 128,-1,2
 996 290 996 290 906 201 c 128,-1,3
 816 112 816 112 697.5 59.5 c 128,-1,4
 579 7 579 7 440 7 c 0,5,6
 420 7 420 7 391 4.5 c 128,-1,7
 362 2 362 2 330.5 1 c 128,-1,8
 299 0 299 0 267 2.5 c 128,-1,9
 235 5 235 5 210 14 c 128,-1,10
 185 23 185 23 169.5 41 c 128,-1,11
 154 59 154 59 154 90 c 0,12,13
 154 128 154 128 181 151 c 128,-1,14
 208 174 208 174 244 174 c 0,15,16
 293 174 293 174 341 180 c 128,-1,17
 389 186 389 186 440 186 c 0,18,19
 501 186 501 186 563 203 c 128,-1,20
 625 220 625 220 681.5 251 c 128,-1,21
 738 282 738 282 787.5 325 c 128,-1,22
 837 368 837 368 873 420.5 c 128,-1,23
 909 473 909 473 930 533 c 128,-1,24
 951 593 951 593 951 658 c 2,25,-1
 951 673 l 1,26,27
 911 643 911 643 861 615.5 c 128,-1,28
 811 588 811 588 756.5 568 c 128,-1,29
 702 548 702 548 645.5 536 c 128,-1,30
 589 524 589 524 537 524 c 0,31,32
 426 524 426 524 344 567 c 128,-1,33
 262 610 262 610 207.5 682 c 128,-1,34
 153 754 153 754 126 849 c 128,-1,35
 99 944 99 944 99 1048 c 0,36,37
 99 1112 99 1112 121.5 1173.5 c 128,-1,38
 144 1235 144 1235 183.5 1290.5 c 128,-1,39
 223 1346 223 1346 276 1393.5 c 128,-1,40
 329 1441 329 1441 390 1475.5 c 128,-1,41
 451 1510 451 1510 517 1529.5 c 128,-1,42
 583 1549 583 1549 648 1549 c 0,43,44
 755 1549 755 1549 832.5 1517.5 c 128,-1,45
 910 1486 910 1486 963.5 1431.5 c 128,-1,46
 1017 1377 1017 1377 1050 1303 c 128,-1,47
 1083 1229 1083 1229 1100.5 1143.5 c 128,-1,48
 1118 1058 1118 1058 1124 965 c 128,-1,49
 1130 872 1130 872 1130 780 c 2,50,-1
 1130 655 l 1,0,1
951 932 m 0,51,52
 951 1016 951 1016 938 1095 c 128,-1,53
 925 1174 925 1174 892 1235 c 128,-1,54
 859 1296 859 1296 802 1333 c 128,-1,55
 745 1370 745 1370 657 1370 c 2,56,-1
 600 1370 l 1,57,58
 549 1358 549 1358 491 1327 c 128,-1,59
 433 1296 433 1296 384.5 1253 c 128,-1,60
 336 1210 336 1210 304 1158 c 128,-1,61
 272 1106 272 1106 272 1051 c 0,62,63
 272 980 272 980 285.5 917 c 128,-1,64
 299 854 299 854 329.5 806.5 c 128,-1,65
 360 759 360 759 411 731 c 128,-1,66
 462 703 462 703 537 703 c 0,67,68
 563 703 563 703 604 711.5 c 128,-1,69
 645 720 645 720 691 735.5 c 128,-1,70
 737 751 737 751 783 772.5 c 128,-1,71
 829 794 829 794 866.5 819.5 c 128,-1,72
 904 845 904 845 927.5 873.5 c 128,-1,73
 951 902 951 902 951 932 c 0,51,52
EndSplineSet
Validated: 1
EndChar

StartChar: colon
Encoding: 58 58 29
Width: 481
GlyphClass: 2
Flags: W
LayerCount: 2
Fore
SplineSet
106 151 m 256,0,1
 106 181 106 181 117.5 208 c 128,-1,2
 129 235 129 235 148.5 255 c 128,-1,3
 168 275 168 275 195 286.5 c 128,-1,4
 222 298 222 298 252 298 c 256,5,6
 282 298 282 298 309 286.5 c 128,-1,7
 336 275 336 275 356 255 c 128,-1,8
 376 235 376 235 387.5 208 c 128,-1,9
 399 181 399 181 399 151 c 256,10,11
 399 121 399 121 387.5 94 c 128,-1,12
 376 67 376 67 356 47.5 c 128,-1,13
 336 28 336 28 309 16.5 c 128,-1,14
 282 5 282 5 252 5 c 256,15,16
 222 5 222 5 195 16.5 c 128,-1,17
 168 28 168 28 148.5 47.5 c 128,-1,18
 129 67 129 67 117.5 94 c 128,-1,19
 106 121 106 121 106 151 c 256,0,1
98 979 m 256,20,21
 98 1009 98 1009 109.5 1036 c 128,-1,22
 121 1063 121 1063 140.5 1083 c 128,-1,23
 160 1103 160 1103 187 1114.5 c 128,-1,24
 214 1126 214 1126 244 1126 c 256,25,26
 274 1126 274 1126 301 1114.5 c 128,-1,27
 328 1103 328 1103 348 1083 c 128,-1,28
 368 1063 368 1063 379.5 1036 c 128,-1,29
 391 1009 391 1009 391 979 c 256,30,31
 391 949 391 949 379.5 922 c 128,-1,32
 368 895 368 895 348 875.5 c 128,-1,33
 328 856 328 856 301 844.5 c 128,-1,34
 274 833 274 833 244 833 c 256,35,36
 214 833 214 833 187 844.5 c 128,-1,37
 160 856 160 856 140.5 875.5 c 128,-1,38
 121 895 121 895 109.5 922 c 128,-1,39
 98 949 98 949 98 979 c 256,20,21
EndSplineSet
Validated: 1
EndChar

StartChar: semicolon
Encoding: 59 59 30
Width: 513
GlyphClass: 2
Flags: W
LayerCount: 2
Fore
SplineSet
76 -185 m 0,0,1
 121 -133 121 -133 151 -83 c 128,-1,2
 181 -33 181 -33 200 18 c 128,-1,3
 219 69 219 69 230 122.5 c 128,-1,4
 241 176 241 176 249 234 c 0,5,6
 254 266 254 266 280 284 c 128,-1,7
 306 302 306 302 336 302 c 0,8,9
 368 302 368 302 389.5 289 c 128,-1,10
 411 276 411 276 423 246 c 1,11,-1
 423 187 l 2,12,13
 423 155 423 155 415.5 108 c 128,-1,14
 408 61 408 61 393 9.5 c 128,-1,15
 378 -42 378 -42 356 -92.5 c 128,-1,16
 334 -143 334 -143 305.5 -183.5 c 128,-1,17
 277 -224 277 -224 242 -249 c 128,-1,18
 207 -274 207 -274 166 -274 c 0,19,20
 146 -274 146 -274 126 -264 c 128,-1,21
 106 -254 106 -254 91.5 -240 c 128,-1,22
 77 -226 77 -226 71.5 -211 c 128,-1,23
 66 -196 66 -196 76 -185 c 0,0,1
169 978 m 256,24,25
 169 1008 169 1008 180.5 1035 c 128,-1,26
 192 1062 192 1062 211.5 1082 c 128,-1,27
 231 1102 231 1102 258 1113.5 c 128,-1,28
 285 1125 285 1125 315 1125 c 256,29,30
 345 1125 345 1125 372 1113.5 c 128,-1,31
 399 1102 399 1102 419 1082 c 128,-1,32
 439 1062 439 1062 450.5 1035 c 128,-1,33
 462 1008 462 1008 462 978 c 256,34,35
 462 948 462 948 450.5 921 c 128,-1,36
 439 894 439 894 419 874.5 c 128,-1,37
 399 855 399 855 372 843.5 c 128,-1,38
 345 832 345 832 315 832 c 256,39,40
 285 832 285 832 258 843.5 c 128,-1,41
 231 855 231 855 211.5 874.5 c 128,-1,42
 192 894 192 894 180.5 921 c 128,-1,43
 169 948 169 948 169 978 c 256,24,25
EndSplineSet
Validated: 1
EndChar

StartChar: less
Encoding: 60 60 31
Width: 1162
GlyphClass: 2
Flags: W
LayerCount: 2
Fore
SplineSet
164 655 m 0,0,1
 167 674 167 674 192.5 696 c 128,-1,2
 218 718 218 718 256.5 741 c 128,-1,3
 295 764 295 764 340.5 787 c 128,-1,4
 386 810 386 810 428 831 c 128,-1,5
 470 852 470 852 503.5 869 c 128,-1,6
 537 886 537 886 551 897 c 2,7,-1
 931 1212 l 1,8,9
 940 1218 940 1218 953.5 1223 c 128,-1,10
 967 1228 967 1228 979 1228 c 0,11,12
 1015 1228 1015 1228 1037.5 1204 c 128,-1,13
 1060 1180 1060 1180 1060 1147 c 0,14,15
 1060 1110 1060 1110 1028 1065.5 c 128,-1,16
 996 1021 996 1021 945.5 974 c 128,-1,17
 895 927 895 927 832 880 c 128,-1,18
 769 833 769 833 706 790.5 c 128,-1,19
 643 748 643 748 587 713 c 128,-1,20
 531 678 531 678 495 655 c 1,21,22
 560 605 560 605 633.5 553 c 128,-1,23
 707 501 707 501 781 445.5 c 128,-1,24
 855 390 855 390 924.5 329.5 c 128,-1,25
 994 269 994 269 1052 202 c 0,26,27
 1061 193 1061 193 1060.5 182 c 128,-1,28
 1060 171 1060 171 1060 162 c 0,29,30
 1060 126 1060 126 1039 103.5 c 128,-1,31
 1018 81 1018 81 979 81 c 0,32,33
 955 81 955 81 911 114 c 128,-1,34
 867 147 867 147 809 197.5 c 128,-1,35
 751 248 751 248 681.5 308 c 128,-1,36
 612 368 612 368 536 423 c 128,-1,37
 460 478 460 478 380 519.5 c 128,-1,38
 300 561 300 561 221 574 c 0,39,40
 192 579 192 579 176 603 c 128,-1,41
 160 627 160 627 164 655 c 0,0,1
EndSplineSet
Validated: 1
EndChar

StartChar: equal
Encoding: 61 61 32
Width: 1187
GlyphClass: 2
Flags: W
LayerCount: 2
Fore
SplineSet
1033 366 m 1,0,-1
 136 366 l 1,1,-1
 172 552 l 1,2,-1
 1069 552 l 1,3,-1
 1033 366 l 1,0,-1
1033 808 m 1,4,-1
 136 808 l 1,5,-1
 172 978 l 1,6,-1
 1069 978 l 1,7,-1
 1033 808 l 1,4,-1
EndSplineSet
Validated: 1
EndChar

StartChar: greater
Encoding: 62 62 33
Width: 1162
GlyphClass: 2
Flags: W
LayerCount: 2
Fore
SplineSet
1025 655 m 0,0,1
 1029 627 1029 627 1013 603 c 128,-1,2
 997 579 997 579 968 574 c 0,3,4
 889 561 889 561 809 519.5 c 128,-1,5
 729 478 729 478 653 423 c 128,-1,6
 577 368 577 368 507.5 308 c 128,-1,7
 438 248 438 248 380 197.5 c 128,-1,8
 322 147 322 147 278 114 c 128,-1,9
 234 81 234 81 210 81 c 0,10,11
 171 81 171 81 150 103.5 c 128,-1,12
 129 126 129 126 129 162 c 0,13,14
 129 171 129 171 128.5 182 c 128,-1,15
 128 193 128 193 137 202 c 0,16,17
 195 269 195 269 264.5 329.5 c 128,-1,18
 334 390 334 390 408 445.5 c 128,-1,19
 482 501 482 501 555.5 553 c 128,-1,20
 629 605 629 605 694 655 c 1,21,22
 658 678 658 678 602 713 c 128,-1,23
 546 748 546 748 483 790.5 c 128,-1,24
 420 833 420 833 357 880 c 128,-1,25
 294 927 294 927 243.5 974 c 128,-1,26
 193 1021 193 1021 161 1065.5 c 128,-1,27
 129 1110 129 1110 129 1147 c 0,28,29
 129 1180 129 1180 151.5 1204 c 128,-1,30
 174 1228 174 1228 210 1228 c 0,31,32
 222 1228 222 1228 235.5 1223 c 128,-1,33
 249 1218 249 1218 258 1212 c 1,34,-1
 638 897 l 2,35,36
 652 886 652 886 685.5 869 c 128,-1,37
 719 852 719 852 761 831 c 128,-1,38
 803 810 803 810 848.5 787 c 128,-1,39
 894 764 894 764 932.5 741 c 128,-1,40
 971 718 971 718 996.5 696 c 128,-1,41
 1022 674 1022 674 1025 655 c 0,0,1
EndSplineSet
Validated: 1
EndChar

StartChar: question
Encoding: 63 63 34
Width: 968
GlyphClass: 2
Flags: W
LayerCount: 2
Fore
SplineSet
317 169 m 256,0,1
 317 203 317 203 330 232.5 c 128,-1,2
 343 262 343 262 365 284 c 128,-1,3
 387 306 387 306 417 319 c 128,-1,4
 447 332 447 332 481 332 c 0,5,6
 516 332 516 332 545 319 c 128,-1,7
 574 306 574 306 595 283.5 c 128,-1,8
 616 261 616 261 627.5 231.5 c 128,-1,9
 639 202 639 202 639 169 c 256,10,11
 639 136 639 136 627.5 106 c 128,-1,12
 616 76 616 76 595 53.5 c 128,-1,13
 574 31 574 31 545 18 c 128,-1,14
 516 5 516 5 481 5 c 0,15,16
 447 5 447 5 417 18 c 128,-1,17
 387 31 387 31 365 53 c 128,-1,18
 343 75 343 75 330 105 c 128,-1,19
 317 135 317 135 317 169 c 256,0,1
384 636 m 0,20,21
 384 654 384 654 390.5 669.5 c 128,-1,22
 397 685 397 685 408.5 696.5 c 128,-1,23
 420 708 420 708 435.5 714.5 c 128,-1,24
 451 721 451 721 468 721 c 0,25,26
 494 721 494 721 521 717 c 128,-1,27
 548 713 548 713 573 713 c 0,28,29
 633 713 633 713 670.5 742.5 c 128,-1,30
 708 772 708 772 728.5 817.5 c 128,-1,31
 749 863 749 863 756 917 c 128,-1,32
 763 971 763 971 763 1020 c 0,33,34
 763 1048 763 1048 761.5 1082.5 c 128,-1,35
 760 1117 760 1117 755 1152.5 c 128,-1,36
 750 1188 750 1188 739 1221 c 128,-1,37
 728 1254 728 1254 710 1279.5 c 128,-1,38
 692 1305 692 1305 664.5 1320.5 c 128,-1,39
 637 1336 637 1336 598 1336 c 0,40,41
 532 1336 532 1336 479.5 1310.5 c 128,-1,42
 427 1285 427 1285 385 1246.5 c 128,-1,43
 343 1208 343 1208 309 1163 c 128,-1,44
 275 1118 275 1118 245 1079.5 c 128,-1,45
 215 1041 215 1041 187.5 1015.5 c 128,-1,46
 160 990 160 990 130 990 c 0,47,48
 96 990 96 990 71 1015.5 c 128,-1,49
 46 1041 46 1041 46 1079 c 0,50,51
 46 1139 46 1139 72.5 1194.5 c 128,-1,52
 99 1250 99 1250 143 1298 c 128,-1,53
 187 1346 187 1346 244.5 1386 c 128,-1,54
 302 1426 302 1426 363.5 1454 c 128,-1,55
 425 1482 425 1482 485.5 1497.5 c 128,-1,56
 546 1513 546 1513 598 1513 c 0,57,58
 665 1513 665 1513 716 1492.5 c 128,-1,59
 767 1472 767 1472 805 1436 c 128,-1,60
 843 1400 843 1400 869 1352.5 c 128,-1,61
 895 1305 895 1305 910.5 1250.5 c 128,-1,62
 926 1196 926 1196 933 1138.5 c 128,-1,63
 940 1081 940 1081 940 1025 c 0,64,65
 940 935 940 935 920.5 847 c 128,-1,66
 901 759 901 759 857.5 689.5 c 128,-1,67
 814 620 814 620 744 577.5 c 128,-1,68
 674 535 674 535 573 535 c 0,69,70
 548 535 548 535 515.5 537.5 c 128,-1,71
 483 540 483 540 453.5 549.5 c 128,-1,72
 424 559 424 559 404 579.5 c 128,-1,73
 384 600 384 600 384 636 c 0,20,21
EndSplineSet
Validated: 1
EndChar

StartChar: at
Encoding: 64 64 35
Width: 1945
GlyphClass: 2
Flags: W
LayerCount: 2
Fore
SplineSet
128 586 m 0,0,1
 128 713 128 713 157.5 827 c 128,-1,2
 187 941 187 941 241.5 1037.5 c 128,-1,3
 296 1134 296 1134 374 1211 c 128,-1,4
 452 1288 452 1288 549 1342.5 c 128,-1,5
 646 1397 646 1397 760 1426 c 128,-1,6
 874 1455 874 1455 1001 1455 c 0,7,8
 1136 1455 1136 1455 1248.5 1421 c 128,-1,9
 1361 1387 1361 1387 1451.5 1326 c 128,-1,10
 1542 1265 1542 1265 1610 1179 c 128,-1,11
 1678 1093 1678 1093 1723 990 c 128,-1,12
 1768 887 1768 887 1791 769 c 128,-1,13
 1814 651 1814 651 1814 525 c 0,14,15
 1814 476 1814 476 1809 416.5 c 128,-1,16
 1804 357 1804 357 1791.5 296.5 c 128,-1,17
 1779 236 1779 236 1757 178.5 c 128,-1,18
 1735 121 1735 121 1700 76.5 c 128,-1,19
 1665 32 1665 32 1616 5 c 128,-1,20
 1567 -22 1567 -22 1501 -22 c 0,21,22
 1442 -22 1442 -22 1400.5 -5.5 c 128,-1,23
 1359 11 1359 11 1329.5 38 c 128,-1,24
 1300 65 1300 65 1279.5 100 c 128,-1,25
 1259 135 1259 135 1243 172.5 c 128,-1,26
 1227 210 1227 210 1212 247.5 c 128,-1,27
 1197 285 1197 285 1179 317 c 1,28,29
 1156 299 1156 299 1127 275 c 128,-1,30
 1098 251 1098 251 1066 229.5 c 128,-1,31
 1034 208 1034 208 1000.5 193 c 128,-1,32
 967 178 967 178 936 178 c 2,33,-1
 771 178 l 2,34,35
 724 178 724 178 688.5 198 c 128,-1,36
 653 218 653 218 627 251.5 c 128,-1,37
 601 285 601 285 584 327 c 128,-1,38
 567 369 567 369 556.5 413 c 128,-1,39
 546 457 546 457 541.5 498.5 c 128,-1,40
 537 540 537 540 537 573 c 2,41,-1
 537 673 l 1,42,43
 556 777 556 777 611.5 844.5 c 128,-1,44
 667 912 667 912 744 951 c 128,-1,45
 821 990 821 990 913.5 1005.5 c 128,-1,46
 1006 1021 1006 1021 1101 1021 c 0,47,48
 1120 1021 1120 1021 1152 1020.5 c 128,-1,49
 1184 1020 1184 1020 1216.5 1014 c 128,-1,50
 1249 1008 1249 1008 1275.5 993.5 c 128,-1,51
 1302 979 1302 979 1310 951 c 1,52,53
 1310 936 1310 936 1311 904.5 c 128,-1,54
 1312 873 1312 873 1313.5 833.5 c 128,-1,55
 1315 794 1315 794 1317 751 c 128,-1,56
 1319 708 1319 708 1321 668.5 c 128,-1,57
 1323 629 1323 629 1324.5 597.5 c 128,-1,58
 1326 566 1326 566 1327 551 c 0,59,60
 1328 533 1328 533 1333 497.5 c 128,-1,61
 1338 462 1338 462 1347.5 419.5 c 128,-1,62
 1357 377 1357 377 1371.5 332.5 c 128,-1,63
 1386 288 1386 288 1405 251.5 c 128,-1,64
 1424 215 1424 215 1448 192 c 128,-1,65
 1472 169 1472 169 1501 169 c 256,66,67
 1530 169 1530 169 1551 190.5 c 128,-1,68
 1572 212 1572 212 1586.5 245.5 c 128,-1,69
 1601 279 1601 279 1610 320 c 128,-1,70
 1619 361 1619 361 1623.5 399.5 c 128,-1,71
 1628 438 1628 438 1629.5 470 c 128,-1,72
 1631 502 1631 502 1631 517 c 0,73,74
 1631 670 1631 670 1592.5 806 c 128,-1,75
 1554 942 1554 942 1475 1043.5 c 128,-1,76
 1396 1145 1396 1145 1276 1204.5 c 128,-1,77
 1156 1264 1156 1264 993 1264 c 0,78,79
 846 1264 846 1264 721.5 1215 c 128,-1,80
 597 1166 597 1166 505.5 1077 c 128,-1,81
 414 988 414 988 362.5 864.5 c 128,-1,82
 311 741 311 741 311 591 c 0,83,84
 311 464 311 464 353 351 c 128,-1,85
 395 238 395 238 472 153.5 c 128,-1,86
 549 69 549 69 657 19.5 c 128,-1,87
 765 -30 765 -30 897 -30 c 2,88,-1
 980 -30 l 1,89,90
 1002 -17 1002 -17 1018.5 -15 c 128,-1,91
 1035 -13 1035 -13 1058 -13 c 0,92,93
 1100 -13 1100 -13 1122.5 -35 c 128,-1,94
 1145 -57 1145 -57 1145 -96 c 0,95,96
 1145 -143 1145 -143 1118.5 -168.5 c 128,-1,97
 1092 -194 1092 -194 1053 -206 c 128,-1,98
 1014 -218 1014 -218 970.5 -220 c 128,-1,99
 927 -222 927 -222 893 -222 c 0,100,101
 779 -222 779 -222 678 -192.5 c 128,-1,102
 577 -163 577 -163 492 -110 c 128,-1,103
 407 -57 407 -57 339.5 17.5 c 128,-1,104
 272 92 272 92 225 182 c 128,-1,105
 178 272 178 272 153 374 c 128,-1,106
 128 476 128 476 128 586 c 0,0,1
702 573 m 0,107,108
 702 535 702 535 708 494.5 c 128,-1,109
 714 454 714 454 730.5 420.5 c 128,-1,110
 747 387 747 387 777 365 c 128,-1,111
 807 343 807 343 854 343 c 0,112,113
 918 343 918 343 964 365 c 128,-1,114
 1010 387 1010 387 1041 424 c 128,-1,115
 1072 461 1072 461 1091 509.5 c 128,-1,116
 1110 558 1110 558 1120 610.5 c 128,-1,117
 1130 663 1130 663 1133 716 c 128,-1,118
 1136 769 1136 769 1136 816 c 0,119,120
 1136 819 1136 819 1136.5 824.5 c 128,-1,121
 1137 830 1137 830 1136.5 835 c 128,-1,122
 1136 840 1136 840 1134 843.5 c 128,-1,123
 1132 847 1132 847 1127 847 c 2,124,-1
 1054 847 l 2,125,126
 984 847 984 847 920 834.5 c 128,-1,127
 856 822 856 822 807.5 791 c 128,-1,128
 759 760 759 760 730.5 707 c 128,-1,129
 702 654 702 654 702 573 c 0,107,108
EndSplineSet
Validated: 1
EndChar

StartChar: A
Encoding: 65 65 36
Width: 1215
GlyphClass: 2
Flags: W
LayerCount: 2
Fore
SplineSet
912 118 m 2,0,1
 912 190 912 190 918 262 c 128,-1,2
 924 334 924 334 931 406 c 128,-1,3
 938 478 938 478 944 550 c 128,-1,4
 950 622 950 622 950 694 c 1,5,-1
 293 694 l 1,6,7
 289 538 289 538 261 381.5 c 128,-1,8
 233 225 233 225 188 73 c 0,9,10
 184 59 184 59 176 45.5 c 128,-1,11
 168 32 168 32 157 20.5 c 128,-1,12
 146 9 146 9 133 2 c 128,-1,13
 120 -5 120 -5 107 -5 c 0,14,15
 90 -5 90 -5 76 4.5 c 128,-1,16
 62 14 62 14 52 28.5 c 128,-1,17
 42 43 42 43 36.5 60.5 c 128,-1,18
 31 78 31 78 31 95 c 2,19,-1
 31 118 l 1,20,21
 41 159 41 159 55 208.5 c 128,-1,22
 69 258 69 258 82 310 c 128,-1,23
 95 362 95 362 105.5 412 c 128,-1,24
 116 462 116 462 120 504 c 2,25,-1
 165 1022 l 2,26,27
 170 1081 170 1081 193 1140 c 128,-1,28
 216 1199 216 1199 252.5 1253 c 128,-1,29
 289 1307 289 1307 336.5 1354.5 c 128,-1,30
 384 1402 384 1402 438.5 1437 c 128,-1,31
 493 1472 493 1472 551.5 1492 c 128,-1,32
 610 1512 610 1512 669 1512 c 0,33,34
 774 1512 774 1512 847.5 1475 c 128,-1,35
 921 1438 921 1438 970.5 1376.5 c 128,-1,36
 1020 1315 1020 1315 1048 1234 c 128,-1,37
 1076 1153 1076 1153 1090.5 1064 c 128,-1,38
 1105 975 1105 975 1108.5 884.5 c 128,-1,39
 1112 794 1112 794 1112 714 c 2,40,-1
 1112 582 l 1,41,42
 1111 563 1111 563 1108 522.5 c 128,-1,43
 1105 482 1105 482 1101 431.5 c 128,-1,44
 1097 381 1097 381 1091.5 325 c 128,-1,45
 1086 269 1086 269 1081.5 218.5 c 128,-1,46
 1077 168 1077 168 1073 127.5 c 128,-1,47
 1069 87 1069 87 1068 67 c 1,48,49
 1062 40 1062 40 1040.5 20 c 128,-1,50
 1019 0 1019 0 990 0 c 0,51,52
 963 0 963 0 941.5 15.5 c 128,-1,53
 920 31 920 31 912 56 c 1,54,-1
 912 118 l 2,0,1
293 885 m 0,55,56
 293 882 293 882 321 880.5 c 128,-1,57
 349 879 349 879 392 878 c 128,-1,58
 435 877 435 877 486 876.5 c 128,-1,59
 537 876 537 876 584 876 c 128,-1,60
 631 876 631 876 667 875.5 c 128,-1,61
 703 875 703 875 715 875 c 0,62,63
 742 874 742 874 769 874 c 0,64,65
 783 874 783 874 796 874 c 0,66,67
 837 874 837 874 870 876.5 c 128,-1,68
 903 879 903 879 923.5 882 c 128,-1,69
 944 885 944 885 944 890 c 0,70,71
 939 979 939 979 931 1061 c 128,-1,72
 923 1143 923 1143 898 1205.5 c 128,-1,73
 873 1268 873 1268 824 1305.5 c 128,-1,74
 775 1343 775 1343 688 1343 c 0,75,76
 628 1343 628 1343 575 1323 c 128,-1,77
 522 1303 522 1303 478.5 1268.5 c 128,-1,78
 435 1234 435 1234 400.5 1188 c 128,-1,79
 366 1142 366 1142 342 1091 c 128,-1,80
 318 1040 318 1040 305.5 987 c 128,-1,81
 293 934 293 934 293 885 c 0,55,56
EndSplineSet
Validated: 1
EndChar

StartChar: B
Encoding: 66 66 37
Width: 1404
GlyphClass: 2
Flags: W
LayerCount: 2
Fore
SplineSet
234 19 m 1,0,1
 208 27 208 27 198.5 49.5 c 128,-1,2
 189 72 189 72 189 98 c 0,3,4
 189 126 189 126 200.5 162 c 128,-1,5
 212 198 212 198 227.5 235 c 128,-1,6
 243 272 243 272 258 305 c 128,-1,7
 273 338 273 338 279 359 c 0,8,9
 314 473 314 473 339 594 c 128,-1,10
 364 715 364 715 379.5 838.5 c 128,-1,11
 395 962 395 962 402 1085.5 c 128,-1,12
 409 1209 409 1209 409 1328 c 1,13,14
 374 1328 374 1328 340.5 1321.5 c 128,-1,15
 307 1315 307 1315 273.5 1307 c 128,-1,16
 240 1299 240 1299 207 1292.5 c 128,-1,17
 174 1286 174 1286 140 1286 c 0,18,19
 103 1286 103 1286 80 1307.5 c 128,-1,20
 57 1329 57 1329 57 1365 c 0,21,22
 57 1403 57 1403 93.5 1428.5 c 128,-1,23
 130 1454 130 1454 187.5 1470 c 128,-1,24
 245 1486 245 1486 314.5 1494 c 128,-1,25
 384 1502 384 1502 449.5 1505 c 128,-1,26
 515 1508 515 1508 568.5 1508 c 128,-1,27
 622 1508 622 1508 648 1508 c 0,28,29
 839 1508 839 1508 963 1483 c 128,-1,30
 1087 1458 1087 1458 1159 1414 c 128,-1,31
 1231 1370 1231 1370 1259.5 1309.5 c 128,-1,32
 1288 1249 1288 1249 1288 1178 c 0,33,34
 1288 1118 1288 1118 1258 1078 c 128,-1,35
 1228 1038 1228 1038 1180.5 1010.5 c 128,-1,36
 1133 983 1133 983 1073.5 964.5 c 128,-1,37
 1014 946 1014 946 954.5 931 c 128,-1,38
 895 916 895 916 842 900.5 c 128,-1,39
 789 885 789 885 754 862 c 1,40,41
 809 842 809 842 869.5 817 c 128,-1,42
 930 792 930 792 989 761.5 c 128,-1,43
 1048 731 1048 731 1101.5 694 c 128,-1,44
 1155 657 1155 657 1195.5 610.5 c 128,-1,45
 1236 564 1236 564 1260 508 c 128,-1,46
 1284 452 1284 452 1284 385 c 0,47,48
 1284 296 1284 296 1247.5 233 c 128,-1,49
 1211 170 1211 170 1150.5 127.5 c 128,-1,50
 1090 85 1090 85 1012.5 60 c 128,-1,51
 935 35 935 35 853.5 22 c 128,-1,52
 772 9 772 9 693 5.5 c 128,-1,53
 614 2 614 2 551 2 c 0,54,55
 507 2 507 2 473 3 c 128,-1,56
 439 4 439 4 404.5 6.5 c 128,-1,57
 370 9 370 9 329.5 12 c 128,-1,58
 289 15 289 15 234 19 c 1,0,1
404 172 m 1,59,60
 408 172 408 172 423.5 171.5 c 128,-1,61
 439 171 439 171 458 170.5 c 128,-1,62
 477 170 477 170 495 169.5 c 128,-1,63
 513 169 513 169 523 169 c 0,64,65
 551 169 551 169 606.5 169.5 c 128,-1,66
 662 170 662 170 728 175.5 c 128,-1,67
 794 181 794 181 863.5 193 c 128,-1,68
 933 205 933 205 989.5 229 c 128,-1,69
 1046 253 1046 253 1082.5 291 c 128,-1,70
 1119 329 1119 329 1119 385 c 0,71,72
 1119 433 1119 433 1098.5 476.5 c 128,-1,73
 1078 520 1078 520 1044 557.5 c 128,-1,74
 1010 595 1010 595 966 626.5 c 128,-1,75
 922 658 922 658 876 683.5 c 128,-1,76
 830 709 830 709 785.5 727.5 c 128,-1,77
 741 746 741 746 705 758 c 1,78,79
 685 763 685 763 656 770.5 c 128,-1,80
 627 778 627 778 600 785 c 128,-1,81
 573 792 573 792 553.5 796 c 128,-1,82
 534 800 534 800 534 799 c 2,83,-1
 529 788 l 1,84,85
 517 717 517 717 502.5 638.5 c 128,-1,86
 488 560 488 560 470 480 c 128,-1,87
 452 400 452 400 430 322.5 c 128,-1,88
 408 245 408 245 381 178 c 1,89,-1
 404 172 l 1,59,60
580 1348 m 1,90,91
 579 1335 579 1335 577.5 1304.5 c 128,-1,92
 576 1274 576 1274 573.5 1235.5 c 128,-1,93
 571 1197 571 1197 568.5 1154.5 c 128,-1,94
 566 1112 566 1112 563.5 1073.5 c 128,-1,95
 561 1035 561 1035 559.5 1004.5 c 128,-1,96
 558 974 558 974 557 961 c 1,97,-1
 557 955 l 1,98,-1
 557 950 l 1,99,100
 567 950 567 950 598.5 956.5 c 128,-1,101
 630 963 630 963 673.5 974.5 c 128,-1,102
 717 986 717 986 769 1001.5 c 128,-1,103
 821 1017 821 1017 874.5 1036 c 128,-1,104
 928 1055 928 1055 977.5 1076.5 c 128,-1,105
 1027 1098 1027 1098 1066 1120 c 0,106,107
 1104 1142 1104 1142 1128 1166 c 0,108,109
 1153 1190 1153 1190 1153 1215 c 0,110,111
 1152 1252 1152 1252 1134 1276 c 0,112,113
 1114 1302 1114 1302 1080 1319 c 0,114,115
 1048 1336 1048 1336 1004 1344 c 128,-1,116
 960 1352 960 1352 914 1356 c 0,117,118
 878 1359 878 1359 843 1359 c 0,119,120
 833 1359 833 1359 823 1359 c 0,121,122
 778 1358 778 1358 741 1355.5 c 128,-1,123
 704 1353 704 1353 680 1350.5 c 128,-1,124
 656 1348 656 1348 651 1348 c 2,125,-1
 580 1348 l 1,90,91
EndSplineSet
Validated: 1
EndChar

StartChar: C
Encoding: 67 67 38
Width: 1430
GlyphClass: 2
Flags: W
LayerCount: 2
Fore
SplineSet
57 752 m 0,0,1
 57 918 57 918 101 1057 c 128,-1,2
 145 1196 145 1196 232 1296.5 c 128,-1,3
 319 1397 319 1397 449 1453 c 128,-1,4
 579 1509 579 1509 751 1509 c 0,5,6
 766 1509 766 1509 798 1507.5 c 128,-1,7
 830 1506 830 1506 872.5 1502.5 c 128,-1,8
 915 1499 915 1499 964.5 1493 c 128,-1,9
 1014 1487 1014 1487 1063.5 1477.5 c 128,-1,10
 1113 1468 1113 1468 1158.5 1455 c 128,-1,11
 1204 1442 1204 1442 1239.5 1424 c 128,-1,12
 1275 1406 1275 1406 1296 1383.5 c 128,-1,13
 1317 1361 1317 1361 1317 1332 c 0,14,15
 1317 1295 1317 1295 1293 1274.5 c 128,-1,16
 1269 1254 1269 1254 1234 1254 c 2,17,-1
 1208 1254 l 1,18,19
 1094 1293 1094 1293 981.5 1317 c 128,-1,20
 869 1341 869 1341 751 1341 c 0,21,22
 617 1341 617 1341 518 1299.5 c 128,-1,23
 419 1258 419 1258 354 1182 c 128,-1,24
 289 1106 289 1106 257 999.5 c 128,-1,25
 225 893 225 893 225 763 c 0,26,27
 225 688 225 688 234 613 c 128,-1,28
 243 538 243 538 263.5 469.5 c 128,-1,29
 284 401 284 401 318 341.5 c 128,-1,30
 352 282 352 282 402 238.5 c 128,-1,31
 452 195 452 195 520 170 c 128,-1,32
 588 145 588 145 676 145 c 0,33,34
 791 145 791 145 906 177 c 128,-1,35
 1021 209 1021 209 1121 266 c 0,36,37
 1135 274 1135 274 1152.5 287.5 c 128,-1,38
 1170 301 1170 301 1188.5 314.5 c 128,-1,39
 1207 328 1207 328 1227 337.5 c 128,-1,40
 1247 347 1247 347 1265 347 c 0,41,42
 1303 347 1303 347 1324.5 323 c 128,-1,43
 1346 299 1346 299 1346 264 c 0,44,45
 1346 219 1346 219 1306.5 180.5 c 128,-1,46
 1267 142 1267 142 1204.5 110 c 128,-1,47
 1142 78 1142 78 1065.5 53.5 c 128,-1,48
 989 29 989 29 914.5 12 c 128,-1,49
 840 -5 840 -5 777 -13.5 c 128,-1,50
 714 -22 714 -22 679 -22 c 0,51,52
 568 -22 568 -22 478.5 7.5 c 128,-1,53
 389 37 389 37 320 90 c 128,-1,54
 251 143 251 143 201 215.5 c 128,-1,55
 151 288 151 288 119 374 c 128,-1,56
 87 460 87 460 72 556 c 128,-1,57
 57 652 57 652 57 752 c 0,0,1
EndSplineSet
Validated: 1
EndChar

StartChar: D
Encoding: 68 68 39
Width: 1412
GlyphClass: 2
Flags: W
LayerCount: 2
Fore
SplineSet
128 110 m 1,0,1
 198 248 198 248 244 400.5 c 128,-1,2
 290 553 290 553 317.5 711.5 c 128,-1,3
 345 870 345 870 356 1030 c 128,-1,4
 367 1190 367 1190 367 1343 c 1,5,6
 331 1343 331 1343 298 1335 c 128,-1,7
 265 1327 265 1327 232 1317 c 128,-1,8
 199 1307 199 1307 166 1299 c 128,-1,9
 133 1291 133 1291 99 1291 c 0,10,11
 61 1291 61 1291 40 1310.5 c 128,-1,12
 19 1330 19 1330 19 1369 c 0,13,14
 19 1409 19 1409 45.5 1435.5 c 128,-1,15
 72 1462 72 1462 114.5 1477.5 c 128,-1,16
 157 1493 157 1493 209.5 1500.5 c 128,-1,17
 262 1508 262 1508 314 1510 c 0,18,19
 355 1512 355 1512 392 1512 c 0,20,21
 400 1512 400 1512 410 1512 c 0,22,23
 456 1512 456 1512 484 1511 c 0,24,25
 590 1511 590 1511 697.5 1487 c 128,-1,26
 805 1463 805 1463 904.5 1416.5 c 128,-1,27
 1004 1370 1004 1370 1091 1303.5 c 128,-1,28
 1178 1237 1178 1237 1242.5 1151.5 c 128,-1,29
 1307 1066 1307 1066 1344 963.5 c 128,-1,30
 1381 861 1381 861 1381 744 c 0,31,32
 1381 604 1381 604 1335.5 494.5 c 128,-1,33
 1290 385 1290 385 1210.5 302.5 c 128,-1,34
 1131 220 1131 220 1023 163.5 c 128,-1,35
 915 107 915 107 790 72 c 0,36,37
 664 37 664 37 528 23 c 0,38,39
 416 11 416 11 303 11 c 0,40,41
 279 11 279 11 255 12 c 1,42,43
 241 7 241 7 231.5 6.5 c 128,-1,44
 222 6 222 6 209 6 c 0,45,46
 172 6 172 6 150 28 c 128,-1,47
 128 50 128 50 128 87 c 2,48,-1
 128 110 l 1,0,1
479 655 m 1,49,50
 457 536 457 536 425.5 420.5 c 128,-1,51
 394 305 394 305 352 190 c 1,52,-1
 370 190 l 1,53,54
 408 188 408 188 446 188 c 0,55,56
 514 188 514 188 582 195 c 0,57,58
 686 206 686 206 780.5 235 c 128,-1,59
 875 264 875 264 954 310.5 c 128,-1,60
 1033 357 1033 357 1091 421 c 128,-1,61
 1149 485 1149 485 1181.5 566.5 c 128,-1,62
 1214 648 1214 648 1214 747 c 0,63,64
 1214 827 1214 827 1187 902 c 128,-1,65
 1160 977 1160 977 1113 1043.5 c 128,-1,66
 1066 1110 1066 1110 1003 1165 c 128,-1,67
 940 1220 940 1220 868.5 1259.5 c 128,-1,68
 797 1299 797 1299 720 1321 c 128,-1,69
 643 1343 643 1343 568 1343 c 2,70,-1
 548 1343 l 1,71,-1
 542 1337 l 1,72,73
 542 1259 542 1259 536.5 1170.5 c 128,-1,74
 531 1082 531 1082 522 992.5 c 128,-1,75
 513 903 513 903 502 816.5 c 128,-1,76
 491 730 491 730 479 655 c 1,49,50
EndSplineSet
Validated: 1
EndChar

StartChar: E
Encoding: 69 69 40
Width: 1235
GlyphClass: 2
Flags: W
LayerCount: 2
Fore
SplineSet
71 123 m 1,0,1
 109 195 109 195 132.5 271 c 128,-1,2
 156 347 156 347 172 425 c 128,-1,3
 188 503 188 503 200 582.5 c 128,-1,4
 212 662 212 662 227 742 c 1,5,6
 238 824 238 824 248.5 911.5 c 128,-1,7
 259 999 259 999 266.5 1087.5 c 128,-1,8
 274 1176 274 1176 278.5 1264 c 128,-1,9
 283 1352 283 1352 283 1435 c 1,10,11
 293 1471 293 1471 317 1484 c 128,-1,12
 341 1497 341 1497 374 1497 c 0,13,14
 452 1497 452 1497 529 1494 c 128,-1,15
 606 1491 606 1491 684 1491 c 0,16,17
 772 1491 772 1491 859.5 1496 c 128,-1,18
 947 1501 947 1501 1035 1501 c 0,19,20
 1068 1501 1068 1501 1093 1484.5 c 128,-1,21
 1118 1468 1118 1468 1118 1433 c 0,22,23
 1118 1392 1118 1392 1091 1368 c 128,-1,24
 1064 1344 1064 1344 1022 1332 c 0,25,26
 980 1318 980 1318 928 1316 c 0,27,28
 907 1315 907 1315 885 1315 c 0,29,-1
 864 1315 l 0,30,31
 844 1316 844 1316 826 1316 c 0,32,33
 776 1318 776 1318 735 1321 c 128,-1,34
 694 1324 694 1324 672 1324 c 0,35,36
 618 1324 618 1324 562.5 1327 c 128,-1,37
 507 1330 507 1330 452 1330 c 2,38,-1
 444 1330 l 1,39,-1
 411 864 l 1,40,-1
 411 847 l 1,41,42
 454 847 454 847 496 850.5 c 128,-1,43
 538 854 538 854 580.5 858.5 c 128,-1,44
 623 863 623 863 665 866.5 c 128,-1,45
 707 870 707 870 750 870 c 0,46,47
 770 870 770 870 788 866 c 128,-1,48
 806 862 806 862 820 852.5 c 128,-1,49
 834 843 834 843 842.5 827.5 c 128,-1,50
 851 812 851 812 851 789 c 0,51,52
 851 751 851 751 824 730.5 c 128,-1,53
 797 710 797 710 762 708 c 2,54,-1
 405 680 l 1,55,-1
 383 675 l 1,56,57
 371 613 371 613 362.5 550 c 128,-1,58
 354 487 354 487 343 424 c 128,-1,59
 332 361 332 361 317 299 c 128,-1,60
 302 237 302 237 278 179 c 1,61,-1
 278 174 l 1,62,-1
 305 168 l 2,63,64
 309 168 309 168 325.5 167.5 c 128,-1,65
 342 167 342 167 362 166.5 c 128,-1,66
 382 166 382 166 401 165.5 c 128,-1,67
 420 165 420 165 431 165 c 0,68,69
 501 165 501 165 565.5 169 c 128,-1,70
 630 173 630 173 693.5 177.5 c 128,-1,71
 757 182 757 182 822 186 c 128,-1,72
 887 190 887 190 957 190 c 0,73,74
 995 190 995 190 1015 166 c 128,-1,75
 1035 142 1035 142 1035 107 c 0,76,77
 1035 75 1035 75 1015.5 53 c 128,-1,78
 996 31 996 31 962 29 c 2,79,-1
 667 7 l 1,80,-1
 183 7 l 2,81,82
 161 7 161 7 140.5 13 c 128,-1,83
 120 19 120 19 104.5 31 c 128,-1,84
 89 43 89 43 80 60.5 c 128,-1,85
 71 78 71 78 71 101 c 2,86,-1
 71 123 l 1,0,1
EndSplineSet
Validated: 1
EndChar

StartChar: F
Encoding: 70 70 41
Width: 1191
GlyphClass: 2
Flags: W
LayerCount: 2
Fore
SplineSet
57 103 m 1,0,1
 95 175 95 175 113 251.5 c 128,-1,2
 131 328 131 328 141 406.5 c 128,-1,3
 151 485 151 485 157.5 565 c 128,-1,4
 164 645 164 645 179 725 c 1,5,6
 190 808 190 808 200.5 898 c 128,-1,7
 211 988 211 988 218.5 1080 c 128,-1,8
 226 1172 226 1172 230.5 1262.5 c 128,-1,9
 235 1353 235 1353 235 1437 c 1,10,11
 246 1473 246 1473 269.5 1486 c 128,-1,12
 293 1499 293 1499 327 1499 c 0,13,14
 366 1499 366 1499 410 1498 c 128,-1,15
 454 1497 454 1497 499 1496 c 128,-1,16
 544 1495 544 1495 588 1494 c 128,-1,17
 632 1493 632 1493 671 1493 c 0,18,19
 715 1493 715 1493 771 1495.5 c 128,-1,20
 827 1498 827 1498 885 1501.5 c 128,-1,21
 943 1505 943 1505 999 1507.5 c 128,-1,22
 1055 1510 1055 1510 1099 1510 c 0,23,24
 1133 1510 1133 1510 1158 1490 c 128,-1,25
 1183 1470 1183 1470 1183 1435 c 0,26,27
 1183 1404 1183 1404 1164 1382.5 c 128,-1,28
 1145 1361 1145 1361 1113.5 1347.5 c 128,-1,29
 1082 1334 1082 1334 1040.5 1327 c 128,-1,30
 999 1320 999 1320 954 1318 c 0,31,32
 922 1316 922 1316 889 1316 c 0,33,34
 876 1316 876 1316 864 1316 c 0,35,36
 818 1317 818 1317 778 1319 c 128,-1,37
 738 1321 738 1321 707 1323 c 128,-1,38
 676 1325 676 1325 660 1325 c 0,39,40
 633 1325 633 1325 600 1326 c 128,-1,41
 567 1327 567 1327 532.5 1328 c 128,-1,42
 498 1329 498 1329 465 1330 c 128,-1,43
 432 1331 432 1331 405 1331 c 2,44,-1
 397 1331 l 1,45,-1
 363 848 l 1,46,-1
 445 848 l 2,47,48
 472 848 472 848 504.5 849.5 c 128,-1,49
 537 851 537 851 570 853.5 c 128,-1,50
 603 856 603 856 635 857.5 c 128,-1,51
 667 859 667 859 693 859 c 0,52,53
 733 859 733 859 755 839.5 c 128,-1,54
 777 820 777 820 777 778 c 0,55,56
 777 744 777 744 757 726 c 128,-1,57
 737 708 737 708 708.5 699 c 128,-1,58
 680 690 680 690 648 688.5 c 128,-1,59
 616 687 616 687 592 686 c 0,60,61
 584 686 584 686 564.5 685.5 c 128,-1,62
 545 685 545 685 520 684.5 c 128,-1,63
 495 684 495 684 467 683 c 128,-1,64
 439 682 439 682 414 681.5 c 128,-1,65
 389 681 389 681 369 680.5 c 128,-1,66
 349 680 349 680 341 680 c 1,67,68
 339 668 339 668 333.5 643.5 c 128,-1,69
 328 619 328 619 321 588.5 c 128,-1,70
 314 558 314 558 305.5 524.5 c 128,-1,71
 297 491 297 491 290 461 c 128,-1,72
 283 431 283 431 277 407 c 128,-1,73
 271 383 271 383 268 372 c 0,74,75
 263 353 263 353 260.5 318 c 128,-1,76
 258 283 258 283 253.5 242 c 128,-1,77
 249 201 249 201 242 158.5 c 128,-1,78
 235 116 235 116 222 81 c 128,-1,79
 209 46 209 46 188 24 c 128,-1,80
 167 2 167 2 136 2 c 0,81,82
 100 2 100 2 78.5 22.5 c 128,-1,83
 57 43 57 43 57 81 c 2,84,-1
 57 103 l 1,0,1
EndSplineSet
Validated: 1
EndChar

StartChar: G
Encoding: 71 71 42
Width: 1329
GlyphClass: 2
Flags: W
LayerCount: 2
Fore
SplineSet
47 820 m 0,0,1
 47 988 47 988 98.5 1113 c 128,-1,2
 150 1238 150 1238 240 1322.5 c 128,-1,3
 330 1407 330 1407 453 1453.5 c 128,-1,4
 576 1500 576 1500 719 1512 c 0,5,6
 733 1514 733 1514 753 1514 c 0,7,8
 774 1514 774 1514 798 1512 c 0,9,10
 848 1509 848 1509 905 1500 c 128,-1,11
 962 1491 962 1491 1021.5 1475 c 128,-1,12
 1081 1459 1081 1459 1129 1435 c 128,-1,13
 1177 1411 1177 1411 1207.5 1377.5 c 128,-1,14
 1238 1344 1238 1344 1238 1301 c 0,15,16
 1238 1263 1238 1263 1215.5 1242 c 128,-1,17
 1193 1221 1193 1221 1161 1221 c 2,18,-1
 1136 1221 l 1,19,20
 1071 1246 1071 1246 1022.5 1270 c 128,-1,21
 974 1294 974 1294 928 1312 c 0,22,23
 882 1330 882 1330 833 1338 c 0,24,25
 809 1342 809 1342 780 1342 c 0,26,27
 774 1342 774 1342 768 1342 c 0,28,29
 743 1342 743 1342 714 1340 c 0,30,31
 614 1331 614 1331 521.5 1297 c 128,-1,32
 429 1263 429 1263 357.5 1200 c 128,-1,33
 286 1137 286 1137 243.5 1043 c 128,-1,34
 201 949 201 949 201 820 c 0,35,36
 201 729 201 729 204.5 643.5 c 128,-1,37
 208 558 208 558 220.5 483 c 128,-1,38
 233 408 233 408 257 346 c 128,-1,39
 281 284 281 284 322.5 239.5 c 128,-1,40
 364 195 364 195 425 170.5 c 128,-1,41
 486 146 486 146 572 146 c 0,42,43
 589 146 589 146 634.5 153.5 c 128,-1,44
 680 161 680 161 738.5 175 c 128,-1,45
 797 189 797 189 861 208 c 128,-1,46
 925 227 925 227 978 249.5 c 128,-1,47
 1031 272 1031 272 1065.5 297 c 128,-1,48
 1100 322 1100 322 1100 348 c 2,49,-1
 1100 645 l 1,50,51
 1088 646 1088 646 1057 649.5 c 128,-1,52
 1026 653 1026 653 992 657 c 128,-1,53
 958 661 958 661 927.5 664.5 c 128,-1,54
 897 668 897 668 885 669 c 0,55,56
 863 672 863 672 834.5 677.5 c 128,-1,57
 806 683 806 683 780.5 694 c 128,-1,58
 755 705 755 705 737.5 725.5 c 128,-1,59
 720 746 720 746 720 779 c 0,60,61
 720 795 720 795 725.5 810.5 c 128,-1,62
 731 826 731 826 741 838 c 128,-1,63
 751 850 751 850 764.5 857.5 c 128,-1,64
 778 865 778 865 794 865 c 2,65,-1
 800 865 l 1,66,67
 806 864 806 864 822 860.5 c 128,-1,68
 838 857 838 857 856 853 c 128,-1,69
 874 849 874 849 890 845.5 c 128,-1,70
 906 842 906 842 912 841 c 2,71,-1
 1190 817 l 2,72,73
 1198 816 1198 816 1209 811 c 128,-1,74
 1220 806 1220 806 1230 798 c 128,-1,75
 1240 790 1240 790 1247 779.5 c 128,-1,76
 1254 769 1254 769 1254 758 c 2,77,-1
 1254 98 l 2,78,79
 1254 85 1254 85 1246 74 c 128,-1,80
 1238 63 1238 63 1227 55.5 c 128,-1,81
 1216 48 1216 48 1203.5 43.5 c 128,-1,82
 1191 39 1191 39 1182 39 c 0,83,84
 1165 39 1165 39 1152 45.5 c 128,-1,85
 1139 52 1139 52 1129.5 62.5 c 128,-1,86
 1120 73 1120 73 1113 87 c 128,-1,87
 1106 101 1106 101 1100 116 c 1,88,89
 1049 83 1049 83 981.5 56.5 c 128,-1,90
 914 30 914 30 842 11.5 c 128,-1,91
 770 -7 770 -7 699 -16.5 c 128,-1,92
 628 -26 628 -26 569 -26 c 0,93,94
 460 -26 460 -26 379 5 c 128,-1,95
 298 36 298 36 240 92 c 128,-1,96
 182 148 182 148 144.5 226 c 128,-1,97
 107 304 107 304 85.5 398 c 128,-1,98
 64 492 64 492 55.5 599 c 128,-1,99
 47 706 47 706 47 820 c 0,0,1
EndSplineSet
Validated: 1
EndChar

StartChar: H
Encoding: 72 72 43
Width: 1325
GlyphClass: 2
Flags: W
LayerCount: 2
Fore
SplineSet
112 77 m 0,0,1
 112 105 112 105 119 132 c 128,-1,2
 126 159 126 159 136 185 c 128,-1,3
 146 211 146 211 155.5 237.5 c 128,-1,4
 165 264 165 264 171 292 c 0,5,6
 191 391 191 391 200.5 475 c 128,-1,7
 210 559 210 559 214.5 637 c 128,-1,8
 219 715 219 715 221 791 c 128,-1,9
 223 867 223 867 228 949 c 2,10,-1
 256 1436 l 2,11,12
 257 1450 257 1450 265 1460.5 c 128,-1,13
 273 1471 273 1471 285 1478 c 128,-1,14
 297 1485 297 1485 310 1488.5 c 128,-1,15
 323 1492 323 1492 335 1492 c 0,16,17
 363 1492 363 1492 384.5 1478 c 128,-1,18
 406 1464 406 1464 415 1436 c 1,19,-1
 415 1334 l 2,20,21
 415 1270 415 1270 413.5 1218.5 c 128,-1,22
 412 1167 412 1167 409 1115.5 c 128,-1,23
 406 1064 406 1064 400.5 1005.5 c 128,-1,24
 395 947 395 947 386 869 c 1,25,-1
 386 841 l 1,26,27
 459 841 459 841 538 843 c 128,-1,28
 617 845 617 845 697 847.5 c 128,-1,29
 777 850 777 850 856 852 c 0,30,31
 880 852 880 852 903 852 c 128,-1,32
 926 852 926 852 949 852 c 0,33,34
 979 852 979 852 1008 852 c 1,35,-1
 1014 869 l 2,36,37
 1015 871 1015 871 1017 890 c 128,-1,38
 1019 909 1019 909 1021.5 938 c 128,-1,39
 1024 967 1024 967 1027 1002.5 c 128,-1,40
 1030 1038 1030 1038 1033 1074 c 128,-1,41
 1036 1110 1036 1110 1038.5 1142.5 c 128,-1,42
 1041 1175 1041 1175 1042 1198 c 0,43,44
 1043 1210 1043 1210 1044 1239.5 c 128,-1,45
 1045 1269 1045 1269 1046 1302.5 c 128,-1,46
 1047 1336 1047 1336 1047.5 1365.5 c 128,-1,47
 1048 1395 1048 1395 1048 1407 c 0,48,49
 1050 1442 1050 1442 1071 1467 c 128,-1,50
 1092 1492 1092 1492 1130 1492 c 0,51,52
 1162 1492 1162 1492 1183 1474 c 128,-1,53
 1204 1456 1204 1456 1212 1424 c 1,54,-1
 1212 1351 l 2,55,56
 1212 1331 1212 1331 1210 1281.5 c 128,-1,57
 1208 1232 1208 1232 1203.5 1161 c 128,-1,58
 1199 1090 1199 1090 1192.5 1003 c 128,-1,59
 1186 916 1186 916 1177 821 c 128,-1,60
 1168 726 1168 726 1156.5 629 c 128,-1,61
 1145 532 1145 532 1130.5 441 c 128,-1,62
 1116 350 1116 350 1098.5 270.5 c 128,-1,63
 1081 191 1081 191 1060.5 131.5 c 128,-1,64
 1040 72 1040 72 1016.5 37.5 c 128,-1,65
 993 3 993 3 966 3 c 0,66,67
 932 3 932 3 908 23 c 128,-1,68
 884 43 884 43 884 79 c 0,69,70
 884 103 884 103 890 149.5 c 128,-1,71
 896 196 896 196 905.5 254 c 128,-1,72
 915 312 915 312 926.5 376.5 c 128,-1,73
 938 441 938 441 949.5 500.5 c 128,-1,74
 961 560 961 560 970.5 609.5 c 128,-1,75
 980 659 980 659 986 688 c 1,76,-1
 983 688 l 1,77,-1
 980 688 l 1,78,79
 958 687 958 687 910 686 c 128,-1,80
 862 685 862 685 801 683 c 128,-1,81
 740 681 740 681 673 679.5 c 128,-1,82
 606 678 606 678 545 676 c 128,-1,83
 484 674 484 674 436 673 c 128,-1,84
 388 672 388 672 366 671 c 1,85,86
 362 648 362 648 360.5 607.5 c 128,-1,87
 359 567 359 567 357 515.5 c 128,-1,88
 355 464 355 464 351 406.5 c 128,-1,89
 347 349 347 349 339.5 292 c 128,-1,90
 332 235 332 235 319.5 182.5 c 128,-1,91
 307 130 307 130 286.5 90 c 128,-1,92
 266 50 266 50 237 26.5 c 128,-1,93
 208 3 208 3 168 3 c 0,94,95
 132 3 132 3 122 22.5 c 128,-1,96
 112 42 112 42 112 77 c 0,0,1
EndSplineSet
Validated: 1
EndChar

StartChar: I
Encoding: 73 73 44
Width: 857
GlyphClass: 2
Flags: W
LayerCount: 2
Fore
SplineSet
124 5 m 0,0,1
 109 7 109 7 97 18 c 128,-1,2
 85 29 85 29 76 44 c 128,-1,3
 67 59 67 59 62 75.5 c 128,-1,4
 57 92 57 92 57 106 c 0,5,6
 57 116 57 116 61 129.5 c 128,-1,7
 65 143 65 143 72.5 154 c 128,-1,8
 80 165 80 165 90 173 c 128,-1,9
 100 181 100 181 113 181 c 2,10,-1
 282 181 l 1,11,-1
 341 509 l 1,12,-1
 396 1320 l 1,13,-1
 246 1331 l 2,14,15
 231 1332 231 1332 220 1340 c 128,-1,16
 209 1348 209 1348 201 1359.5 c 128,-1,17
 193 1371 193 1371 189 1385 c 128,-1,18
 185 1399 185 1399 185 1411 c 0,19,20
 185 1421 185 1421 189 1434.5 c 128,-1,21
 193 1448 193 1448 200.5 1459 c 128,-1,22
 208 1470 208 1470 218 1478 c 128,-1,23
 228 1486 228 1486 241 1486 c 2,24,-1
 291 1486 l 2,25,26
 348 1486 348 1486 412 1484 c 128,-1,27
 476 1482 476 1482 539 1479.5 c 128,-1,28
 602 1477 602 1477 660 1474.5 c 128,-1,29
 718 1472 718 1472 764 1470 c 1,30,31
 791 1461 791 1461 802.5 1441.5 c 128,-1,32
 814 1422 814 1422 814 1395 c 0,33,34
 814 1383 814 1383 810.5 1371 c 128,-1,35
 807 1359 807 1359 799.5 1348.5 c 128,-1,36
 792 1338 792 1338 781 1331.5 c 128,-1,37
 770 1325 770 1325 756 1325 c 2,38,-1
 564 1325 l 1,39,-1
 519 625 l 1,40,-1
 452 181 l 1,41,-1
 452 178 l 1,42,-1
 452 175 l 2,43,44
 452 173 452 173 455 170 c 0,45,46
 456 168 456 168 458 167 c 1,47,-1
 636 167 l 2,48,49
 648 167 648 167 657.5 158.5 c 128,-1,50
 667 150 667 150 673.5 137.5 c 128,-1,51
 680 125 680 125 683 111.5 c 128,-1,52
 686 98 686 98 686 89 c 0,53,54
 686 58 686 58 671.5 35.5 c 128,-1,55
 657 13 657 13 628 5 c 1,56,57
 622 5 622 5 605 3.5 c 128,-1,58
 588 2 588 2 568.5 0 c 128,-1,59
 549 -2 549 -2 532 -3.5 c 128,-1,60
 515 -5 515 -5 509 -5 c 0,61,62
 452 -6 452 -6 410 -6 c 0,63,64
 396 -6 396 -6 382 -6 c 0,65,66
 354 -6 354 -6 326 -5 c 0,67,68
 284 -4 284 -4 237 -2 c 128,-1,69
 190 0 190 0 124 5 c 0,0,1
EndSplineSet
Validated: 1
EndChar

StartChar: J
Encoding: 74 74 45
Width: 944
GlyphClass: 2
Flags: W
LayerCount: 2
Fore
SplineSet
15 321 m 4,0,1
 15 358 15 358 36.5 376.5 c 132,-1,2
 58 395 58 395 94 395 c 4,3,4
 127 395 127 395 152 377 c 132,-1,5
 177 359 177 359 198.5 332 c 132,-1,6
 220 305 220 305 240 273 c 132,-1,7
 260 241 260 241 282.5 214 c 132,-1,8
 305 187 305 187 332 169 c 132,-1,9
 359 151 359 151 395 151 c 4,10,11
 449 151 449 151 484.5 181.5 c 132,-1,12
 520 212 520 212 541 260 c 132,-1,13
 562 308 562 308 572.5 367 c 132,-1,14
 583 426 583 426 586 483 c 4,15,16
 589 532 589 532 589 575 c 0,17,18
 588 582 588 582 588 590 c 4,19,20
 588 640 588 640 588 667 c 6,21,-1
 588 1308 l 6,22,23
 588 1315 588 1315 564 1315 c 4,24,25
 542 1315 542 1315 506 1314 c 4,26,27
 488 1314 488 1314 469 1314 c 128,-1,28
 450 1314 450 1314 429 1314 c 4,29,30
 388 1315 388 1315 352.5 1324 c 132,-1,31
 317 1333 317 1333 293.5 1353 c 132,-1,32
 270 1373 270 1373 270 1411 c 260,33,34
 270 1449 270 1449 294.5 1469.5 c 132,-1,35
 319 1490 319 1490 356 1490 c 4,36,37
 477 1490 477 1490 602.5 1484 c 132,-1,38
 728 1478 728 1478 850 1473 c 5,39,40
 912 1456 912 1456 912 1391 c 4,41,42
 912 1380 912 1380 909 1367 c 132,-1,43
 906 1354 906 1354 900 1342.5 c 132,-1,44
 894 1331 894 1331 884.5 1323 c 132,-1,45
 875 1315 875 1315 861 1314 c 6,46,-1
 759 1303 l 5,47,-1
 748 492 l 6,48,49
 747 437 747 437 739.5 378.5 c 132,-1,50
 732 320 732 320 715.5 264 c 132,-1,51
 699 208 699 208 672 157.5 c 132,-1,52
 645 107 645 107 606.5 69 c 132,-1,53
 568 31 568 31 516.5 9 c 132,-1,54
 465 -13 465 -13 398 -13 c 4,55,56
 361 -13 361 -13 318 1 c 132,-1,57
 275 15 275 15 232.5 39.5 c 132,-1,58
 190 64 190 64 151 96.5 c 132,-1,59
 112 129 112 129 81.5 166.5 c 132,-1,60
 51 204 51 204 33 243.5 c 132,-1,61
 15 283 15 283 15 321 c 4,0,1
EndSplineSet
Validated: 1
EndChar

StartChar: K
Encoding: 75 75 46
Width: 1291
GlyphClass: 2
Flags: W
LayerCount: 2
Fore
SplineSet
382 701 m 1,0,1
 380 689 380 689 376.5 664.5 c 128,-1,2
 373 640 373 640 368 609 c 128,-1,3
 363 578 363 578 357 544 c 128,-1,4
 351 510 351 510 346 479.5 c 128,-1,5
 341 449 341 449 336.5 424.5 c 128,-1,6
 332 400 332 400 330 389 c 0,7,8
 326 372 326 372 321.5 337 c 128,-1,9
 317 302 317 302 309.5 260 c 128,-1,10
 302 218 302 218 290.5 173 c 128,-1,11
 279 128 279 128 261.5 91.5 c 128,-1,12
 244 55 244 55 219 31.5 c 128,-1,13
 194 8 194 8 160 8 c 0,14,15
 122 8 122 8 101 32.5 c 128,-1,16
 80 57 80 57 80 93 c 2,17,-1
 80 110 l 1,18,-1
 131 275 l 1,19,-1
 200 611 l 2,20,21
 201 619 201 619 204.5 648 c 128,-1,22
 208 677 208 677 212 718.5 c 128,-1,23
 216 760 216 760 221 808.5 c 128,-1,24
 226 857 226 857 230.5 904.5 c 128,-1,25
 235 952 235 952 239 992.5 c 128,-1,26
 243 1033 243 1033 245 1059 c 0,27,28
 246 1073 246 1073 247 1101 c 128,-1,29
 248 1129 248 1129 249 1164 c 128,-1,30
 250 1199 250 1199 251.5 1238.5 c 128,-1,31
 253 1278 253 1278 254 1313 c 128,-1,32
 255 1348 255 1348 255.5 1376 c 128,-1,33
 256 1404 256 1404 256 1418 c 1,34,35
 263 1447 263 1447 282 1466.5 c 128,-1,36
 301 1486 301 1486 333 1486 c 0,37,38
 358 1486 358 1486 375 1477.5 c 128,-1,39
 392 1469 392 1469 402.5 1454 c 128,-1,40
 413 1439 413 1439 417 1419.5 c 128,-1,41
 421 1400 421 1400 421 1378 c 0,42,43
 421 1335 421 1335 419.5 1280 c 128,-1,44
 418 1225 418 1225 416.5 1172.5 c 128,-1,45
 415 1120 415 1120 413 1076.5 c 128,-1,46
 411 1033 411 1033 410 1014 c 1,47,48
 562 1141 562 1141 724.5 1250.5 c 128,-1,49
 887 1360 887 1360 1058 1457 c 1,50,51
 1073 1470 1073 1470 1085.5 1472 c 128,-1,52
 1098 1474 1098 1474 1118 1474 c 0,53,54
 1154 1474 1154 1474 1177 1452.5 c 128,-1,55
 1200 1431 1200 1431 1200 1395 c 0,56,57
 1200 1380 1200 1380 1193.5 1360.5 c 128,-1,58
 1187 1341 1187 1341 1172 1332 c 2,59,-1
 768 1077 l 1,60,-1
 501 872 l 1,61,62
 490 866 490 866 490 858 c 2,63,-1
 490 855 l 1,64,65
 545 814 545 814 610.5 762.5 c 128,-1,66
 676 711 676 711 741.5 651 c 128,-1,67
 807 591 807 591 868.5 524 c 128,-1,68
 930 457 930 457 977 384.5 c 128,-1,69
 1024 312 1024 312 1052.5 235 c 128,-1,70
 1081 158 1081 158 1081 79 c 0,71,72
 1081 43 1081 43 1055.5 22.5 c 128,-1,73
 1030 2 1030 2 998 2 c 0,74,75
 987 2 987 2 966 28.5 c 128,-1,76
 945 55 945 55 915 99 c 128,-1,77
 885 143 885 143 848 200.5 c 128,-1,78
 811 258 811 258 768.5 320.5 c 128,-1,79
 726 383 726 383 679 445.5 c 128,-1,80
 632 508 632 508 583.5 562 c 128,-1,81
 535 616 535 616 485.5 657 c 128,-1,82
 436 698 436 698 387 718 c 1,83,-1
 382 701 l 1,0,1
EndSplineSet
Validated: 1
EndChar

StartChar: L
Encoding: 76 76 47
Width: 1094
GlyphClass: 2
Flags: W
LayerCount: 2
Fore
SplineSet
39 81 m 0,0,1
 39 112 39 112 48 150 c 128,-1,2
 57 188 57 188 69 226 c 128,-1,3
 81 264 81 264 94 299.5 c 128,-1,4
 107 335 107 335 115 363 c 0,5,6
 135 427 135 427 155 505 c 128,-1,7
 175 583 175 583 191.5 663 c 128,-1,8
 208 743 208 743 219.5 820 c 128,-1,9
 231 897 231 897 234 960 c 2,10,-1
 256 1406 l 2,11,12
 257 1422 257 1422 263 1437 c 128,-1,13
 269 1452 269 1452 279.5 1464 c 128,-1,14
 290 1476 290 1476 304 1483 c 128,-1,15
 318 1490 318 1490 335 1490 c 0,16,17
 348 1490 348 1490 362.5 1485 c 128,-1,18
 377 1480 377 1480 390 1471 c 128,-1,19
 403 1462 403 1462 411.5 1450 c 128,-1,20
 420 1438 420 1438 420 1423 c 2,21,-1
 420 1270 l 1,22,-1
 386 836 l 2,23,24
 380 760 380 760 366.5 676 c 128,-1,25
 353 592 353 592 334 507.5 c 128,-1,26
 315 423 315 423 291 341 c 128,-1,27
 267 259 267 259 239 186 c 1,28,-1
 245 186 l 1,29,30
 294 194 294 194 342 198 c 0,31,32
 388 202 388 202 436 202 c 0,33,34
 452 202 452 202 468 202 c 0,35,36
 500 202 500 202 531 201 c 0,37,38
 578 200 578 200 628 200 c 0,39,40
 653 200 653 200 697 201 c 0,41,42
 715 201 715 201 733 201 c 0,43,44
 761 200 761 200 792 200 c 0,45,46
 843 198 843 198 896.5 193.5 c 128,-1,47
 950 189 950 189 993 176.5 c 128,-1,48
 1036 164 1036 164 1063.5 143 c 128,-1,49
 1091 122 1091 122 1091 89 c 0,50,51
 1091 53 1091 53 1071.5 39.5 c 128,-1,52
 1052 26 1052 26 1018 26 c 0,53,54
 922 26 922 26 820 25.5 c 128,-1,55
 718 25 718 25 614 25 c 0,56,57
 546 25 546 25 484 26 c 0,58,59
 442 27 442 27 402 27 c 0,60,61
 380 26 380 26 360 26 c 0,62,63
 298 26 298 26 236.5 23 c 128,-1,64
 175 20 175 20 109 13 c 1,65,-1
 93 13 l 2,66,67
 58 13 58 13 48.5 29 c 128,-1,68
 39 45 39 45 39 81 c 0,0,1
EndSplineSet
Validated: 1
EndChar

StartChar: M
Encoding: 77 77 48
Width: 1726
GlyphClass: 2
Flags: W
LayerCount: 2
Fore
SplineSet
1277 421 m 2,0,1
 1278 427 1278 427 1279.5 461 c 128,-1,2
 1281 495 1281 495 1283.5 546 c 128,-1,3
 1286 597 1286 597 1288.5 659 c 128,-1,4
 1291 721 1291 721 1293.5 782.5 c 128,-1,5
 1296 844 1296 844 1297.5 899 c 128,-1,6
 1299 954 1299 954 1300 991 c 1,7,-1
 1300 1110 l 1,8,-1
 1300 1230 l 1,9,-1
 928 793 l 2,10,11
 906 767 906 767 886.5 751 c 128,-1,12
 867 735 867 735 832 735 c 0,13,14
 816 735 816 735 797.5 742 c 128,-1,15
 779 749 779 749 771 764 c 0,16,17
 765 774 765 774 752.5 795 c 128,-1,18
 740 816 740 816 724.5 842 c 128,-1,19
 709 868 709 868 692 896.5 c 128,-1,20
 675 925 675 925 659.5 950.5 c 128,-1,21
 644 976 644 976 632 996 c 128,-1,22
 620 1016 620 1016 614 1026 c 0,23,24
 605 1040 605 1040 588 1065 c 128,-1,25
 571 1090 571 1090 553 1115 c 128,-1,26
 535 1140 535 1140 520.5 1160 c 128,-1,27
 506 1180 506 1180 503 1183 c 2,28,-1
 489 1198 l 1,29,-1
 433 607 l 2,30,31
 432 603 432 603 429 585.5 c 128,-1,32
 426 568 426 568 421.5 543 c 128,-1,33
 417 518 417 518 411.5 488 c 128,-1,34
 406 458 406 458 400.5 429.5 c 128,-1,35
 395 401 395 401 390 375.5 c 128,-1,36
 385 350 385 350 381 334 c 0,37,38
 377 316 377 316 372 286.5 c 128,-1,39
 367 257 367 257 359.5 223 c 128,-1,40
 352 189 352 189 340.5 154 c 128,-1,41
 329 119 329 119 313 90.5 c 128,-1,42
 297 62 297 62 275 44 c 128,-1,43
 253 26 253 26 224 26 c 0,44,45
 185 26 185 26 164 47 c 128,-1,46
 143 68 143 68 143 107 c 2,47,-1
 143 130 l 1,48,49
 160 176 160 176 175.5 227 c 128,-1,50
 191 278 191 278 204 330.5 c 128,-1,51
 217 383 217 383 227.5 434.5 c 128,-1,52
 238 486 238 486 247 532 c 1,53,54
 287 764 287 764 306 996 c 0,55,56
 323 1206 323 1206 323 1421 c 0,57,58
 323 1444 323 1444 323 1466 c 1,59,60
 331 1497 331 1497 354 1516.5 c 128,-1,61
 377 1536 377 1536 410 1536 c 0,62,63
 432 1536 432 1536 449 1524 c 128,-1,64
 466 1512 466 1512 480 1495 c 1,65,-1
 776 1090 l 1,66,-1
 852 971 l 1,67,-1
 1317 1513 l 2,68,69
 1335 1533 1335 1533 1349 1540 c 128,-1,70
 1363 1547 1363 1547 1387 1547 c 0,71,72
 1401 1547 1401 1547 1416.5 1543 c 128,-1,73
 1432 1539 1432 1539 1444.5 1531.5 c 128,-1,74
 1457 1524 1457 1524 1465.5 1511.5 c 128,-1,75
 1474 1499 1474 1499 1474 1483 c 2,76,-1
 1474 1189 l 1,77,-1
 1440 311 l 2,78,79
 1439 297 1439 297 1438.5 268.5 c 128,-1,80
 1438 240 1438 240 1435.5 206 c 128,-1,81
 1433 172 1433 172 1426.5 135.5 c 128,-1,82
 1420 99 1420 99 1407 69.5 c 128,-1,83
 1394 40 1394 40 1373.5 21 c 128,-1,84
 1353 2 1353 2 1323 2 c 0,85,86
 1313 2 1313 2 1299 6 c 128,-1,87
 1285 10 1285 10 1272.5 16.5 c 128,-1,88
 1260 23 1260 23 1251 33 c 128,-1,89
 1242 43 1242 43 1242 55 c 2,90,-1
 1242 119 l 1,91,-1
 1277 421 l 2,0,1
EndSplineSet
Validated: 1
EndChar

StartChar: N
Encoding: 78 78 49
Width: 1678
GlyphClass: 2
Flags: W
LayerCount: 2
Fore
SplineSet
612 1160 m 5,0,-1
 607 1145 l 5,1,-1
 554 594 l 6,2,3
 553 589 553 589 550 571 c 4,4,5
 547 554 547 554 543 529 c 4,6,7
 538 504 538 504 533 475 c 4,8,9
 527 445 527 445 522 416 c 4,10,11
 516 387 516 387 511 362 c 4,12,13
 505 337 505 337 502 321 c 4,14,15
 498 304 498 304 493 274 c 4,16,17
 486 229 486 229 481 210 c 4,18,19
 471 167 471 167 462 141 c 4,20,21
 449 104 449 104 434 77 c 4,22,23
 418 49 418 49 396 31 c 132,-1,24
 374 13 374 13 345 13 c 4,25,26
 306 13 306 13 285 34 c 132,-1,27
 264 55 264 55 264 94 c 6,28,-1
 264 117 l 5,29,30
 286 176 286 176 297 214 c 4,31,32
 313 270 313 270 325 317 c 4,33,34
 343 390 343 390 349 421 c 4,35,36
 359 472 359 472 368 518 c 5,37,38
 407 746 407 746 427 983 c 4,39,40
 444 1188 444 1188 444 1408 c 4,41,42
 444 1408 444 1408 444 1453 c 5,43,44
 452 1483 452 1483 475 1503 c 132,-1,45
 498 1523 498 1523 531 1523 c 4,46,47
 552 1523 552 1523 565 1515 c 4,48,49
 580 1506 580 1506 593 1493 c 4,50,51
 610 1476 610 1476 617 1465 c 4,52,53
 627 1449 627 1449 636 1436 c 4,54,55
 650 1414 650 1414 673 1379 c 4,56,57
 696 1343 696 1343 719 1309 c 4,58,59
 741 1275 741 1275 758 1249 c 4,60,61
 774 1223 774 1223 775 1221 c 6,62,-1
 1072 634 l 5,63,64
 1077 621 1077 621 1091 589 c 132,-1,65
 1105 557 1105 557 1121 521 c 132,-1,66
 1137 485 1137 485 1151 453 c 132,-1,67
 1165 421 1165 421 1170 408 c 4,68,69
 1172 404 1172 404 1173 402 c 4,70,71
 1176 397 1176 397 1176 396 c 6,72,-1
 1182 419 l 5,73,-1
 1310 1453 l 6,74,75
 1315 1491 1315 1491 1337 1513 c 4,76,77
 1358 1534 1358 1534 1397 1534 c 132,-1,78
 1436 1534 1436 1534 1457 1511 c 132,-1,79
 1478 1488 1478 1488 1478 1450 c 6,80,-1
 1478 1430 l 5,81,-1
 1310 146 l 6,82,83
 1307 120 1307 120 1301 97 c 4,84,85
 1295 75 1295 75 1284 53 c 4,86,87
 1272 30 1272 30 1255 19 c 4,88,89
 1236 7 1236 7 1208 7 c 4,90,91
 1184 7 1184 7 1161 19 c 132,-1,92
 1138 31 1138 31 1130 53 c 5,93,-1
 856 692 l 5,94,-1
 612 1160 l 5,0,-1
EndSplineSet
Validated: 1
EndChar

StartChar: O
Encoding: 79 79 50
Width: 1503
GlyphClass: 2
Flags: W
LayerCount: 2
Fore
SplineSet
115 767 m 0,0,1
 115 859 115 859 140 951.5 c 128,-1,2
 165 1044 165 1044 210.5 1128.5 c 128,-1,3
 256 1213 256 1213 320 1286.5 c 128,-1,4
 384 1360 384 1360 462.5 1413.5 c 128,-1,5
 541 1467 541 1467 631.5 1498 c 128,-1,6
 722 1529 722 1529 820 1529 c 0,7,8
 917 1529 917 1529 997.5 1491.5 c 128,-1,9
 1078 1454 1078 1454 1143 1391 c 128,-1,10
 1208 1328 1208 1328 1256.5 1245 c 128,-1,11
 1305 1162 1305 1162 1337.5 1071.5 c 128,-1,12
 1370 981 1370 981 1386.5 888.5 c 128,-1,13
 1403 796 1403 796 1403 713 c 0,14,15
 1403 637 1403 637 1385 557 c 128,-1,16
 1367 477 1367 477 1333.5 400.5 c 128,-1,17
 1300 324 1300 324 1251.5 254 c 128,-1,18
 1203 184 1203 184 1141 128 c 128,-1,19
 1079 72 1079 72 1005 33.5 c 128,-1,20
 931 -5 931 -5 847 -19 c 1,21,-1
 759 -19 l 2,22,23
 589 -19 589 -19 467.5 42.5 c 128,-1,24
 346 104 346 104 267.5 210.5 c 128,-1,25
 189 317 189 317 152 460.5 c 128,-1,26
 115 604 115 604 115 767 c 0,0,1
286 761 m 0,27,28
 286 636 286 636 311 525 c 128,-1,29
 336 414 336 414 392.5 331 c 128,-1,30
 449 248 449 248 539 200 c 128,-1,31
 629 152 629 152 759 152 c 0,32,33
 829 152 829 152 891.5 176.5 c 128,-1,34
 954 201 954 201 1006.5 243 c 128,-1,35
 1059 285 1059 285 1100.5 340.5 c 128,-1,36
 1142 396 1142 396 1171.5 458 c 128,-1,37
 1201 520 1201 520 1216.5 584.5 c 128,-1,38
 1232 649 1232 649 1232 710 c 0,39,40
 1232 768 1232 768 1221 838 c 128,-1,41
 1210 908 1210 908 1188 979 c 128,-1,42
 1166 1050 1166 1050 1132 1117.5 c 128,-1,43
 1098 1185 1098 1185 1052 1237 c 128,-1,44
 1006 1289 1006 1289 947.5 1320.5 c 128,-1,45
 889 1352 889 1352 817 1352 c 0,46,47
 743 1352 743 1352 674.5 1327.5 c 128,-1,48
 606 1303 606 1303 547 1260 c 128,-1,49
 488 1217 488 1217 440 1159.5 c 128,-1,50
 392 1102 392 1102 357.5 1036 c 128,-1,51
 323 970 323 970 304.5 899.5 c 128,-1,52
 286 829 286 829 286 761 c 0,27,28
EndSplineSet
Validated: 1
EndChar

StartChar: P
Encoding: 80 80 51
Width: 1279
GlyphClass: 2
Flags: W
LayerCount: 2
Fore
SplineSet
197 116 m 1,0,-1
 265 372 l 2,1,2
 295 484 295 484 311.5 601 c 128,-1,3
 328 718 328 718 336 837.5 c 128,-1,4
 344 957 344 957 345.5 1076 c 128,-1,5
 347 1195 347 1195 347 1310 c 1,6,-1
 333 1310 l 2,7,8
 299 1310 299 1310 267.5 1302 c 128,-1,9
 236 1294 236 1294 205.5 1284.5 c 128,-1,10
 175 1275 175 1275 145 1267 c 128,-1,11
 115 1259 115 1259 83 1259 c 0,12,13
 45 1259 45 1259 24 1278.5 c 128,-1,14
 3 1298 3 1298 3 1336 c 0,15,16
 3 1375 3 1375 39 1402 c 128,-1,17
 75 1429 75 1429 131.5 1447 c 128,-1,18
 188 1465 188 1465 257 1475.5 c 128,-1,19
 326 1486 326 1486 392.5 1491 c 128,-1,20
 459 1496 459 1496 515 1497 c 128,-1,21
 571 1498 571 1498 601 1498 c 0,22,23
 665 1498 665 1498 740.5 1492.5 c 128,-1,24
 816 1487 816 1487 891 1472 c 128,-1,25
 966 1457 966 1457 1035.5 1430.5 c 128,-1,26
 1105 1404 1105 1404 1159 1361 c 128,-1,27
 1213 1318 1213 1318 1245 1256.5 c 128,-1,28
 1277 1195 1277 1195 1277 1111 c 0,29,30
 1277 1021 1277 1021 1233.5 959 c 128,-1,31
 1190 897 1190 897 1122.5 858 c 128,-1,32
 1055 819 1055 819 974 799.5 c 128,-1,33
 893 780 893 780 817 776 c 2,34,-1
 493 759 l 1,35,-1
 424 315 l 2,36,37
 421 299 421 299 417 270.5 c 128,-1,38
 413 242 413 242 406 208.5 c 128,-1,39
 399 175 399 175 388.5 140.5 c 128,-1,40
 378 106 378 106 362.5 78 c 128,-1,41
 347 50 347 50 325.5 32 c 128,-1,42
 304 14 304 14 276 14 c 0,43,44
 238 14 238 14 217.5 36 c 128,-1,45
 197 58 197 58 197 96 c 2,46,-1
 197 116 l 1,0,-1
603 1330 m 0,47,48
 596 1330 596 1330 583.5 1329.5 c 128,-1,49
 571 1329 571 1329 558.5 1328.5 c 128,-1,50
 546 1328 546 1328 537 1327.5 c 128,-1,51
 528 1327 528 1327 527 1327 c 2,52,-1
 521 1316 l 1,53,54
 518 1249 518 1249 516 1187 c 0,55,56
 515 1161 515 1161 514 1133 c 128,-1,57
 513 1105 513 1105 512 1078.5 c 128,-1,58
 511 1052 511 1052 510.5 1028 c 128,-1,59
 510 1004 510 1004 510 986 c 2,60,-1
 510 926 l 1,61,62
 538 926 538 926 594 925 c 0,63,64
 610 925 610 925 627 925 c 0,65,66
 641 925 641 925 656 925 c 0,67,68
 685 925 685 925 717 926 c 0,69,70
 784 928 784 928 854 937.5 c 128,-1,71
 924 947 924 947 981.5 967.5 c 128,-1,72
 1039 988 1039 988 1076 1021.5 c 128,-1,73
 1113 1055 1113 1055 1113 1108 c 0,74,75
 1113 1163 1113 1163 1085 1201.5 c 128,-1,76
 1057 1240 1057 1240 1012.5 1264.5 c 128,-1,77
 968 1289 968 1289 911.5 1302.5 c 128,-1,78
 855 1316 855 1316 798.5 1322 c 128,-1,79
 742 1328 742 1328 690.5 1329 c 128,-1,80
 639 1330 639 1330 603 1330 c 0,47,48
EndSplineSet
Validated: 1
EndChar

StartChar: Q
Encoding: 81 81 52
Width: 1499
GlyphClass: 2
Flags: W
LayerCount: 2
Fore
SplineSet
1094 62 m 1,0,1
 1029 30 1029 30 969 14.5 c 128,-1,2
 909 -1 909 -1 838 -1 c 0,3,4
 730 -1 730 -1 635.5 26.5 c 128,-1,5
 541 54 541 54 462.5 104 c 128,-1,6
 384 154 384 154 323 223.5 c 128,-1,7
 262 293 262 293 220 378 c 128,-1,8
 178 463 178 463 156 560.5 c 128,-1,9
 134 658 134 658 134 763 c 0,10,11
 134 854 134 854 156.5 944.5 c 128,-1,12
 179 1035 179 1035 221 1117.5 c 128,-1,13
 263 1200 263 1200 323 1270.5 c 128,-1,14
 383 1341 383 1341 457 1393 c 128,-1,15
 531 1445 531 1445 618 1474.5 c 128,-1,16
 705 1504 705 1504 801 1504 c 0,17,18
 896 1504 896 1504 976 1468 c 128,-1,19
 1056 1432 1056 1432 1121 1371 c 128,-1,20
 1186 1310 1186 1310 1236 1229.5 c 128,-1,21
 1286 1149 1286 1149 1319.5 1061 c 128,-1,22
 1353 973 1353 973 1370 882.5 c 128,-1,23
 1387 792 1387 792 1387 711 c 0,24,25
 1387 570 1387 570 1347.5 436.5 c 128,-1,26
 1308 303 1308 303 1226 188 c 1,27,-1
 1226 177 l 2,28,29
 1226 165 1226 165 1242 146.5 c 128,-1,30
 1258 128 1258 128 1283.5 107 c 128,-1,31
 1309 86 1309 86 1339.5 65 c 128,-1,32
 1370 44 1370 44 1399.5 27.5 c 128,-1,33
 1429 11 1429 11 1453.5 0.5 c 128,-1,34
 1478 -10 1478 -10 1490 -10 c 2,35,-1
 1605 -10 l 1,36,37
 1617 -20 1617 -20 1626.5 -27 c 128,-1,38
 1636 -34 1636 -34 1642.5 -42 c 128,-1,39
 1649 -50 1649 -50 1653 -60.5 c 128,-1,40
 1657 -71 1657 -71 1657 -87 c 0,41,42
 1657 -117 1657 -117 1645.5 -135.5 c 128,-1,43
 1634 -154 1634 -154 1615.5 -163.5 c 128,-1,44
 1597 -173 1597 -173 1573 -176 c 128,-1,45
 1549 -179 1549 -179 1524 -179 c 0,46,47
 1461 -179 1461 -179 1401.5 -156.5 c 128,-1,48
 1342 -134 1342 -134 1288 -98.5 c 128,-1,49
 1234 -63 1234 -63 1185.5 -20.5 c 128,-1,50
 1137 22 1137 22 1094 62 c 1,0,1
301 760 m 0,51,52
 301 636 301 636 338 527.5 c 128,-1,53
 375 419 375 419 445.5 338.5 c 128,-1,54
 516 258 516 258 617.5 211.5 c 128,-1,55
 719 165 719 165 847 165 c 0,56,57
 879 165 879 165 912 171 c 128,-1,58
 945 177 945 177 973 194 c 1,59,-1
 973 197 l 2,60,61
 973 221 973 221 958 244.5 c 128,-1,62
 943 268 943 268 921 293 c 128,-1,63
 899 318 899 318 873 344.5 c 128,-1,64
 847 371 847 371 825 400.5 c 128,-1,65
 803 430 803 430 788 462.5 c 128,-1,66
 773 495 773 495 773 533 c 0,67,68
 773 570 773 570 795.5 591.5 c 128,-1,69
 818 613 818 613 853 613 c 0,70,71
 885 613 885 613 910.5 596 c 128,-1,72
 936 579 936 579 956.5 552 c 128,-1,73
 977 525 977 525 994.5 491 c 128,-1,74
 1012 457 1012 457 1029 424 c 128,-1,75
 1046 391 1046 391 1064.5 362 c 128,-1,76
 1083 333 1083 333 1105 315 c 1,77,78
 1129 331 1129 331 1147.5 359.5 c 128,-1,79
 1166 388 1166 388 1178.5 424.5 c 128,-1,80
 1191 461 1191 461 1199 501.5 c 128,-1,81
 1207 542 1207 542 1212 581 c 128,-1,82
 1217 620 1217 620 1218.5 654.5 c 128,-1,83
 1220 689 1220 689 1220 714 c 0,84,85
 1220 769 1220 769 1208 837 c 128,-1,86
 1196 905 1196 905 1172 974 c 128,-1,87
 1148 1043 1148 1043 1112.5 1108.5 c 128,-1,88
 1077 1174 1077 1174 1031 1224.5 c 128,-1,89
 985 1275 985 1275 927.5 1306 c 128,-1,90
 870 1337 870 1337 803 1337 c 0,91,92
 730 1337 730 1337 664 1313 c 128,-1,93
 598 1289 598 1289 542.5 1247.5 c 128,-1,94
 487 1206 487 1206 442 1150 c 128,-1,95
 397 1094 397 1094 366 1029.5 c 128,-1,96
 335 965 335 965 318 896 c 128,-1,97
 301 827 301 827 301 760 c 0,51,52
EndSplineSet
Validated: 1
EndChar

StartChar: R
Encoding: 82 82 53
Width: 1320
GlyphClass: 2
Flags: W
LayerCount: 2
Fore
SplineSet
470 708 m 1,0,1
 455 620 455 620 436 532 c 128,-1,2
 417 444 417 444 392 357.5 c 128,-1,3
 367 271 367 271 333.5 188 c 128,-1,4
 300 105 300 105 256 27 c 1,5,6
 241 10 241 10 224.5 1 c 128,-1,7
 208 -8 208 -8 186 -8 c 0,8,9
 151 -8 151 -8 128.5 15 c 128,-1,10
 106 38 106 38 106 70 c 0,11,12
 106 105 106 105 118.5 141 c 128,-1,13
 131 177 131 177 148 213 c 128,-1,14
 165 249 165 249 182.5 283.5 c 128,-1,15
 200 318 200 318 210 350 c 0,16,17
 279 585 279 585 312 824 c 128,-1,18
 345 1063 345 1063 345 1309 c 1,19,20
 319 1309 319 1309 285.5 1303.5 c 128,-1,21
 252 1298 252 1298 217.5 1289.5 c 128,-1,22
 183 1281 183 1281 150.5 1272 c 128,-1,23
 118 1263 118 1263 94 1257 c 1,24,-1
 77 1257 l 2,25,26
 40 1257 40 1257 18 1280.5 c 128,-1,27
 -4 1304 -4 1304 -4 1341 c 0,28,29
 -4 1380 -4 1380 31.5 1407 c 128,-1,30
 67 1434 67 1434 123 1452 c 128,-1,31
 179 1470 179 1470 247 1479.5 c 128,-1,32
 315 1489 315 1489 379.5 1494 c 128,-1,33
 444 1499 444 1499 498 1500 c 128,-1,34
 552 1501 552 1501 579 1501 c 0,35,36
 611 1501 611 1501 658 1500 c 128,-1,37
 705 1499 705 1499 760.5 1494.5 c 128,-1,38
 816 1490 816 1490 875.5 1482 c 128,-1,39
 935 1474 935 1474 992.5 1459.5 c 128,-1,40
 1050 1445 1050 1445 1102 1423.5 c 128,-1,41
 1154 1402 1154 1402 1193 1371.5 c 128,-1,42
 1232 1341 1232 1341 1255 1300.5 c 128,-1,43
 1278 1260 1278 1260 1278 1208 c 0,44,45
 1278 1145 1278 1145 1243 1094 c 128,-1,46
 1208 1043 1208 1043 1152 1002.5 c 128,-1,47
 1096 962 1096 962 1026.5 930.5 c 128,-1,48
 957 899 957 899 887.5 875.5 c 128,-1,49
 818 852 818 852 756 835 c 128,-1,50
 694 818 694 818 654 807 c 1,51,-1
 649 801 l 1,52,53
 699 761 699 761 758.5 711 c 128,-1,54
 818 661 818 661 878.5 602.5 c 128,-1,55
 939 544 939 544 995.5 478.5 c 128,-1,56
 1052 413 1052 413 1095.5 343.5 c 128,-1,57
 1139 274 1139 274 1165.5 200.5 c 128,-1,58
 1192 127 1192 127 1192 53 c 0,59,60
 1192 35 1192 35 1185 20.5 c 128,-1,61
 1178 6 1178 6 1166 -4 c 128,-1,62
 1154 -14 1154 -14 1139 -19.5 c 128,-1,63
 1124 -25 1124 -25 1108 -25 c 0,64,65
 1096 -25 1096 -25 1067.5 10.5 c 128,-1,66
 1039 46 1039 46 1002 102 c 128,-1,67
 965 158 965 158 921.5 225 c 128,-1,68
 878 292 878 292 835.5 356 c 128,-1,69
 793 420 793 420 754.5 471.5 c 128,-1,70
 716 523 716 523 689 547 c 0,71,72
 685 551 685 551 663 569 c 128,-1,73
 641 587 641 587 613.5 608.5 c 128,-1,74
 586 630 586 630 558.5 651.5 c 128,-1,75
 531 673 531 673 516 685 c 0,76,77
 507 692 507 692 498 700 c 128,-1,78
 489 708 489 708 475 708 c 2,79,-1
 470 708 l 1,0,1
602 1324 m 0,80,81
 594 1324 594 1324 582 1323.5 c 128,-1,82
 570 1323 570 1323 558 1322.5 c 128,-1,83
 546 1322 546 1322 537 1321.5 c 128,-1,84
 528 1321 528 1321 527 1321 c 2,85,-1
 522 1309 l 1,86,87
 519 1244 519 1244 515 1183 c 0,88,89
 513 1157 513 1157 512 1129.5 c 128,-1,90
 511 1102 511 1102 509.5 1076 c 128,-1,91
 508 1050 508 1050 506.5 1027 c 128,-1,92
 505 1004 505 1004 504 986 c 1,93,-1
 504 945 l 1,94,95
 505 945 505 945 531 952 c 128,-1,96
 557 959 557 959 599.5 971.5 c 128,-1,97
 642 984 642 984 695.5 1001.5 c 128,-1,98
 749 1019 749 1019 805.5 1039 c 128,-1,99
 862 1059 862 1059 915.5 1080.5 c 128,-1,100
 969 1102 969 1102 1011.5 1124 c 128,-1,101
 1054 1146 1054 1146 1079.5 1167.5 c 128,-1,102
 1105 1189 1105 1189 1105 1208 c 0,103,104
 1105 1230 1105 1230 1070.5 1247 c 128,-1,105
 1036 1264 1036 1264 983.5 1277 c 128,-1,106
 931 1290 931 1290 869 1299 c 128,-1,107
 807 1308 807 1308 751 1313.5 c 128,-1,108
 695 1319 695 1319 653.5 1321.5 c 128,-1,109
 612 1324 612 1324 602 1324 c 0,80,81
EndSplineSet
Validated: 1
EndChar

StartChar: S
Encoding: 83 83 54
Width: 1270
GlyphClass: 2
Flags: W
LayerCount: 2
Fore
SplineSet
53 278 m 0,0,1
 53 313 53 313 75 338 c 128,-1,2
 97 363 97 363 135 363 c 0,3,4
 156 363 156 363 179 349 c 128,-1,5
 202 335 202 335 229 314.5 c 128,-1,6
 256 294 256 294 287.5 269.5 c 128,-1,7
 319 245 319 245 357.5 224.5 c 128,-1,8
 396 204 396 204 442.5 190 c 128,-1,9
 489 176 489 176 545 176 c 0,10,11
 586 176 586 176 639.5 183 c 128,-1,12
 693 190 693 190 749 205 c 128,-1,13
 805 220 805 220 858.5 243 c 128,-1,14
 912 266 912 266 954.5 299.5 c 128,-1,15
 997 333 997 333 1023 376.5 c 128,-1,16
 1049 420 1049 420 1049 475 c 0,17,18
 1049 513 1049 513 1030.5 544.5 c 128,-1,19
 1012 576 1012 576 983 600.5 c 128,-1,20
 954 625 954 625 919 642 c 128,-1,21
 884 659 884 659 850 668 c 2,22,-1
 410 785 l 2,23,24
 362 798 362 798 313.5 819 c 128,-1,25
 265 840 265 840 224 871 c 128,-1,26
 183 902 183 902 153 943 c 128,-1,27
 123 984 123 984 112 1037 c 1,28,-1
 112 1098 l 2,29,30
 112 1184 112 1184 139 1255.5 c 128,-1,31
 166 1327 166 1327 215 1380.5 c 128,-1,32
 264 1434 264 1434 333 1467.5 c 128,-1,33
 402 1501 402 1501 487 1511 c 0,34,35
 492 1511 492 1511 506.5 1511.5 c 128,-1,36
 521 1512 521 1512 537.5 1512.5 c 128,-1,37
 554 1513 554 1513 568.5 1513.5 c 128,-1,38
 583 1514 583 1514 589 1514 c 0,39,40
 614 1514 614 1514 662.5 1513.5 c 128,-1,41
 711 1513 711 1513 769.5 1508.5 c 128,-1,42
 828 1504 828 1504 888.5 1495 c 128,-1,43
 949 1486 949 1486 999 1469 c 128,-1,44
 1049 1452 1049 1452 1081 1426 c 128,-1,45
 1113 1400 1113 1400 1113 1362 c 0,46,47
 1113 1327 1113 1327 1091 1302 c 128,-1,48
 1069 1277 1069 1277 1031 1277 c 2,49,-1
 1019 1277 l 1,50,51
 911 1301 911 1301 805 1321 c 128,-1,52
 699 1341 699 1341 589 1341 c 0,53,54
 526 1341 526 1341 470.5 1329.5 c 128,-1,55
 415 1318 415 1318 373 1289.5 c 128,-1,56
 331 1261 331 1261 306.5 1214 c 128,-1,57
 282 1167 282 1167 282 1095 c 0,58,59
 282 1066 282 1066 296 1044 c 128,-1,60
 310 1022 310 1022 331 1005.5 c 128,-1,61
 352 989 352 989 378 978 c 128,-1,62
 404 967 404 967 428 961 c 2,63,-1
 850 849 l 2,64,65
 919 831 919 831 985.5 799.5 c 128,-1,66
 1052 768 1052 768 1103.5 722 c 128,-1,67
 1155 676 1155 676 1187 614.5 c 128,-1,68
 1219 553 1219 553 1219 475 c 0,69,70
 1219 393 1219 393 1187.5 326 c 128,-1,71
 1156 259 1156 259 1103.5 206 c 128,-1,72
 1051 153 1051 153 982 114.5 c 128,-1,73
 913 76 913 76 837.5 50.5 c 128,-1,74
 762 25 762 25 685.5 12.5 c 128,-1,75
 609 0 609 0 542 0 c 0,76,77
 506 0 506 0 456 6.5 c 128,-1,78
 406 13 406 13 351.5 27 c 128,-1,79
 297 41 297 41 243.5 63 c 128,-1,80
 190 85 190 85 148 116 c 128,-1,81
 106 147 106 147 79.5 187 c 128,-1,82
 53 227 53 227 53 278 c 0,0,1
EndSplineSet
Validated: 1
EndChar

StartChar: T
Encoding: 84 84 55
Width: 1256
GlyphClass: 2
Flags: W
LayerCount: 2
Fore
SplineSet
335 83 m 0,0,1
 335 113 335 113 346.5 149 c 128,-1,2
 358 185 358 185 373 221.5 c 128,-1,3
 388 258 388 258 402.5 292.5 c 128,-1,4
 417 327 417 327 423 354 c 0,5,6
 485 595 485 595 516 831 c 128,-1,7
 547 1067 547 1067 547 1315 c 2,8,-1
 547 1327 l 1,9,-1
 129 1339 l 2,10,11
 112 1339 112 1339 100 1347.5 c 128,-1,12
 88 1356 88 1356 80 1368.5 c 128,-1,13
 72 1381 72 1381 68 1396 c 128,-1,14
 64 1411 64 1411 64 1424 c 0,15,16
 64 1436 64 1436 68 1450 c 128,-1,17
 72 1464 72 1464 80 1476 c 128,-1,18
 88 1488 88 1488 98.5 1496 c 128,-1,19
 109 1504 109 1504 123 1504 c 2,20,-1
 883 1504 l 2,21,22
 898 1504 898 1504 928 1505 c 0,23,24
 943 1505 943 1505 959.5 1505.5 c 128,-1,25
 976 1506 976 1506 994 1505 c 0,26,27
 1030 1504 1030 1504 1066.5 1499 c 128,-1,28
 1103 1494 1103 1494 1133 1482 c 128,-1,29
 1163 1470 1163 1470 1182.5 1449 c 128,-1,30
 1202 1428 1202 1428 1202 1395 c 0,31,32
 1202 1359 1202 1359 1179.5 1334 c 128,-1,33
 1157 1309 1157 1309 1119 1309 c 0,34,35
 1050 1309 1050 1309 981.5 1318 c 128,-1,36
 913 1327 913 1327 842 1327 c 2,37,-1
 724 1327 l 1,38,-1
 689 831 l 2,39,40
 688 824 688 824 685 801 c 128,-1,41
 682 778 682 778 677 746.5 c 128,-1,42
 672 715 672 715 666.5 678.5 c 128,-1,43
 661 642 661 642 655.5 607.5 c 128,-1,44
 650 573 650 573 644.5 543 c 128,-1,45
 639 513 639 513 636 496 c 0,46,47
 634 487 634 487 626 455.5 c 128,-1,48
 618 424 618 424 608.5 386.5 c 128,-1,49
 599 349 599 349 590 313.5 c 128,-1,50
 581 278 581 278 577 260 c 1,51,52
 572 244 572 244 566 218.5 c 128,-1,53
 560 193 560 193 551.5 164 c 128,-1,54
 543 135 543 135 531 106 c 128,-1,55
 519 77 519 77 503 53.5 c 128,-1,56
 487 30 487 30 466.5 15.5 c 128,-1,57
 446 1 446 1 420 1 c 0,58,59
 403 1 403 1 388 7.5 c 128,-1,60
 373 14 373 14 361 25.5 c 128,-1,61
 349 37 349 37 342 51.5 c 128,-1,62
 335 66 335 66 335 83 c 0,0,1
EndSplineSet
Validated: 1
EndChar

StartChar: U
Encoding: 85 85 56
Width: 1260
GlyphClass: 2
Flags: W
LayerCount: 2
Fore
SplineSet
110 1464 m 1,0,1
 114 1477 114 1477 123.5 1487 c 128,-1,2
 133 1497 133 1497 146 1503.5 c 128,-1,3
 159 1510 159 1510 173 1513.5 c 128,-1,4
 187 1517 187 1517 200 1517 c 0,5,6
 211 1517 211 1517 223.5 1513.5 c 128,-1,7
 236 1510 236 1510 247 1503.5 c 128,-1,8
 258 1497 258 1497 266 1487 c 128,-1,9
 274 1477 274 1477 275 1464 c 1,10,-1
 250 1027 l 1,11,12
 251 1009 251 1009 251 987 c 0,13,14
 251 956 251 956 249 918 c 0,15,16
 246 854 246 854 243 782 c 128,-1,17
 240 710 240 710 240 633 c 0,18,19
 240 629 240 629 239 624 c 0,20,21
 240 551 240 551 248 483 c 0,22,23
 256 410 256 410 276 345 c 128,-1,24
 296 280 296 280 333.5 231 c 128,-1,25
 371 182 371 182 428.5 154 c 128,-1,26
 486 126 486 126 570 126 c 0,27,28
 649 126 649 126 711.5 163 c 128,-1,29
 774 200 774 200 822 260.5 c 128,-1,30
 870 321 870 321 903.5 398.5 c 128,-1,31
 937 476 937 476 959 558 c 128,-1,32
 981 640 981 640 991.5 720.5 c 128,-1,33
 1002 801 1002 801 1003 867 c 1,34,-1
 1003 1075 l 2,35,36
 1003 1166 1003 1166 1000.5 1255.5 c 128,-1,37
 998 1345 998 1345 998 1437 c 0,38,39
 998 1473 998 1473 1025.5 1495 c 128,-1,40
 1053 1517 1053 1517 1091 1517 c 0,41,42
 1123 1517 1123 1517 1143.5 1498.5 c 128,-1,43
 1164 1480 1164 1480 1168 1448 c 1,44,45
 1171 1384 1171 1384 1173 1336 c 128,-1,46
 1175 1288 1175 1288 1176.5 1245 c 128,-1,47
 1178 1202 1178 1202 1178.5 1158 c 128,-1,48
 1179 1114 1179 1114 1179 1059 c 0,49,50
 1179 962 1179 962 1169 844.5 c 128,-1,51
 1159 727 1159 727 1133.5 607.5 c 128,-1,52
 1108 488 1108 488 1064 375 c 128,-1,53
 1020 262 1020 262 952.5 173.5 c 128,-1,54
 885 85 885 85 791.5 30 c 128,-1,55
 698 -25 698 -25 573 -29 c 0,56,57
 562 -29 562 -29 551 -29 c 0,58,59
 438 -29 438 -29 358 8 c 0,60,61
 270 49 270 49 214 122 c 0,62,63
 158 196 158 196 128 294 c 0,64,65
 100 392 100 392 88 504 c 0,66,67
 78 599 78 599 78 699 c 0,68,69
 78 716 78 716 78 734 c 0,70,71
 80 852 80 852 87 964 c 128,-1,72
 94 1076 94 1076 102 1176 c 128,-1,73
 110 1276 110 1276 110 1350 c 2,74,-1
 110 1464 l 1,0,1
EndSplineSet
Validated: 1
EndChar

StartChar: V
Encoding: 86 86 57
Width: 1343
GlyphClass: 2
Flags: W
LayerCount: 2
Fore
SplineSet
109 1442 m 1,0,1
 118 1471 118 1471 138.5 1488 c 128,-1,2
 159 1505 159 1505 189 1505 c 0,3,4
 215 1505 215 1505 238 1489.5 c 128,-1,5
 261 1474 261 1474 269 1448 c 1,6,7
 294 1286 294 1286 321.5 1160 c 128,-1,8
 349 1034 349 1034 377 936.5 c 128,-1,9
 405 839 405 839 433.5 764.5 c 128,-1,10
 462 690 462 690 489.5 630.5 c 128,-1,11
 517 571 517 571 543.5 522 c 128,-1,12
 570 473 570 473 594 426 c 128,-1,13
 618 379 618 379 638.5 328.5 c 128,-1,14
 659 278 659 278 676 217 c 1,15,-1
 682 223 l 1,16,-1
 938 668 l 2,17,18
 987 753 987 753 1020.5 847.5 c 128,-1,19
 1054 942 1054 942 1074 1040.5 c 128,-1,20
 1094 1139 1094 1139 1103.5 1239 c 128,-1,21
 1113 1339 1113 1339 1115 1437 c 1,22,23
 1124 1469 1124 1469 1146.5 1487 c 128,-1,24
 1169 1505 1169 1505 1201 1505 c 0,25,26
 1239 1505 1239 1505 1260 1477.5 c 128,-1,27
 1281 1450 1281 1450 1281 1414 c 0,28,29
 1281 1331 1281 1331 1274.5 1237 c 128,-1,30
 1268 1143 1268 1143 1251.5 1047.5 c 128,-1,31
 1235 952 1235 952 1207.5 861.5 c 128,-1,32
 1180 771 1180 771 1138 696 c 2,33,-1
 773 46 l 2,34,35
 760 24 760 24 739.5 12 c 128,-1,36
 719 0 719 0 696 0 c 0,37,38
 668 0 668 0 639 14 c 128,-1,39
 610 28 610 28 584.5 49.5 c 128,-1,40
 559 71 559 71 539.5 96 c 128,-1,41
 520 121 520 121 511 143 c 0,42,43
 473 241 473 241 428 339 c 128,-1,44
 383 437 383 437 338.5 536 c 128,-1,45
 294 635 294 635 252.5 735 c 128,-1,46
 211 835 211 835 179 937.5 c 128,-1,47
 147 1040 147 1040 128 1146 c 128,-1,48
 109 1252 109 1252 109 1363 c 2,49,-1
 109 1442 l 1,0,1
EndSplineSet
Validated: 1
EndChar

StartChar: W
Encoding: 87 87 58
Width: 1728
GlyphClass: 2
Flags: W
LayerCount: 2
Fore
SplineSet
69 1427 m 0,0,1
 69 1465 69 1465 94 1489.5 c 128,-1,2
 119 1514 119 1514 156 1514 c 0,3,4
 165 1514 165 1514 176.5 1513 c 128,-1,5
 188 1512 188 1512 198.5 1509 c 128,-1,6
 209 1506 209 1506 217.5 1500.5 c 128,-1,7
 226 1495 226 1495 228 1486 c 2,8,-1
 371 958 l 1,9,-1
 626 424 l 1,10,-1
 695 279 l 2,11,12
 697 274 697 274 699.5 273.5 c 128,-1,13
 702 273 702 273 704 273 c 0,14,15
 709 273 709 273 710 276.5 c 128,-1,16
 711 280 711 280 713 285 c 0,17,18
 732 336 732 336 745.5 376 c 128,-1,19
 759 416 759 416 770.5 457 c 128,-1,20
 782 498 782 498 794 546 c 128,-1,21
 806 594 806 594 823 662 c 1,22,23
 830 683 830 683 838 703.5 c 128,-1,24
 846 724 846 724 858 740.5 c 128,-1,25
 870 757 870 757 887 767.5 c 128,-1,26
 904 778 904 778 930 778 c 0,27,28
 961 778 961 778 987 754.5 c 128,-1,29
 1013 731 1013 731 1035 692 c 128,-1,30
 1057 653 1057 653 1076 603.5 c 128,-1,31
 1095 554 1095 554 1113.5 502.5 c 128,-1,32
 1132 451 1132 451 1150 401.5 c 128,-1,33
 1168 352 1168 352 1188.5 313 c 128,-1,34
 1209 274 1209 274 1232.5 250.5 c 128,-1,35
 1256 227 1256 227 1284 227 c 2,36,-1
 1287 227 l 1,37,38
 1337 318 1337 318 1377 408.5 c 128,-1,39
 1417 499 1417 499 1444.5 591.5 c 128,-1,40
 1472 684 1472 684 1487 780.5 c 128,-1,41
 1502 877 1502 877 1502 981 c 0,42,43
 1502 1071 1502 1071 1499 1159.5 c 128,-1,44
 1496 1248 1496 1248 1496 1337 c 2,45,-1
 1496 1346 l 2,46,47
 1496 1353 1496 1353 1497 1368.5 c 128,-1,48
 1498 1384 1498 1384 1499 1401.5 c 128,-1,49
 1500 1419 1500 1419 1501 1434.5 c 128,-1,50
 1502 1450 1502 1450 1502 1456 c 1,51,52
 1510 1485 1510 1485 1532 1499.5 c 128,-1,53
 1554 1514 1554 1514 1583 1514 c 0,54,55
 1615 1514 1615 1514 1634 1496.5 c 128,-1,56
 1653 1479 1653 1479 1664 1451 c 1,57,58
 1666 1378 1666 1378 1667.5 1322.5 c 128,-1,59
 1669 1267 1669 1267 1669.5 1216.5 c 128,-1,60
 1670 1166 1670 1166 1670 1114.5 c 128,-1,61
 1670 1063 1670 1063 1670 998 c 2,62,-1
 1670 842 l 1,63,64
 1660 730 1660 730 1634 626 c 128,-1,65
 1608 522 1608 522 1569 423 c 128,-1,66
 1530 324 1530 324 1480.5 228 c 128,-1,67
 1431 132 1431 132 1374 35 c 1,68,69
 1359 18 1359 18 1342.5 9 c 128,-1,70
 1326 0 1326 0 1304 0 c 0,71,72
 1265 0 1265 0 1227.5 24 c 128,-1,73
 1190 48 1190 48 1154.5 86 c 128,-1,74
 1119 124 1119 124 1087.5 171.5 c 128,-1,75
 1056 219 1056 219 1029 267 c 128,-1,76
 1002 315 1002 315 980.5 358 c 128,-1,77
 959 401 959 401 945 430 c 1,78,-1
 939 435 l 1,79,80
 934 414 934 414 924.5 373.5 c 128,-1,81
 915 333 915 333 901.5 285 c 128,-1,82
 888 237 888 237 869 186 c 128,-1,83
 850 135 850 135 826 94 c 128,-1,84
 802 53 802 53 772 26.5 c 128,-1,85
 742 0 742 0 707 0 c 0,86,87
 674 0 674 0 654.5 19 c 128,-1,88
 635 38 635 38 620 64 c 0,89,90
 608 86 608 86 589 121.5 c 128,-1,91
 570 157 570 157 551.5 191 c 128,-1,92
 533 225 533 225 519 251 c 128,-1,93
 505 277 505 277 504 279 c 2,94,-1
 206 921 l 2,95,96
 205 924 205 924 194 961.5 c 128,-1,97
 183 999 183 999 168 1054.5 c 128,-1,98
 153 1110 153 1110 135.5 1174 c 128,-1,99
 118 1238 118 1238 103.5 1293.5 c 128,-1,100
 89 1349 89 1349 79 1386.5 c 128,-1,101
 69 1424 69 1424 69 1427 c 0,0,1
EndSplineSet
Validated: 1
EndChar

StartChar: X
Encoding: 88 88 59
Width: 1486
GlyphClass: 2
Flags: W
LayerCount: 2
Fore
SplineSet
86 82 m 0,0,1
 86 138 86 138 110 200 c 128,-1,2
 134 262 134 262 173 325 c 128,-1,3
 212 388 212 388 261.5 450 c 128,-1,4
 311 512 311 512 361 568 c 128,-1,5
 411 624 411 624 457.5 671.5 c 128,-1,6
 504 719 504 719 538 754 c 1,7,8
 506 799 506 799 460 849 c 128,-1,9
 414 899 414 899 363.5 953.5 c 128,-1,10
 313 1008 313 1008 263.5 1065.5 c 128,-1,11
 214 1123 214 1123 174.5 1183 c 128,-1,12
 135 1243 135 1243 110.5 1304 c 128,-1,13
 86 1365 86 1365 86 1426 c 0,14,15
 86 1461 86 1461 107 1486 c 128,-1,16
 128 1511 128 1511 168 1511 c 0,17,18
 193 1511 193 1511 208 1503.5 c 128,-1,19
 223 1496 223 1496 239 1476 c 1,20,21
 279 1393 279 1393 325 1312.5 c 128,-1,22
 371 1232 371 1232 424 1155.5 c 128,-1,23
 477 1079 477 1079 537.5 1008.5 c 128,-1,24
 598 938 598 938 667 877 c 1,25,26
 680 888 680 888 707 911 c 128,-1,27
 734 934 734 934 768 963.5 c 128,-1,28
 802 993 802 993 839 1025.5 c 128,-1,29
 876 1058 876 1058 909.5 1087.5 c 128,-1,30
 943 1117 943 1117 969 1140.5 c 128,-1,31
 995 1164 995 1164 1008 1176 c 0,32,33
 1027 1193 1027 1193 1051 1224.5 c 128,-1,34
 1075 1256 1075 1256 1101.5 1293 c 128,-1,35
 1128 1330 1128 1330 1157.5 1369 c 128,-1,36
 1187 1408 1187 1408 1216.5 1439.5 c 128,-1,37
 1246 1471 1246 1471 1275.5 1491 c 128,-1,38
 1305 1511 1305 1511 1333 1511 c 0,39,40
 1368 1511 1368 1511 1393.5 1489 c 128,-1,41
 1419 1467 1419 1467 1419 1429 c 0,42,43
 1419 1393 1419 1393 1398 1351.5 c 128,-1,44
 1377 1310 1377 1310 1344.5 1268 c 128,-1,45
 1312 1226 1312 1226 1272 1185 c 128,-1,46
 1232 1144 1232 1144 1193.5 1108 c 128,-1,47
 1155 1072 1155 1072 1122.5 1044 c 128,-1,48
 1090 1016 1090 1016 1072 1000 c 0,49,50
 1066 994 1066 994 1047.5 977.5 c 128,-1,51
 1029 961 1029 961 1003.5 938.5 c 128,-1,52
 978 916 978 916 949 891 c 128,-1,53
 920 866 920 866 894.5 843.5 c 128,-1,54
 869 821 869 821 850.5 804.5 c 128,-1,55
 832 788 832 788 826 783 c 1,56,57
 821 781 821 781 812.5 771.5 c 128,-1,58
 804 762 804 762 802 760 c 1,59,-1
 802 757 l 1,60,-1
 802 754 l 1,61,62
 822 732 822 732 859 699.5 c 128,-1,63
 896 667 896 667 943 627.5 c 128,-1,64
 990 588 990 588 1043.5 542.5 c 128,-1,65
 1097 497 1097 497 1150 449 c 128,-1,66
 1203 401 1203 401 1251.5 352 c 128,-1,67
 1300 303 1300 303 1337.5 256 c 128,-1,68
 1375 209 1375 209 1397 166.5 c 128,-1,69
 1419 124 1419 124 1419 88 c 0,70,71
 1419 48 1419 48 1395 25.5 c 128,-1,72
 1371 3 1371 3 1333 3 c 0,73,74
 1297 3 1297 3 1271 24.5 c 128,-1,75
 1245 46 1245 46 1224 76.5 c 128,-1,76
 1203 107 1203 107 1184 140.5 c 128,-1,77
 1165 174 1165 174 1143 197 c 0,78,79
 1081 261 1081 261 1025.5 315 c 128,-1,80
 970 369 970 369 913.5 421 c 128,-1,81
 857 473 857 473 797 525 c 128,-1,82
 737 577 737 577 667 637 c 1,83,84
 602 569 602 569 543 500 c 128,-1,85
 484 431 484 431 430.5 358 c 128,-1,86
 377 285 377 285 330.5 207.5 c 128,-1,87
 284 130 284 130 245 44 c 1,88,89
 231 20 231 20 211.5 11.5 c 128,-1,90
 192 3 192 3 165 3 c 0,91,92
 132 3 132 3 109 25 c 128,-1,93
 86 47 86 47 86 82 c 0,0,1
EndSplineSet
Validated: 1
EndChar

StartChar: Y
Encoding: 89 89 60
Width: 1247
GlyphClass: 2
Flags: W
LayerCount: 2
Fore
SplineSet
649 59 m 1,0,1
 652 120 652 120 652 184 c 0,2,3
 652 196 652 196 652 206 c 0,4,5
 652 282 652 282 648.5 358 c 128,-1,6
 645 434 645 434 639 509.5 c 128,-1,7
 633 585 633 585 626 656 c 1,8,9
 626 667 626 667 622 678 c 128,-1,10
 618 689 618 689 609 695 c 1,11,-1
 333 955 l 2,12,13
 289 996 289 996 243 1054 c 128,-1,14
 197 1112 197 1112 159.5 1178 c 128,-1,15
 122 1244 122 1244 97.5 1312.5 c 128,-1,16
 73 1381 73 1381 73 1444 c 0,17,18
 73 1478 73 1478 94.5 1495.5 c 128,-1,19
 116 1513 116 1513 152 1513 c 0,20,21
 179 1513 179 1513 201.5 1493 c 128,-1,22
 224 1473 224 1473 243.5 1441.5 c 128,-1,23
 263 1410 263 1410 279.5 1371.5 c 128,-1,24
 296 1333 296 1333 311 1295.5 c 128,-1,25
 326 1258 326 1258 339.5 1225.5 c 128,-1,26
 353 1193 353 1193 366 1175 c 0,27,28
 435 1086 435 1086 516 1002.5 c 128,-1,29
 597 919 597 919 689 853 c 1,30,31
 720 893 720 893 753.5 935.5 c 128,-1,32
 787 978 787 978 818.5 1022 c 128,-1,33
 850 1066 850 1066 879 1111 c 128,-1,34
 908 1156 908 1156 932 1203 c 1,35,36
 942 1225 942 1225 951.5 1257 c 128,-1,37
 961 1289 961 1289 971.5 1324 c 128,-1,38
 982 1359 982 1359 995 1394 c 128,-1,39
 1008 1429 1008 1429 1024.5 1456.5 c 128,-1,40
 1041 1484 1041 1484 1063 1501.5 c 128,-1,41
 1085 1519 1085 1519 1115 1519 c 0,42,43
 1149 1519 1149 1519 1173 1503.5 c 128,-1,44
 1197 1488 1197 1488 1197 1452 c 0,45,46
 1197 1401 1197 1401 1180.5 1343 c 128,-1,47
 1164 1285 1164 1285 1138 1228 c 128,-1,48
 1112 1171 1112 1171 1081 1119 c 128,-1,49
 1050 1067 1050 1067 1022 1028 c 2,50,-1
 802 723 l 1,51,-1
 796 712 l 1,52,-1
 796 664 l 2,53,54
 796 561 796 561 804.5 452 c 128,-1,55
 813 343 813 343 813 240 c 0,56,57
 813 224 813 224 815 200 c 128,-1,58
 817 176 817 176 817 149.5 c 128,-1,59
 817 123 817 123 814.5 97 c 128,-1,60
 812 71 812 71 802.5 50 c 128,-1,61
 793 29 793 29 776 16 c 128,-1,62
 759 3 759 3 731 3 c 256,63,64
 703 3 703 3 680 15 c 128,-1,65
 657 27 657 27 649 59 c 1,0,1
EndSplineSet
Validated: 1
EndChar

StartChar: Z
Encoding: 90 90 61
Width: 1472
GlyphClass: 2
Flags: W
LayerCount: 2
Fore
SplineSet
154 38 m 0,0,1
 119 44 119 44 95.5 64.5 c 128,-1,2
 72 85 72 85 72 122 c 0,3,4
 72 172 72 172 99.5 235 c 128,-1,5
 127 298 127 298 170.5 366.5 c 128,-1,6
 214 435 214 435 269 504 c 128,-1,7
 324 573 324 573 378.5 634 c 128,-1,8
 433 695 433 695 481.5 743.5 c 128,-1,9
 530 792 530 792 562 820 c 2,10,-1
 1000 1193 l 1,11,-1
 1122 1316 l 1,12,-1
 1102 1316 l 2,13,14
 1034 1316 1034 1316 966 1313 c 128,-1,15
 898 1310 898 1310 828 1310 c 0,16,17
 740 1310 740 1310 653 1316 c 128,-1,18
 566 1322 566 1322 479 1328 c 0,19,20
 392 1334 392 1334 305 1340 c 0,21,22
 231 1345 231 1345 158 1345 c 0,23,-1
 131 1345 l 1,24,25
 102 1354 102 1354 87 1376 c 128,-1,26
 72 1398 72 1398 72 1427 c 256,27,28
 72 1456 72 1456 87 1478 c 128,-1,29
 102 1500 102 1500 131 1508 c 1,30,-1
 259 1508 l 2,31,32
 332 1508 332 1508 405.5 1503.5 c 128,-1,33
 479 1499 479 1499 552 1493.5 c 128,-1,34
 625 1488 625 1488 698.5 1483.5 c 128,-1,35
 772 1479 772 1479 845 1479 c 0,36,37
 908 1479 908 1479 958 1481 c 128,-1,38
 1008 1483 1008 1483 1058.5 1487 c 128,-1,39
 1109 1491 1109 1491 1166.5 1497.5 c 128,-1,40
 1224 1504 1224 1504 1303 1514 c 1,41,-1
 1324 1514 l 2,42,43
 1359 1514 1359 1514 1383.5 1492 c 128,-1,44
 1408 1470 1408 1470 1408 1435 c 0,45,46
 1408 1383 1408 1383 1360 1315.5 c 128,-1,47
 1312 1248 1312 1248 1233 1169.5 c 128,-1,48
 1154 1091 1154 1091 1053.5 1005.5 c 128,-1,49
 953 920 953 920 848 832 c 128,-1,50
 743 744 743 744 642.5 656 c 128,-1,51
 542 568 542 568 463 486.5 c 128,-1,52
 384 405 384 405 336 331.5 c 128,-1,53
 288 258 288 258 288 198 c 2,54,-1
 288 195 l 1,55,56
 328 183 328 183 372 178 c 0,57,58
 416 174 416 174 459 172 c 0,59,60
 485 171 485 171 512 171 c 0,61,62
 530 171 530 171 548 171 c 0,63,64
 592 172 592 172 635 172 c 0,65,66
 708 172 708 172 781 176.5 c 128,-1,67
 854 181 854 181 927 186.5 c 128,-1,68
 1000 192 1000 192 1072.5 196.5 c 128,-1,69
 1145 201 1145 201 1219 201 c 2,70,-1
 1344 201 l 1,71,72
 1375 192 1375 192 1391.5 169.5 c 128,-1,73
 1408 147 1408 147 1408 116 c 0,74,75
 1408 90 1408 90 1392 68 c 128,-1,76
 1376 46 1376 46 1350 38 c 1,77,78
 1336 38 1336 38 1322 38 c 0,79,80
 1246 38 1246 38 1170 34 c 0,81,82
 1080 28 1080 28 991 20.5 c 128,-1,83
 902 13 902 13 812 6.5 c 128,-1,84
 722 0 722 0 632 0 c 0,85,86
 563 0 563 0 510 1.5 c 128,-1,87
 457 3 457 3 404.5 7 c 128,-1,88
 352 11 352 11 293 18.5 c 128,-1,89
 234 26 234 26 154 38 c 0,0,1
EndSplineSet
Validated: 1
EndChar

StartChar: bracketleft
Encoding: 91 91 62
Width: 868
GlyphClass: 2
Flags: W
LayerCount: 2
Fore
SplineSet
120 -192 m 1,0,-1
 187 449 l 1,1,-1
 245 1483 l 2,2,3
 246 1494 246 1494 253 1504 c 128,-1,4
 260 1514 260 1514 269.5 1521 c 128,-1,5
 279 1528 279 1528 290 1532 c 128,-1,6
 301 1536 301 1536 311 1536 c 2,7,-1
 736 1536 l 2,8,9
 751 1536 751 1536 761.5 1529.5 c 128,-1,10
 772 1523 772 1523 779.5 1512.5 c 128,-1,11
 787 1502 787 1502 790.5 1489 c 128,-1,12
 794 1476 794 1476 794 1464 c 0,13,14
 794 1455 794 1455 792 1443.5 c 128,-1,15
 790 1432 790 1432 785 1421 c 128,-1,16
 780 1410 780 1410 771 1402.5 c 128,-1,17
 762 1395 762 1395 749 1395 c 2,18,-1
 383 1395 l 1,19,-1
 337 521 l 1,20,-1
 277 -134 l 1,21,-1
 669 -134 l 2,22,23
 698 -134 698 -134 713 -158 c 128,-1,24
 728 -182 728 -182 728 -209 c 0,25,26
 728 -234 728 -234 717.5 -247.5 c 128,-1,27
 707 -261 707 -261 682 -271 c 1,28,29
 622 -274 622 -274 576 -275 c 128,-1,30
 530 -276 530 -276 488 -277 c 128,-1,31
 446 -278 446 -278 403 -278 c 128,-1,32
 360 -278 360 -278 306 -278 c 2,33,-1
 172 -278 l 2,34,35
 158 -278 158 -278 148.5 -271.5 c 128,-1,36
 139 -265 139 -265 132.5 -254.5 c 128,-1,37
 126 -244 126 -244 123 -232 c 128,-1,38
 120 -220 120 -220 120 -209 c 2,39,-1
 120 -192 l 1,0,-1
EndSplineSet
Validated: 1
EndChar

StartChar: backslash
Encoding: 92 92 63
Width: 963
GlyphClass: 2
Flags: W
LayerCount: 2
Fore
SplineSet
887 1 m 0,0,1
 887 -39 887 -39 860.5 -65.5 c 128,-1,2
 834 -92 834 -92 794 -92 c 0,3,4
 757 -92 757 -92 735.5 -73 c 128,-1,5
 714 -54 714 -54 700.5 -25.5 c 128,-1,6
 687 3 687 3 677.5 35.5 c 128,-1,7
 668 68 668 68 655 94 c 1,8,-1
 377 729 l 1,9,10
 355 770 355 770 329 823.5 c 128,-1,11
 303 877 303 877 276.5 937.5 c 128,-1,12
 250 998 250 998 225 1062 c 128,-1,13
 200 1126 200 1126 180.5 1189.5 c 128,-1,14
 161 1253 161 1253 149.5 1312.5 c 128,-1,15
 138 1372 138 1372 138 1422 c 0,16,17
 138 1444 138 1444 146.5 1460.5 c 128,-1,18
 155 1477 155 1477 169.5 1488.5 c 128,-1,19
 184 1500 184 1500 202.5 1505.5 c 128,-1,20
 221 1511 221 1511 241 1511 c 0,21,22
 303 1511 303 1511 324 1451 c 1,23,24
 337 1400 337 1400 358.5 1327.5 c 128,-1,25
 380 1255 380 1255 406 1177 c 128,-1,26
 432 1099 432 1099 460.5 1024.5 c 128,-1,27
 489 950 489 950 516 895 c 1,28,-1
 827 186 l 1,29,30
 837 166 837 166 847.5 143 c 128,-1,31
 858 120 858 120 867 96 c 128,-1,32
 876 72 876 72 881.5 47.5 c 128,-1,33
 887 23 887 23 887 1 c 0,0,1
EndSplineSet
Validated: 1
EndChar

StartChar: bracketright
Encoding: 93 93 64
Width: 854
GlyphClass: 2
Flags: W
LayerCount: 2
Fore
SplineSet
707 -209 m 2,0,1
 707 -220 707 -220 704 -232 c 128,-1,2
 701 -244 701 -244 694.5 -254.5 c 128,-1,3
 688 -265 688 -265 678 -271.5 c 128,-1,4
 668 -278 668 -278 655 -278 c 2,5,-1
 521 -278 l 2,6,7
 467 -278 467 -278 424 -278 c 128,-1,8
 381 -278 381 -278 339 -277 c 128,-1,9
 297 -276 297 -276 251 -275 c 128,-1,10
 205 -274 205 -274 145 -271 c 1,11,12
 120 -261 120 -261 109.5 -247.5 c 128,-1,13
 99 -234 99 -234 99 -209 c 0,14,15
 99 -182 99 -182 114 -158 c 128,-1,16
 129 -134 129 -134 158 -134 c 2,17,-1
 550 -134 l 1,18,-1
 512 521 l 1,19,-1
 505 1395 l 1,20,-1
 146 1395 l 2,21,22
 132 1395 132 1395 123.5 1402.5 c 128,-1,23
 115 1410 115 1410 110 1421 c 128,-1,24
 105 1432 105 1432 103 1443.5 c 128,-1,25
 101 1455 101 1455 101 1464 c 0,26,27
 101 1476 101 1476 104.5 1489 c 128,-1,28
 108 1502 108 1502 115.5 1512.5 c 128,-1,29
 123 1523 123 1523 133.5 1529.5 c 128,-1,30
 144 1536 144 1536 159 1536 c 2,31,-1
 577 1536 l 2,32,33
 587 1536 587 1536 598 1532 c 128,-1,34
 609 1528 609 1528 618.5 1521 c 128,-1,35
 628 1514 628 1514 634.5 1504 c 128,-1,36
 641 1494 641 1494 643 1483 c 1,37,-1
 662 449 l 1,38,-1
 707 -192 l 1,39,-1
 707 -209 l 2,0,1
EndSplineSet
Validated: 1
EndChar

StartChar: asciicircum
Encoding: 94 94 65
Width: 1302
GlyphClass: 2
Flags: W
LayerCount: 2
Fore
SplineSet
1182 1016 m 1,0,-1
 1021 855 l 1,1,-1
 632 1339 l 1,2,-1
 253 845 l 1,3,-1
 92 986 l 1,4,-1
 636 1641 l 1,5,-1
 1182 1016 l 1,0,-1
EndSplineSet
Validated: 1
EndChar

StartChar: underscore
Encoding: 95 95 66
Width: 1129
GlyphClass: 2
Flags: W
LayerCount: 2
Fore
SplineSet
1140 28 m 1,0,-1
 -60 28 l 1,1,-1
 -24 209 l 1,2,-1
 1176 209 l 1,3,-1
 1140 28 l 1,0,-1
EndSplineSet
Validated: 1
EndChar

StartChar: grave
Encoding: 96 96 67
Width: 1302
GlyphClass: 2
Flags: W
LayerCount: 2
Fore
SplineSet
762 1302 m 5,0,-1
 642 1224 l 5,1,-1
 340 1676 l 5,2,-1
 486 1746 l 5,3,-1
 762 1302 l 5,0,-1
EndSplineSet
Validated: 1
EndChar

StartChar: a
Encoding: 97 97 68
Width: 1063
GlyphClass: 2
Flags: W
LayerCount: 2
Fore
SplineSet
3 481 m 0,0,1
 3 628 3 628 51 732.5 c 128,-1,2
 99 837 99 837 185 903 c 128,-1,3
 271 969 271 969 389.5 1000 c 128,-1,4
 508 1031 508 1031 650 1031 c 0,5,6
 661 1031 661 1031 689 1032 c 128,-1,7
 717 1033 717 1033 752.5 1031.5 c 128,-1,8
 788 1030 788 1030 826 1026 c 128,-1,9
 864 1022 864 1022 896 1011.5 c 128,-1,10
 928 1001 928 1001 949 983.5 c 128,-1,11
 970 966 970 966 971 939 c 2,12,-1
 992 429 l 2,13,14
 993 385 993 385 1004.5 340.5 c 128,-1,15
 1016 296 1016 296 1029 252 c 128,-1,16
 1042 208 1042 208 1052.5 164.5 c 128,-1,17
 1063 121 1063 121 1063 80 c 0,18,19
 1063 37 1063 37 1037.5 7 c 128,-1,20
 1012 -23 1012 -23 967 -23 c 0,21,22
 925 -23 925 -23 902 -3 c 128,-1,23
 879 17 879 17 865.5 46 c 128,-1,24
 852 75 852 75 842 108 c 128,-1,25
 832 141 832 141 815 168 c 1,26,27
 770 130 770 130 724.5 95 c 128,-1,28
 679 60 679 60 629.5 34 c 128,-1,29
 580 8 580 8 525.5 -7.5 c 128,-1,30
 471 -23 471 -23 409 -23 c 0,31,32
 295 -23 295 -23 217.5 19 c 128,-1,33
 140 61 140 61 92.5 131 c 128,-1,34
 45 201 45 201 24 292 c 128,-1,35
 3 383 3 383 3 481 c 0,0,1
208 477 m 0,36,37
 208 428 208 428 215 376 c 128,-1,38
 222 324 222 324 243 281 c 128,-1,39
 264 238 264 238 303 210 c 128,-1,40
 342 182 342 182 406 182 c 0,41,42
 460 182 460 182 515.5 206 c 128,-1,43
 571 230 571 230 617 269.5 c 128,-1,44
 663 309 663 309 696 360 c 128,-1,45
 729 411 729 411 738 465 c 1,46,47
 740 502 740 502 743 529 c 128,-1,48
 746 556 746 556 748 577.5 c 128,-1,49
 750 599 750 599 752 617.5 c 128,-1,50
 754 636 754 636 755.5 657 c 128,-1,51
 757 678 757 678 758 703 c 128,-1,52
 759 728 759 728 759 762 c 2,53,-1
 759 819 l 1,54,55
 735 827 735 827 710.5 826.5 c 128,-1,56
 686 826 686 826 660 826 c 0,57,58
 561 826 561 826 478 811.5 c 128,-1,59
 395 797 395 797 335 758 c 128,-1,60
 275 719 275 719 241.5 651 c 128,-1,61
 208 583 208 583 208 477 c 0,36,37
EndSplineSet
Validated: 1
EndChar

StartChar: b
Encoding: 98 98 69
Width: 1132
GlyphClass: 2
Flags: W
LayerCount: 2
Fore
SplineSet
8 86 m 1,0,-1
 72 438 l 2,1,2
 73 449 73 449 77.5 491 c 128,-1,3
 82 533 82 533 87.5 594 c 128,-1,4
 93 655 93 655 99.5 727.5 c 128,-1,5
 106 800 106 800 112 870.5 c 128,-1,6
 118 941 118 941 122.5 1003 c 128,-1,7
 127 1065 127 1065 130 1105 c 0,8,9
 131 1123 131 1123 132 1160 c 128,-1,10
 133 1197 133 1197 134.5 1244 c 128,-1,11
 136 1291 136 1291 137.5 1342.5 c 128,-1,12
 139 1394 139 1394 140 1441 c 128,-1,13
 141 1488 141 1488 142 1524.5 c 128,-1,14
 143 1561 143 1561 143 1579 c 1,15,16
 152 1613 152 1613 176 1634.5 c 128,-1,17
 200 1656 200 1656 236 1656 c 0,18,19
 265 1656 265 1656 288.5 1638.5 c 128,-1,20
 312 1621 312 1621 322 1592 c 1,21,-1
 322 1397 l 2,22,23
 322 1322 322 1322 319 1261.5 c 128,-1,24
 316 1201 316 1201 312.5 1143.5 c 128,-1,25
 309 1086 309 1086 306 1025.5 c 128,-1,26
 303 965 303 965 303 890 c 1,27,-1
 598 913 l 1,28,29
 665 913 665 913 730 890 c 128,-1,30
 795 867 795 867 853 826 c 128,-1,31
 911 785 911 785 959.5 730 c 128,-1,32
 1008 675 1008 675 1043 611 c 128,-1,33
 1078 547 1078 547 1098 476.5 c 128,-1,34
 1118 406 1118 406 1118 336 c 0,35,36
 1118 255 1118 255 1092.5 191 c 128,-1,37
 1067 127 1067 127 1020.5 82.5 c 128,-1,38
 974 38 974 38 908.5 14 c 128,-1,39
 843 -10 843 -10 762 -10 c 0,40,41
 616 -10 616 -10 480.5 16.5 c 128,-1,42
 345 43 345 43 220 108 c 1,43,44
 209 83 209 83 203 60.5 c 128,-1,45
 197 38 197 38 186.5 20.5 c 128,-1,46
 176 3 176 3 157 -7 c 128,-1,47
 138 -17 138 -17 101 -17 c 0,48,49
 63 -17 63 -17 35.5 7 c 128,-1,50
 8 31 8 31 8 73 c 2,51,-1
 8 86 l 1,0,-1
258 336 m 2,52,53
 258 311 258 311 288 289.5 c 128,-1,54
 318 268 318 268 365.5 250 c 128,-1,55
 413 232 413 232 470.5 218 c 128,-1,56
 528 204 528 204 583.5 194.5 c 128,-1,57
 639 185 639 185 685 180 c 128,-1,58
 731 175 731 175 755 175 c 0,59,60
 842 175 842 175 883.5 212.5 c 128,-1,61
 925 250 925 250 925 339 c 0,62,63
 925 429 925 429 883 501 c 128,-1,64
 841 573 841 573 776 623 c 128,-1,65
 711 673 711 673 633 700 c 128,-1,66
 555 727 555 727 483 727 c 0,67,68
 454 727 454 727 431.5 723 c 128,-1,69
 409 719 409 719 387 714 c 128,-1,70
 365 709 365 709 340.5 702.5 c 128,-1,71
 316 696 316 696 284 692 c 1,72,73
 283 685 283 685 281 659.5 c 128,-1,74
 279 634 279 634 276.5 599 c 128,-1,75
 274 564 274 564 271 525 c 128,-1,76
 268 486 268 486 265.5 451 c 128,-1,77
 263 416 263 416 261 390.5 c 128,-1,78
 259 365 259 365 258 358 c 1,79,-1
 258 336 l 2,52,53
EndSplineSet
Validated: 1
EndChar

StartChar: c
Encoding: 99 99 70
Width: 1022
GlyphClass: 2
Flags: W
LayerCount: 2
Fore
SplineSet
38 550 m 0,0,1
 38 657 38 657 68.5 744 c 128,-1,2
 99 831 99 831 157.5 893 c 128,-1,3
 216 955 216 955 301 988.5 c 128,-1,4
 386 1022 386 1022 496 1022 c 0,5,6
 608 1022 608 1022 715 998 c 128,-1,7
 822 974 822 974 925 936 c 1,8,9
 990 903 990 903 990 831 c 0,10,11
 990 787 990 787 960 760.5 c 128,-1,12
 930 734 930 734 889 734 c 0,13,14
 840 734 840 734 792.5 745 c 128,-1,15
 745 756 745 756 697.5 769.5 c 128,-1,16
 650 783 650 783 601.5 794.5 c 128,-1,17
 553 806 553 806 503 806 c 0,18,19
 376 806 376 806 311.5 746 c 128,-1,20
 247 686 247 686 247 553 c 0,21,22
 247 484 247 484 262 420 c 128,-1,23
 277 356 277 356 310.5 307.5 c 128,-1,24
 344 259 344 259 398 229.5 c 128,-1,25
 452 200 452 200 529 200 c 0,26,27
 581 200 581 200 627.5 219 c 128,-1,28
 674 238 674 238 717.5 261 c 128,-1,29
 761 284 761 284 804 303 c 128,-1,30
 847 322 847 322 893 322 c 0,31,32
 937 322 937 322 967.5 296.5 c 128,-1,33
 998 271 998 271 998 225 c 0,34,35
 998 182 998 182 972 147 c 128,-1,36
 946 112 946 112 904.5 85 c 128,-1,37
 863 58 863 58 810.5 39 c 128,-1,38
 758 20 758 20 705.5 7.5 c 128,-1,39
 653 -5 653 -5 605 -11 c 128,-1,40
 557 -17 557 -17 525 -17 c 0,41,42
 403 -17 403 -17 311.5 29.5 c 128,-1,43
 220 76 220 76 159.5 154 c 128,-1,44
 99 232 99 232 68.5 334.5 c 128,-1,45
 38 437 38 437 38 550 c 0,0,1
EndSplineSet
Validated: 1
EndChar

StartChar: d
Encoding: 100 100 71
Width: 1100
GlyphClass: 2
Flags: W
LayerCount: 2
Fore
SplineSet
748 54 m 4,0,1
 720 54 720 54 691.5 48 c 132,-1,2
 663 42 663 42 634.5 35.5 c 132,-1,3
 606 29 606 29 577 23 c 132,-1,4
 548 17 548 17 519 17 c 4,5,6
 410 17 410 17 322 54 c 132,-1,7
 234 91 234 91 172.5 157 c 132,-1,8
 111 223 111 223 78 313 c 132,-1,9
 45 403 45 403 45 509 c 4,10,11
 45 612 45 612 81 693 c 132,-1,12
 117 774 117 774 180.5 830 c 132,-1,13
 244 886 244 886 331 915.5 c 132,-1,14
 418 945 418 945 519 945 c 4,15,16
 562 945 562 945 604.5 935.5 c 132,-1,17
 647 926 647 926 689.5 914 c 132,-1,18
 732 902 732 902 773.5 892.5 c 132,-1,19
 815 883 815 883 856 883 c 6,20,-1
 862 883 l 5,21,-1
 887 1527 l 6,22,23
 887 1542 887 1542 896 1553.5 c 132,-1,24
 905 1565 905 1565 918 1573 c 132,-1,25
 931 1581 931 1581 946 1585 c 132,-1,26
 961 1589 961 1589 974 1589 c 4,27,28
 986 1589 986 1589 1001 1584 c 132,-1,29
 1016 1579 1016 1579 1029.5 1570 c 132,-1,30
 1043 1561 1043 1561 1052 1548.5 c 132,-1,31
 1061 1536 1061 1536 1061 1521 c 6,32,-1
 1061 1273 l 5,33,-1
 1023 617 l 6,34,35
 1022 610 1022 610 1019 583.5 c 132,-1,36
 1016 557 1016 557 1011 520 c 132,-1,37
 1006 483 1006 483 1000 438.5 c 132,-1,38
 994 394 994 394 988 351 c 132,-1,39
 982 308 982 308 977 270.5 c 132,-1,40
 972 233 972 233 968 209 c 4,41,42
 967 200 967 200 962 175 c 132,-1,43
 957 150 957 150 951 122 c 132,-1,44
 945 94 945 94 939 69.5 c 132,-1,45
 933 45 933 45 931 36 c 4,46,47
 921 3 921 3 896 -11.5 c 132,-1,48
 871 -26 871 -26 841 -26 c 4,49,50
 822 -26 822 -26 807.5 -13.5 c 132,-1,51
 793 -1 793 -1 781.5 14 c 132,-1,52
 770 29 770 29 762 41.5 c 132,-1,53
 754 54 754 54 748 54 c 4,0,1
224 506 m 260,54,55
 224 437 224 437 244.5 381.5 c 132,-1,56
 265 326 265 326 303 286 c 132,-1,57
 341 246 341 246 395.5 224.5 c 132,-1,58
 450 203 450 203 519 203 c 4,59,60
 537 203 537 203 564 205 c 132,-1,61
 591 207 591 207 621 211.5 c 132,-1,62
 651 216 651 216 681.5 224 c 132,-1,63
 712 232 712 232 737.5 244 c 132,-1,64
 763 256 763 256 780 273.5 c 132,-1,65
 797 291 797 291 800 314 c 6,66,-1
 844 654 l 5,67,-1
 844 660 l 6,68,69
 844 682 844 682 824.5 697.5 c 132,-1,70
 805 713 805 713 774.5 724 c 132,-1,71
 744 735 744 735 706.5 742 c 132,-1,72
 669 749 669 749 633.5 752.5 c 132,-1,73
 598 756 598 756 569 757.5 c 132,-1,74
 540 759 540 759 525 759 c 4,75,76
 462 759 462 759 407.5 745.5 c 132,-1,77
 353 732 353 732 312 702 c 132,-1,78
 271 672 271 672 247.5 623.5 c 132,-1,79
 224 575 224 575 224 506 c 260,54,55
EndSplineSet
Validated: 1
EndChar

StartChar: e
Encoding: 101 101 72
Width: 1007
GlyphClass: 2
Flags: W
LayerCount: 2
Fore
SplineSet
40 520 m 0,0,1
 40 623 40 623 84 711.5 c 128,-1,2
 128 800 128 800 203 865 c 128,-1,3
 278 930 278 930 376.5 967.5 c 128,-1,4
 475 1005 475 1005 583 1005 c 0,5,6
 658 1005 658 1005 732 987.5 c 128,-1,7
 806 970 806 970 865 930 c 128,-1,8
 924 890 924 890 960.5 825 c 128,-1,9
 997 760 997 760 997 666 c 0,10,11
 997 619 997 619 979 582 c 128,-1,12
 961 545 961 545 931 517 c 128,-1,13
 901 489 901 489 862 469.5 c 128,-1,14
 823 450 823 450 780 437 c 128,-1,15
 737 424 737 424 693 417 c 128,-1,16
 649 410 649 410 610 408 c 2,17,-1
 250 388 l 1,18,-1
 250 384 l 2,19,20
 250 334 250 334 274 298 c 128,-1,21
 298 262 298 262 335 238 c 128,-1,22
 372 214 372 214 416 202.5 c 128,-1,23
 460 191 460 191 501 191 c 0,24,25
 551 191 551 191 594.5 209 c 128,-1,26
 638 227 638 227 679 248.5 c 128,-1,27
 720 270 720 270 760.5 288 c 128,-1,28
 801 306 801 306 844 306 c 0,29,30
 885 306 885 306 914 282.5 c 128,-1,31
 943 259 943 259 943 215 c 0,32,33
 943 174 943 174 918.5 141.5 c 128,-1,34
 894 109 894 109 855 83.5 c 128,-1,35
 816 58 816 58 766.5 40 c 128,-1,36
 717 22 717 22 668 10.5 c 128,-1,37
 619 -1 619 -1 574 -6.5 c 128,-1,38
 529 -12 529 -12 498 -12 c 0,39,40
 383 -12 383 -12 297 31.5 c 128,-1,41
 211 75 211 75 154 148.5 c 128,-1,42
 97 222 97 222 68.5 318.5 c 128,-1,43
 40 415 40 415 40 520 c 0,0,1
585 809 m 0,44,45
 552 809 552 809 513.5 802.5 c 128,-1,46
 475 796 475 796 437 783.5 c 128,-1,47
 399 771 399 771 363 752.5 c 128,-1,48
 327 734 327 734 300 709.5 c 128,-1,49
 273 685 273 685 256.5 655.5 c 128,-1,50
 240 626 240 626 240 591 c 1,51,52
 255 591 255 591 302.5 592.5 c 128,-1,53
 350 594 350 594 412.5 597.5 c 128,-1,54
 475 601 475 601 543 606.5 c 128,-1,55
 611 612 611 612 668.5 620.5 c 128,-1,56
 726 629 726 629 763 640 c 128,-1,57
 800 651 800 651 800 666 c 0,58,59
 800 709 800 709 776.5 737 c 128,-1,60
 753 765 753 765 719.5 781 c 128,-1,61
 686 797 686 797 649 803 c 128,-1,62
 612 809 612 809 585 809 c 0,44,45
EndSplineSet
Validated: 1
EndChar

StartChar: f
Encoding: 102 102 73
Width: 729
GlyphClass: 2
Flags: W
LayerCount: 2
Fore
SplineSet
77 96 m 1,0,1
 116 234 116 234 139 377.5 c 128,-1,2
 162 521 162 521 176 665 c 0,3,4
 176 667 176 667 177.5 672.5 c 128,-1,5
 179 678 179 678 179 680 c 0,6,7
 179 692 179 692 166.5 701.5 c 128,-1,8
 154 711 154 711 139.5 722 c 128,-1,9
 125 733 125 733 112.5 747.5 c 128,-1,10
 100 762 100 762 100 784 c 0,11,12
 100 824 100 824 125 845.5 c 128,-1,13
 150 867 150 867 188 869 c 1,14,-1
 199 1339 l 2,15,16
 200 1389 200 1389 223 1431 c 128,-1,17
 246 1473 246 1473 282.5 1503 c 128,-1,18
 319 1533 319 1533 365 1549.5 c 128,-1,19
 411 1566 411 1566 458 1566 c 0,20,21
 508 1566 508 1566 563 1547.5 c 128,-1,22
 618 1529 618 1529 663.5 1496 c 128,-1,23
 709 1463 709 1463 739 1416.5 c 128,-1,24
 769 1370 769 1370 769 1313 c 0,25,26
 769 1276 769 1276 748 1255.5 c 128,-1,27
 727 1235 727 1235 690 1235 c 0,28,29
 664 1235 664 1235 645.5 1246.5 c 128,-1,30
 627 1258 627 1258 612 1275.5 c 128,-1,31
 597 1293 597 1293 583.5 1313.5 c 128,-1,32
 570 1334 570 1334 553.5 1351.5 c 128,-1,33
 537 1369 537 1369 515.5 1380.5 c 128,-1,34
 494 1392 494 1392 464 1392 c 0,35,36
 422 1392 422 1392 396 1373.5 c 128,-1,37
 370 1355 370 1355 368 1310 c 0,38,39
 368 1294 368 1294 367.5 1261.5 c 128,-1,40
 367 1229 367 1229 366.5 1188 c 128,-1,41
 366 1147 366 1147 365 1101.5 c 128,-1,42
 364 1056 364 1056 363.5 1015 c 128,-1,43
 363 974 363 974 362.5 941 c 128,-1,44
 362 908 362 908 362 892 c 2,45,-1
 362 866 l 1,46,-1
 511 866 l 2,47,48
 522 866 522 866 531.5 857 c 128,-1,49
 541 848 541 848 548 835 c 128,-1,50
 555 822 555 822 559 808 c 128,-1,51
 563 794 563 794 563 784 c 0,52,53
 563 772 563 772 559 757 c 128,-1,54
 555 742 555 742 547 728.5 c 128,-1,55
 539 715 539 715 526.5 706 c 128,-1,56
 514 697 514 697 498 697 c 2,57,-1
 350 697 l 1,58,59
 349 683 349 683 345.5 654 c 128,-1,60
 342 625 342 625 337.5 588 c 128,-1,61
 333 551 333 551 328 510 c 128,-1,62
 323 469 323 469 318.5 432 c 128,-1,63
 314 395 314 395 310 365.5 c 128,-1,64
 306 336 306 336 304 322 c 0,65,66
 302 310 302 310 299 281.5 c 128,-1,67
 296 253 296 253 290.5 217.5 c 128,-1,68
 285 182 285 182 276 144 c 128,-1,69
 267 106 267 106 251.5 74.5 c 128,-1,70
 236 43 236 43 214 23 c 128,-1,71
 192 3 192 3 161 3 c 0,72,73
 126 3 126 3 101.5 25 c 128,-1,74
 77 47 77 47 77 84 c 2,75,-1
 77 96 l 1,0,1
EndSplineSet
Validated: 1
EndChar

StartChar: g
Encoding: 103 103 74
Width: 1224
GlyphClass: 2
Flags: W
LayerCount: 2
Fore
SplineSet
152 -129 m 0,0,1
 152 -125 152 -125 152 -117.5 c 128,-1,2
 152 -110 152 -110 152 -101.5 c 128,-1,3
 152 -93 152 -93 152 -85.5 c 128,-1,4
 152 -78 152 -78 152 -75 c 0,5,6
 160 -49 160 -49 187.5 -32 c 128,-1,7
 215 -15 215 -15 241 -15 c 0,8,9
 282 -15 282 -15 304.5 -28.5 c 128,-1,10
 327 -42 327 -42 343 -62 c 128,-1,11
 359 -82 359 -82 375 -105.5 c 128,-1,12
 391 -129 391 -129 419 -149 c 0,13,14
 448 -170 448 -170 494 -182 c 0,15,16
 534 -193 534 -193 596 -193 c 0,17,18
 601 -193 601 -193 606 -193 c 0,19,20
 612 -193 612 -193 617 -193 c 0,21,22
 642 -193 642 -193 673 -192.5 c 128,-1,23
 704 -192 704 -192 736 -186.5 c 128,-1,24
 768 -181 768 -181 798 -169.5 c 128,-1,25
 828 -158 828 -158 849 -136 c 0,26,27
 870 -114 870 -114 880 -78 c 0,28,29
 886 -57 886 -57 886 -30 c 0,30,31
 886 -11 886 -11 883 10 c 1,32,33
 818 14 818 14 739 22.5 c 128,-1,34
 660 31 660 31 580 49.5 c 128,-1,35
 500 68 500 68 424.5 99 c 128,-1,36
 349 130 349 130 289.5 178.5 c 128,-1,37
 230 227 230 227 193 294.5 c 128,-1,38
 156 362 156 362 154 455 c 0,39,40
 154 468 154 468 154 481 c 0,41,42
 154 608 154 608 189 696 c 0,43,44
 228 793 228 793 294.5 854 c 128,-1,45
 361 915 361 915 446.5 946.5 c 128,-1,46
 532 978 532 978 621.5 991 c 128,-1,47
 711 1004 711 1004 796.5 1005 c 128,-1,48
 882 1006 882 1006 947 1006 c 2,49,-1
 1031 1006 l 1,50,51
 1038 1002 1038 1002 1050 996.5 c 128,-1,52
 1062 991 1062 991 1073 983.5 c 128,-1,53
 1084 976 1084 976 1092 967 c 128,-1,54
 1100 958 1100 958 1100 947 c 2,55,-1
 1067 -74 l 1,56,57
 1067 -137 1067 -137 1046.5 -185.5 c 128,-1,58
 1026 -234 1026 -234 991.5 -270.5 c 128,-1,59
 957 -307 957 -307 911 -331.5 c 128,-1,60
 865 -356 865 -356 814 -371.5 c 128,-1,61
 763 -387 763 -387 709.5 -393.5 c 128,-1,62
 656 -400 656 -400 607 -400 c 0,63,64
 521 -400 521 -400 442 -378 c 128,-1,65
 363 -356 363 -356 300.5 -319 c 128,-1,66
 238 -282 238 -282 198.5 -232.5 c 128,-1,67
 159 -183 159 -183 152 -129 c 0,0,1
361 455 m 0,68,69
 365 404 365 404 396 366.5 c 128,-1,70
 427 329 427 329 473.5 303.5 c 128,-1,71
 520 278 520 278 577 262 c 128,-1,72
 634 246 634 246 690.5 237.5 c 128,-1,73
 747 229 747 229 797 226 c 128,-1,74
 847 223 847 223 881 223 c 1,75,-1
 881 248 l 1,76,77
 880 263 880 263 880.5 305.5 c 128,-1,78
 881 348 881 348 883 404 c 128,-1,79
 885 460 885 460 887 523 c 128,-1,80
 889 586 889 586 891 642.5 c 128,-1,81
 893 699 893 699 893.5 741.5 c 128,-1,82
 894 784 894 784 893 799 c 1,83,-1
 878 799 l 2,84,85
 850 800 850 800 798 802 c 0,86,87
 781 803 781 803 763 802 c 0,88,89
 727 802 727 802 687 799 c 0,90,91
 627 794 627 794 565.5 777.5 c 128,-1,92
 504 761 504 761 456 723 c 128,-1,93
 408 685 408 685 380 620 c 0,94,95
 359 570 359 570 359 498 c 0,96,97
 359 478 359 478 361 455 c 0,68,69
EndSplineSet
Validated: 1
EndChar

StartChar: h
Encoding: 104 104 75
Width: 963
GlyphClass: 2
Flags: W
LayerCount: 2
Fore
SplineSet
67 113 m 1,0,-1
 137 556 l 1,1,-1
 191 1538 l 2,2,3
 194 1575 194 1575 219.5 1592 c 128,-1,4
 245 1609 245 1609 275 1609 c 256,5,6
 305 1609 305 1609 331.5 1599 c 128,-1,7
 358 1589 358 1589 367 1556 c 1,8,-1
 367 1375 l 2,9,10
 367 1304 367 1304 364.5 1241 c 128,-1,11
 362 1178 362 1178 359 1117.5 c 128,-1,12
 356 1057 356 1057 353.5 994 c 128,-1,13
 351 931 351 931 351 860 c 2,14,-1
 351 834 l 1,15,16
 376 857 376 857 405 886 c 128,-1,17
 434 915 434 915 467 940.5 c 128,-1,18
 500 966 500 966 536.5 983 c 128,-1,19
 573 1000 573 1000 611 1000 c 0,20,21
 680 1000 680 1000 728 966 c 128,-1,22
 776 932 776 932 808 877.5 c 128,-1,23
 840 823 840 823 858.5 754 c 128,-1,24
 877 685 877 685 886 614.5 c 128,-1,25
 895 544 895 544 897.5 478.5 c 128,-1,26
 900 413 900 413 900 366 c 0,27,28
 900 346 900 346 903 309.5 c 128,-1,29
 906 273 906 273 907 230 c 0,30,31
 907 219 907 219 907 208 c 0,32,33
 907 176 907 176 905 143 c 0,34,35
 902 99 902 99 891 62.5 c 128,-1,36
 880 26 880 26 857.5 3 c 128,-1,37
 835 -20 835 -20 798 -20 c 0,38,39
 754 -20 754 -20 729 9 c 128,-1,40
 704 38 704 38 704 82 c 0,41,42
 704 148 704 148 708.5 214 c 128,-1,43
 713 280 713 280 713 348 c 0,44,45
 713 376 713 376 714 414 c 0,46,47
 714 433 714 433 714 453.5 c 128,-1,48
 714 474 714 474 714 495 c 0,49,50
 713 538 713 538 709 582.5 c 128,-1,51
 705 627 705 627 695 667 c 128,-1,52
 685 707 685 707 668 740 c 128,-1,53
 651 773 651 773 625 793 c 1,54,55
 563 776 563 776 513.5 729 c 128,-1,56
 464 682 464 682 425 616.5 c 128,-1,57
 386 551 386 551 356 473.5 c 128,-1,58
 326 396 326 396 304.5 319 c 128,-1,59
 283 242 283 242 268 172 c 128,-1,60
 253 102 253 102 243 51 c 1,61,62
 234 21 234 21 209 0.5 c 128,-1,63
 184 -20 184 -20 151 -20 c 0,64,65
 107 -20 107 -20 87 6.5 c 128,-1,66
 67 33 67 33 67 73 c 2,67,-1
 67 113 l 1,0,-1
EndSplineSet
Validated: 1
EndChar

StartChar: i
Encoding: 105 105 76
Width: 522
GlyphClass: 2
Flags: W
LayerCount: 2
Fore
SplineSet
343 990 m 4,0,1
 415 990 415 990 431 940 c 5,2,-1
 431 690 l 6,3,4
 431 166 431 166 318 40 c 4,5,6
 295 14 295 14 271 14 c 132,-1,7
 247 14 247 14 228.5 20 c 132,-1,8
 210 26 210 26 195 38 c 4,9,10
 171 57 171 57 171 85 c 4,11,12
 171 96 171 96 175 109 c 4,13,14
 255 393 255 393 264 924 c 5,15,16
 273 958 273 958 290.5 974 c 132,-1,17
 308 990 308 990 343 990 c 4,0,1
216 1249 m 0,18,19
 216 1274 216 1274 228 1302.5 c 128,-1,20
 240 1331 240 1331 259.5 1354.5 c 128,-1,21
 279 1378 279 1378 304.5 1393.5 c 128,-1,22
 330 1409 330 1409 358 1409 c 0,23,24
 382 1409 382 1409 407 1394.5 c 128,-1,25
 432 1380 432 1380 452.5 1357.5 c 128,-1,26
 473 1335 473 1335 486 1309 c 128,-1,27
 499 1283 499 1283 499 1259 c 256,28,29
 499 1235 499 1235 487 1210 c 128,-1,30
 475 1185 475 1185 456 1164.5 c 128,-1,31
 437 1144 437 1144 413.5 1131 c 128,-1,32
 390 1118 390 1118 368 1118 c 0,33,34
 344 1118 344 1118 317 1129.5 c 128,-1,35
 290 1141 290 1141 267.5 1159.5 c 128,-1,36
 245 1178 245 1178 230.5 1201.5 c 128,-1,37
 216 1225 216 1225 216 1249 c 0,18,19
EndSplineSet
Validated: 1
EndChar

StartChar: j
Encoding: 106 106 77
Width: 473
GlyphClass: 2
Flags: W
LayerCount: 2
Fore
SplineSet
166 1249 m 0,0,1
 166 1274 166 1274 178 1302.5 c 128,-1,2
 190 1331 190 1331 209.5 1354.5 c 128,-1,3
 229 1378 229 1378 254.5 1393.5 c 128,-1,4
 280 1409 280 1409 308 1409 c 0,5,6
 332 1409 332 1409 357 1394.5 c 128,-1,7
 382 1380 382 1380 402.5 1357.5 c 128,-1,8
 423 1335 423 1335 436 1309 c 128,-1,9
 449 1283 449 1283 449 1259 c 256,10,11
 449 1235 449 1235 437 1210 c 128,-1,12
 425 1185 425 1185 406 1164.5 c 128,-1,13
 387 1144 387 1144 363.5 1131 c 128,-1,14
 340 1118 340 1118 318 1118 c 0,15,16
 294 1118 294 1118 267 1129.5 c 128,-1,17
 240 1141 240 1141 217.5 1159.5 c 128,-1,18
 195 1178 195 1178 180.5 1201.5 c 128,-1,19
 166 1225 166 1225 166 1249 c 0,0,1
-228 -225 m 0,20,21
 -228 -192 -228 -192 -211.5 -168.5 c 128,-1,22
 -195 -145 -195 -145 -156 -145 c 0,23,24
 -129 -145 -129 -145 -108 -159 c 128,-1,25
 -87 -173 -87 -173 -67.5 -189.5 c 128,-1,26
 -48 -206 -48 -206 -27 -219.5 c 128,-1,27
 -6 -233 -6 -233 21 -233 c 0,28,29
 45 -233 45 -233 64 -217.5 c 128,-1,30
 83 -202 83 -202 98 -177 c 128,-1,31
 113 -152 113 -152 124.5 -121 c 128,-1,32
 136 -90 136 -90 144 -60 c 128,-1,33
 152 -30 152 -30 157 -3.5 c 128,-1,34
 162 23 162 23 165 39 c 0,35,36
 168 56 168 56 172 82 c 128,-1,37
 176 108 176 108 180.5 138 c 128,-1,38
 185 168 185 168 189.5 198.5 c 128,-1,39
 194 229 194 229 197.5 254.5 c 128,-1,40
 201 280 201 280 203 297.5 c 128,-1,41
 205 315 205 315 205 319 c 2,42,-1
 229 895 l 1,43,44
 229 928 229 928 253.5 943.5 c 128,-1,45
 278 959 278 959 306 959 c 0,46,47
 333 959 333 959 357 950 c 128,-1,48
 381 941 381 941 390 911 c 1,49,-1
 390 739 l 2,50,51
 390 708 390 708 390 643 c 0,52,53
 390 634 390 634 391 624 c 0,54,55
 391 566 391 566 388 492 c 0,56,57
 385 406 385 406 377 306.5 c 128,-1,58
 369 207 369 207 353 107.5 c 128,-1,59
 337 8 337 8 311 -83.5 c 128,-1,60
 285 -175 285 -175 246 -245.5 c 128,-1,61
 207 -316 207 -316 152.5 -358.5 c 128,-1,62
 98 -401 98 -401 25 -401 c 0,63,64
 -8 -401 -8 -401 -51.5 -388 c 128,-1,65
 -95 -375 -95 -375 -134.5 -352 c 128,-1,66
 -174 -329 -174 -329 -201 -296.5 c 128,-1,67
 -228 -264 -228 -264 -228 -225 c 0,20,21
EndSplineSet
Validated: 1
EndChar

StartChar: k
Encoding: 107 107 78
Width: 935
GlyphClass: 2
Flags: W
LayerCount: 2
Fore
SplineSet
695 36 m 1,0,1
 675 75 675 75 650.5 117.5 c 128,-1,2
 626 160 626 160 597 200.5 c 128,-1,3
 568 241 568 241 534 277.5 c 128,-1,4
 500 314 500 314 460.5 341.5 c 128,-1,5
 421 369 421 369 375.5 385.5 c 128,-1,6
 330 402 330 402 279 402 c 2,7,-1
 275 402 l 1,8,9
 271 388 271 388 267.5 353.5 c 128,-1,10
 264 319 264 319 259 276.5 c 128,-1,11
 254 234 254 234 245.5 188 c 128,-1,12
 237 142 237 142 221 104 c 128,-1,13
 205 66 205 66 180.5 41.5 c 128,-1,14
 156 17 156 17 119 17 c 0,15,16
 75 17 75 17 54.5 46 c 128,-1,17
 34 75 34 75 34 116 c 2,18,-1
 34 151 l 1,19,-1
 97 509 l 2,20,21
 99 519 99 519 103 560.5 c 128,-1,22
 107 602 107 602 112 662 c 128,-1,23
 117 722 117 722 123 794 c 128,-1,24
 129 866 129 866 134 936 c 128,-1,25
 139 1006 139 1006 143 1068 c 128,-1,26
 147 1130 147 1130 149 1170 c 0,27,28
 150 1185 150 1185 151.5 1217 c 128,-1,29
 153 1249 153 1249 154 1289.5 c 128,-1,30
 155 1330 155 1330 156 1374.5 c 128,-1,31
 157 1419 157 1419 157.5 1459.5 c 128,-1,32
 158 1500 158 1500 158.5 1532 c 128,-1,33
 159 1564 159 1564 159 1580 c 1,34,35
 157 1599 157 1599 164 1613.5 c 128,-1,36
 171 1628 171 1628 183 1638.5 c 128,-1,37
 195 1649 195 1649 211 1654.5 c 128,-1,38
 227 1660 227 1660 244 1660 c 0,39,40
 274 1660 274 1660 300.5 1650.5 c 128,-1,41
 327 1641 327 1641 337 1607 c 1,42,-1
 337 1393 l 2,43,44
 337 1307 337 1307 333 1221 c 128,-1,45
 329 1135 329 1135 324 1049 c 128,-1,46
 319 963 319 963 315 877 c 128,-1,47
 311 791 311 791 311 706 c 2,48,-1
 311 669 l 1,49,50
 343 691 343 691 380.5 721 c 128,-1,51
 418 751 418 751 457 784.5 c 128,-1,52
 496 818 496 818 534.5 853 c 128,-1,53
 573 888 573 888 608 920.5 c 128,-1,54
 643 953 643 953 672 980.5 c 128,-1,55
 701 1008 701 1008 721 1027 c 1,56,57
 732 1044 732 1044 749 1044 c 128,-1,58
 766 1044 766 1044 780 1044 c 0,59,60
 823 1044 823 1044 848 1024 c 128,-1,61
 873 1004 873 1004 873 960 c 0,62,63
 873 940 873 940 871 928.5 c 128,-1,64
 869 917 869 917 856 901 c 1,65,66
 848 894 848 894 819.5 869 c 128,-1,67
 791 844 791 844 751.5 809.5 c 128,-1,68
 712 775 712 775 667 735 c 128,-1,69
 622 695 622 695 581 658 c 128,-1,70
 540 621 540 621 508 590.5 c 128,-1,71
 476 560 476 560 463 544 c 1,72,73
 535 506 535 506 592 462.5 c 128,-1,74
 649 419 649 419 695.5 368 c 128,-1,75
 742 317 742 317 781 257 c 128,-1,76
 820 197 820 197 856 125 c 1,77,-1
 856 89 l 2,78,79
 856 49 856 49 835 24 c 128,-1,80
 814 -1 814 -1 771 -1 c 0,81,82
 747 -1 747 -1 728 5.5 c 128,-1,83
 709 12 709 12 695 36 c 1,0,1
EndSplineSet
Validated: 1
EndChar

StartChar: l
Encoding: 108 108 79
Width: 486
GlyphClass: 2
Flags: W
LayerCount: 2
Fore
SplineSet
102 94 m 5,0,-1
 162 431 l 6,1,2
 163 440 163 440 167 479.5 c 132,-1,3
 171 519 171 519 176.5 575.5 c 132,-1,4
 182 632 182 632 188 700 c 132,-1,5
 194 768 194 768 199.5 833.5 c 132,-1,6
 205 899 205 899 209.5 957 c 132,-1,7
 214 1015 214 1015 216 1053 c 4,8,9
 217 1069 217 1069 218 1106.5 c 132,-1,10
 219 1144 219 1144 220.5 1192.5 c 132,-1,11
 222 1241 222 1241 223 1294.5 c 132,-1,12
 224 1348 224 1348 225.5 1396.5 c 132,-1,13
 227 1445 227 1445 227.5 1482.5 c 132,-1,14
 228 1520 228 1520 228 1536 c 5,15,16
 237 1568 237 1568 259 1588 c 132,-1,17
 281 1608 281 1608 315 1608 c 4,18,19
 326 1608 326 1608 340 1603.5 c 132,-1,20
 354 1599 354 1599 366 1591.5 c 132,-1,21
 378 1584 378 1584 386.5 1572.5 c 132,-1,22
 395 1561 395 1561 395 1548 c 6,23,-1
 395 1142 l 5,24,-1
 353 544 l 5,25,-1
 294 148 l 6,26,27
 291 124 291 124 285.5 97.5 c 132,-1,28
 280 71 280 71 268.5 49 c 132,-1,29
 257 27 257 27 238 13 c 132,-1,30
 219 -1 219 -1 189 -1 c 4,31,32
 153 -1 153 -1 127.5 22 c 132,-1,33
 102 45 102 45 102 83 c 6,34,-1
 102 94 l 5,0,-1
EndSplineSet
Validated: 1
EndChar

StartChar: m
Encoding: 109 109 80
Width: 1650
GlyphClass: 2
Flags: W
LayerCount: 2
Fore
SplineSet
660 119 m 1,0,1
 672 186 672 186 682.5 237 c 128,-1,2
 693 288 693 288 700.5 335 c 128,-1,3
 708 382 708 382 712 431.5 c 128,-1,4
 716 481 716 481 716 547 c 0,5,6
 716 563 716 563 717 591.5 c 128,-1,7
 718 620 718 620 716.5 654 c 128,-1,8
 715 688 715 688 710 723 c 128,-1,9
 705 758 705 758 693.5 786.5 c 128,-1,10
 682 815 682 815 663 833 c 128,-1,11
 644 851 644 851 614 851 c 0,12,13
 575 851 575 851 542 828 c 128,-1,14
 509 805 509 805 481.5 768.5 c 128,-1,15
 454 732 454 732 432 687 c 128,-1,16
 410 642 410 642 392.5 597.5 c 128,-1,17
 375 553 375 553 362.5 514 c 128,-1,18
 350 475 350 475 342 451 c 0,19,20
 338 438 338 438 329 411 c 128,-1,21
 320 384 320 384 309 349 c 128,-1,22
 298 314 298 314 285.5 276 c 128,-1,23
 273 238 273 238 262.5 203 c 128,-1,24
 252 168 252 168 243.5 141 c 128,-1,25
 235 114 235 114 232 101 c 0,26,27
 229 84 229 84 217.5 71.5 c 128,-1,28
 206 59 206 59 191 51.5 c 128,-1,29
 176 44 176 44 158.5 40.5 c 128,-1,30
 141 37 141 37 126 37 c 0,31,32
 105 37 105 37 89 45 c 128,-1,33
 73 53 73 53 61.5 66.5 c 128,-1,34
 50 80 50 80 44 97 c 128,-1,35
 38 114 38 114 38 133 c 2,36,-1
 38 165 l 1,37,38
 62 217 62 217 81.5 282.5 c 128,-1,39
 101 348 101 348 117.5 419 c 128,-1,40
 134 490 134 490 147.5 563.5 c 128,-1,41
 161 637 161 637 172.5 706 c 128,-1,42
 184 775 184 775 194.5 835.5 c 128,-1,43
 205 896 205 896 215.5 942 c 128,-1,44
 226 988 226 988 236.5 1015 c 128,-1,45
 247 1042 247 1042 260 1044 c 0,46,47
 270 1045 270 1045 286.5 1042 c 128,-1,48
 303 1039 303 1039 318.5 1032 c 128,-1,49
 334 1025 334 1025 345 1014 c 128,-1,50
 356 1003 356 1003 356 989 c 2,51,-1
 356 869 l 1,52,53
 387 905 387 905 412.5 937 c 128,-1,54
 438 969 438 969 466 993 c 128,-1,55
 494 1017 494 1017 529 1030.5 c 128,-1,56
 564 1044 564 1044 614 1044 c 0,57,58
 715 1044 715 1044 782.5 986.5 c 128,-1,59
 850 929 850 929 881 832 c 1,60,61
 915 860 915 860 937 887 c 128,-1,62
 959 914 959 914 977.5 938.5 c 128,-1,63
 996 963 996 963 1013 984 c 128,-1,64
 1030 1005 1030 1005 1053 1020.5 c 128,-1,65
 1076 1036 1076 1036 1108.5 1044.5 c 128,-1,66
 1141 1053 1141 1053 1189 1053 c 0,67,68
 1273 1053 1273 1053 1332.5 1025.5 c 128,-1,69
 1392 998 1392 998 1431.5 952 c 128,-1,70
 1471 906 1471 906 1494.5 845.5 c 128,-1,71
 1518 785 1518 785 1529.5 718 c 128,-1,72
 1541 651 1541 651 1544.5 582 c 128,-1,73
 1548 513 1548 513 1548 451 c 0,74,75
 1548 432 1548 432 1552 391 c 0,76,77
 1554 350 1554 350 1556 300 c 0,78,79
 1557 281 1557 281 1557 261 c 0,80,81
 1557 250 1557 250 1557 240 c 0,82,83
 1557 218 1557 218 1556 196 c 0,84,85
 1554 143 1554 143 1541 99.5 c 128,-1,86
 1528 56 1528 56 1503.5 28 c 128,-1,87
 1479 0 1479 0 1438 0 c 0,88,89
 1393 0 1393 0 1365 28 c 128,-1,90
 1337 56 1337 56 1337 101 c 0,91,92
 1337 188 1337 188 1346 276 c 128,-1,93
 1355 364 1355 364 1355 451 c 0,94,95
 1356 502 1356 502 1356 560 c 0,96,97
 1356 563 1356 563 1356 565 c 0,98,99
 1356 620 1356 620 1346 674 c 0,100,101
 1336 730 1336 730 1311.5 779.5 c 128,-1,102
 1287 829 1287 829 1235 860 c 1,103,-1
 1189 860 l 1,104,105
 1128 857 1128 857 1081 811.5 c 128,-1,106
 1034 766 1034 766 998.5 695.5 c 128,-1,107
 963 625 963 625 937.5 537 c 128,-1,108
 912 449 912 449 894 361.5 c 128,-1,109
 876 274 876 274 864.5 195.5 c 128,-1,110
 853 117 853 117 845 64 c 1,111,112
 841 52 841 52 831.5 40.5 c 128,-1,113
 822 29 822 29 809.5 20 c 128,-1,114
 797 11 797 11 783 5.5 c 128,-1,115
 769 0 769 0 757 0 c 0,116,117
 712 0 712 0 686 30.5 c 128,-1,118
 660 61 660 61 660 106 c 2,119,-1
 660 119 l 1,0,1
EndSplineSet
Validated: 1
EndChar

StartChar: n
Encoding: 110 110 81
Width: 1063
GlyphClass: 2
Flags: W
LayerCount: 2
Fore
SplineSet
807 95 m 0,0,1
 807 176 807 176 816 255.5 c 128,-1,2
 825 335 825 335 825 416 c 0,3,4
 826 440 826 440 826 482 c 0,5,6
 826 489 826 489 826 496 c 0,7,8
 826 532 826 532 824 574 c 0,9,10
 822 624 822 624 814 674.5 c 128,-1,11
 806 725 806 725 789.5 766.5 c 128,-1,12
 773 808 773 808 746.5 834.5 c 128,-1,13
 720 861 720 861 679 861 c 0,14,15
 647 861 647 861 616 839 c 128,-1,16
 585 817 585 817 557 782 c 128,-1,17
 529 747 529 747 504.5 704.5 c 128,-1,18
 480 662 480 662 460.5 621 c 128,-1,19
 441 580 441 580 426.5 545.5 c 128,-1,20
 412 511 412 511 405 493 c 1,21,22
 398 478 398 478 386.5 447 c 128,-1,23
 375 416 375 416 360.5 377.5 c 128,-1,24
 346 339 346 339 330 296 c 128,-1,25
 314 253 314 253 300 214.5 c 128,-1,26
 286 176 286 176 275 145 c 128,-1,27
 264 114 264 114 259 99 c 1,28,29
 246 67 246 67 225 53 c 128,-1,30
 204 39 204 39 169 39 c 0,31,32
 127 39 127 39 103 61 c 128,-1,33
 79 83 79 83 79 125 c 2,34,-1
 79 150 l 1,35,36
 82 163 82 163 88.5 190.5 c 128,-1,37
 95 218 95 218 103 253 c 128,-1,38
 111 288 111 288 119.5 326 c 128,-1,39
 128 364 128 364 135.5 399 c 128,-1,40
 143 434 143 434 148.5 461.5 c 128,-1,41
 154 489 154 489 156 502 c 0,42,43
 158 512 158 512 160 540 c 128,-1,44
 162 568 162 568 165 606.5 c 128,-1,45
 168 645 168 645 173 691 c 128,-1,46
 178 737 178 737 185 783 c 128,-1,47
 192 829 192 829 201 872.5 c 128,-1,48
 210 916 210 916 223 949.5 c 128,-1,49
 236 983 236 983 252 1003.5 c 128,-1,50
 268 1024 268 1024 289 1024 c 0,51,52
 299 1024 299 1024 313.5 1021 c 128,-1,53
 328 1018 328 1018 341.5 1011.5 c 128,-1,54
 355 1005 355 1005 365 995.5 c 128,-1,55
 375 986 375 986 375 973 c 2,56,-1
 375 836 l 1,57,58
 406 847 406 847 429 866 c 128,-1,59
 452 885 452 885 472 908 c 128,-1,60
 492 931 492 931 511 954.5 c 128,-1,61
 530 978 530 978 553.5 997.5 c 128,-1,62
 577 1017 577 1017 607 1029 c 128,-1,63
 637 1041 637 1041 679 1041 c 0,64,65
 755 1041 755 1041 808.5 1010.5 c 128,-1,66
 862 980 862 980 898.5 929.5 c 128,-1,67
 935 879 935 879 956 814 c 128,-1,68
 977 749 977 749 988 680 c 128,-1,69
 999 611 999 611 1002 543.5 c 128,-1,70
 1005 476 1005 476 1005 420 c 0,71,72
 1005 397 1005 397 1008 358 c 0,73,74
 1011 318 1011 318 1012 272 c 0,75,76
 1012 260 1012 260 1012 249 c 0,77,78
 1012 214 1012 214 1010 178 c 0,79,80
 1007 130 1007 130 994.5 92 c 128,-1,81
 982 54 982 54 958 29.5 c 128,-1,82
 934 5 934 5 893 5 c 0,83,84
 858 5 858 5 832.5 30.5 c 128,-1,85
 807 56 807 56 807 95 c 0,0,1
EndSplineSet
Validated: 1
EndChar

StartChar: o
Encoding: 111 111 82
Width: 1063
GlyphClass: 2
Flags: W
LayerCount: 2
Fore
SplineSet
37 453 m 0,0,1
 37 562 37 562 78.5 664 c 128,-1,2
 120 766 120 766 192 845 c 128,-1,3
 264 924 264 924 362 971.5 c 128,-1,4
 460 1019 460 1019 574 1019 c 0,5,6
 691 1019 691 1019 776.5 979 c 128,-1,7
 862 939 862 939 917.5 871 c 128,-1,8
 973 803 973 803 1000 713 c 128,-1,9
 1027 623 1027 623 1027 522 c 0,10,11
 1027 473 1027 473 1015 413.5 c 128,-1,12
 1003 354 1003 354 980 293 c 128,-1,13
 957 232 957 232 923 174 c 128,-1,14
 889 116 889 116 845.5 71.5 c 128,-1,15
 802 27 802 27 748.5 0 c 128,-1,16
 695 -27 695 -27 634 -27 c 2,17,-1
 445 -27 l 2,18,19
 336 -27 336 -27 258.5 15.5 c 128,-1,20
 181 58 181 58 132 126.5 c 128,-1,21
 83 195 83 195 60 281 c 128,-1,22
 37 367 37 367 37 453 c 0,0,1
241 438 m 2,23,24
 241 367 241 367 256 316 c 128,-1,25
 271 265 271 265 305 232.5 c 128,-1,26
 339 200 339 200 394 184.5 c 128,-1,27
 449 169 449 169 528 169 c 0,28,29
 599 169 599 169 655 201.5 c 128,-1,30
 711 234 711 234 750 285.5 c 128,-1,31
 789 337 789 337 810 401.5 c 128,-1,32
 831 466 831 466 831 530 c 0,33,34
 831 590 831 590 816.5 642 c 128,-1,35
 802 694 802 694 770.5 732.5 c 128,-1,36
 739 771 739 771 688.5 793 c 128,-1,37
 638 815 638 815 566 815 c 0,38,39
 502 815 502 815 447.5 790 c 128,-1,40
 393 765 393 765 351 723 c 128,-1,41
 309 681 309 681 280.5 626.5 c 128,-1,42
 252 572 252 572 241 514 c 1,43,-1
 241 438 l 2,23,24
EndSplineSet
Validated: 1
EndChar

StartChar: p
Encoding: 112 112 83
Width: 1215
GlyphClass: 2
Flags: W
LayerCount: 2
Fore
SplineSet
126 949 m 0,0,1
 134 990 134 990 164 1009 c 0,2,3
 187 1023 187 1023 215 1023 c 0,4,5
 224 1023 224 1023 233 1022 c 1,6,7
 270 1015 270 1015 287 1002 c 128,-1,8
 304 989 304 989 311.5 970 c 128,-1,9
 319 951 319 951 321 928 c 128,-1,10
 323 905 323 905 329 878 c 1,11,12
 464 920 464 920 602 922 c 0,13,14
 615 922 615 922 627 923 c 0,15,16
 753 923 753 923 883 900 c 0,17,18
 962 886 962 886 1023 843.5 c 128,-1,19
 1084 801 1084 801 1122 739.5 c 128,-1,20
 1160 678 1160 678 1174 602 c 0,21,22
 1181 564 1181 564 1181 526 c 128,-1,23
 1181 488 1181 488 1174 448 c 0,24,25
 1156 344 1156 344 1095 263 c 128,-1,26
 1034 182 1034 182 948 130 c 0,27,28
 862 76 862 76 762 56 c 0,29,30
 712 46 712 46 664 46 c 0,31,32
 660 46 660 46 655 46 c 0,33,34
 608 46 608 46 561 54 c 1,35,-1
 275 93 l 1,36,37
 266 44 266 44 261.5 19 c 128,-1,38
 257 -6 257 -6 255 -19 c 128,-1,39
 253 -32 253 -32 252 -39.5 c 128,-1,40
 251 -47 251 -47 249 -60 c 128,-1,41
 247 -73 247 -73 242.5 -98 c 128,-1,42
 238 -123 238 -123 229 -172 c 0,43,44
 227 -183 227 -183 222.5 -210.5 c 128,-1,45
 218 -238 218 -238 212.5 -268.5 c 128,-1,46
 207 -299 207 -299 202.5 -326.5 c 128,-1,47
 198 -354 198 -354 196 -364 c 1,48,49
 181 -392 181 -392 154.5 -405 c 128,-1,50
 128 -418 128 -418 100 -413 c 0,51,52
 64 -406 64 -406 44 -381 c 128,-1,53
 24 -356 24 -356 21 -321 c 1,54,55
 26 -295 26 -295 32.5 -265.5 c 128,-1,56
 39 -236 39 -236 45.5 -205.5 c 128,-1,57
 52 -175 52 -175 58 -145 c 128,-1,58
 64 -115 64 -115 67 -88 c 0,59,60
 71 -48 71 -48 77 13.5 c 128,-1,61
 83 75 83 75 89.5 145.5 c 128,-1,62
 96 216 96 216 102.5 288.5 c 128,-1,63
 109 361 109 361 114 422 c 128,-1,64
 119 483 119 483 122 525.5 c 128,-1,65
 125 568 125 568 126 578 c 1,66,-1
 124 936 l 2,67,68
 124 938 124 938 125 941 c 0,69,70
 125 943 125 943 125.5 945 c 128,-1,71
 126 947 126 947 126 949 c 0,0,1
327 647 m 0,72,73
 326 642 326 642 324.5 634.5 c 128,-1,74
 323 627 323 627 323 625 c 0,75,76
 322 618 322 618 320 592.5 c 128,-1,77
 318 567 318 567 314.5 532.5 c 128,-1,78
 311 498 311 498 306.5 458.5 c 128,-1,79
 302 419 302 419 299 384.5 c 128,-1,80
 296 350 296 350 293 324.5 c 128,-1,81
 290 299 290 299 290 292 c 1,82,83
 321 282 321 282 344 277 c 128,-1,84
 367 272 367 272 387.5 269.5 c 128,-1,85
 408 267 408 267 429.5 264.5 c 128,-1,86
 451 262 451 262 480 257 c 0,87,88
 527 250 527 250 580 246 c 0,89,90
 602 245 602 245 623 244 c 0,91,92
 654 244 654 244 685 247 c 0,93,94
 737 252 737 252 786.5 266.5 c 128,-1,95
 836 281 836 281 876 308.5 c 128,-1,96
 916 336 916 336 944.5 378 c 128,-1,97
 973 420 973 420 983 479 c 0,98,99
 988 506 988 506 988 532 c 0,100,101
 988 548 988 548 986 563 c 0,102,103
 981 603 981 603 964 635.5 c 128,-1,104
 947 668 947 668 917 689.5 c 128,-1,105
 887 711 887 711 844 719 c 0,106,107
 820 723 820 723 774 726.5 c 128,-1,108
 728 730 728 730 671.5 730 c 128,-1,109
 615 730 615 730 556 726 c 128,-1,110
 497 722 497 722 447.5 713 c 128,-1,111
 398 704 398 704 364.5 687.5 c 128,-1,112
 331 671 331 671 327 647 c 0,72,73
EndSplineSet
Validated: 1
EndChar

StartChar: q
Encoding: 113 113 84
Width: 1141
GlyphClass: 2
Flags: W
LayerCount: 2
Fore
SplineSet
739 -521 m 1,0,-1
 814 -7 l 1,1,-1
 814 -2 l 2,2,3
 814 5 814 5 811.5 6.5 c 128,-1,4
 809 8 809 8 795 12 c 1,5,6
 708 25 708 25 618.5 39.5 c 128,-1,7
 529 54 529 54 445.5 77.5 c 128,-1,8
 362 101 362 101 289 136.5 c 128,-1,9
 216 172 216 172 161.5 226.5 c 128,-1,10
 107 281 107 281 75.5 358.5 c 128,-1,11
 44 436 44 436 44 543 c 0,12,13
 44 630 44 630 74 695 c 128,-1,14
 104 760 104 760 154 807.5 c 128,-1,15
 204 855 204 855 270.5 886.5 c 128,-1,16
 337 918 337 918 410 936.5 c 128,-1,17
 483 955 483 955 558 962.5 c 128,-1,18
 633 970 633 970 701 970 c 0,19,20
 726 970 726 970 760 972 c 0,21,22
 777 973 777 973 794.5 972.5 c 128,-1,23
 812 972 812 972 830 972 c 0,24,25
 866 970 866 970 902 964 c 128,-1,26
 938 958 938 958 966.5 943.5 c 128,-1,27
 995 929 995 929 1012.5 904 c 128,-1,28
 1030 879 1030 879 1030 839 c 2,29,-1
 1030 604 l 1,30,-1
 983 -184 l 1,31,-1
 983 -294 l 1,32,33
 1023 -267 1023 -267 1047 -248.5 c 128,-1,34
 1071 -230 1071 -230 1087 -215 c 128,-1,35
 1103 -200 1103 -200 1114 -188 c 128,-1,36
 1125 -176 1125 -176 1139 -161 c 128,-1,37
 1153 -146 1153 -146 1173.5 -127.5 c 128,-1,38
 1194 -109 1194 -109 1229 -82 c 0,39,40
 1247 -68 1247 -68 1271 -74.5 c 128,-1,41
 1295 -81 1295 -81 1313.5 -97.5 c 128,-1,42
 1332 -114 1332 -114 1338.5 -135 c 128,-1,43
 1345 -156 1345 -156 1328 -171 c 0,44,45
 1301 -194 1301 -194 1278 -212.5 c 128,-1,46
 1255 -231 1255 -231 1233 -248.5 c 128,-1,47
 1211 -266 1211 -266 1189 -284.5 c 128,-1,48
 1167 -303 1167 -303 1142 -326 c 0,49,50
 1130 -338 1130 -338 1110 -360 c 128,-1,51
 1090 -382 1090 -382 1066 -410 c 128,-1,52
 1042 -438 1042 -438 1015.5 -468.5 c 128,-1,53
 989 -499 989 -499 965 -527.5 c 128,-1,54
 941 -556 941 -556 921 -579 c 128,-1,55
 901 -602 901 -602 889 -615 c 0,56,57
 878 -626 878 -626 863 -625 c 128,-1,58
 848 -624 848 -624 837 -624 c 0,59,60
 795 -624 795 -624 767 -600 c 128,-1,61
 739 -576 739 -576 739 -530 c 2,62,-1
 739 -521 l 1,0,-1
241 529 m 0,63,64
 241 461 241 461 269.5 410.5 c 128,-1,65
 298 360 298 360 345 324.5 c 128,-1,66
 392 289 392 289 452.5 266.5 c 128,-1,67
 513 244 513 244 577 231 c 128,-1,68
 641 218 641 218 703.5 213.5 c 128,-1,69
 766 209 766 209 818 209 c 2,70,-1
 823 209 l 1,71,72
 830 355 830 355 831 493.5 c 128,-1,73
 832 632 832 632 832 778 c 1,74,75
 792 778 792 778 732 779 c 0,76,77
 722 779 722 779 711 779 c 0,78,79
 661 779 661 779 606 775 c 0,80,81
 540 770 540 770 475 757 c 128,-1,82
 410 744 410 744 358 716.5 c 128,-1,83
 306 689 306 689 273.5 643.5 c 128,-1,84
 241 598 241 598 241 529 c 0,63,64
EndSplineSet
Validated: 1
EndChar

StartChar: r
Encoding: 114 114 85
Width: 1004
GlyphClass: 2
Flags: W
LayerCount: 2
Fore
SplineSet
100 114 m 1,0,1
 103 126 103 126 109.5 152.5 c 128,-1,2
 116 179 116 179 123.5 213 c 128,-1,3
 131 247 131 247 139.5 284 c 128,-1,4
 148 321 148 321 155 355 c 128,-1,5
 162 389 162 389 167.5 415.5 c 128,-1,6
 173 442 173 442 175 455 c 0,7,8
 177 465 177 465 178.5 493.5 c 128,-1,9
 180 522 180 522 182 561 c 128,-1,10
 184 600 184 600 187 647 c 128,-1,11
 190 694 190 694 195 741 c 128,-1,12
 200 788 200 788 207 832 c 128,-1,13
 214 876 214 876 224.5 909.5 c 128,-1,14
 235 943 235 943 249 963 c 128,-1,15
 263 983 263 983 281 982 c 0,16,17
 290 982 290 982 304.5 978.5 c 128,-1,18
 319 975 319 975 332.5 969 c 128,-1,19
 346 963 346 963 355.5 954 c 128,-1,20
 365 945 365 945 365 932 c 2,21,-1
 365 783 l 1,22,23
 402 820 402 820 440 853.5 c 128,-1,24
 478 887 478 887 520 912 c 128,-1,25
 562 937 562 937 608.5 951.5 c 128,-1,26
 655 966 655 966 710 966 c 0,27,28
 740 966 740 966 781 961.5 c 128,-1,29
 822 957 822 957 860 944 c 128,-1,30
 898 931 898 931 924.5 906 c 128,-1,31
 951 881 951 881 951 841 c 0,32,33
 951 803 951 803 930.5 780.5 c 128,-1,34
 910 758 910 758 872 758 c 0,35,36
 852 758 852 758 833 763 c 128,-1,37
 814 768 814 768 794.5 774.5 c 128,-1,38
 775 781 775 781 755.5 786 c 128,-1,39
 736 791 736 791 714 791 c 0,40,41
 643 791 643 791 588.5 756.5 c 128,-1,42
 534 722 534 722 491.5 665.5 c 128,-1,43
 449 609 449 609 417.5 537 c 128,-1,44
 386 465 386 465 361 390.5 c 128,-1,45
 336 316 336 316 315.5 245 c 128,-1,46
 295 174 295 174 275 119.5 c 128,-1,47
 255 65 255 65 234.5 33 c 128,-1,48
 214 1 214 1 188 5 c 0,49,50
 148 10 148 10 124 28.5 c 128,-1,51
 100 47 100 47 100 89 c 2,52,-1
 100 114 l 1,0,1
EndSplineSet
Validated: 1
EndChar

StartChar: s
Encoding: 115 115 86
Width: 935
GlyphClass: 2
Flags: W
LayerCount: 2
Fore
SplineSet
93 182 m 1,0,1
 89 201 89 201 87 204 c 0,2,3
 83 212 83 212 83 225 c 0,4,5
 83 240 83 240 91 258 c 0,6,7
 98 274 98 274 111 286 c 0,8,9
 125 299 125 299 139 304 c 0,10,11
 155 310 155 310 173 310 c 2,12,-1
 177 310 l 2,13,14
 178 310 178 310 183 308 c 0,15,16
 188 307 188 307 194 306 c 0,17,18
 200 304 200 304 205 302 c 0,19,20
 210 301 210 301 212 301 c 1,21,22
 239 280 239 280 282 253 c 0,23,24
 311 235 311 235 365 210 c 0,25,26
 407 191 407 191 453 178 c 0,27,28
 497 166 497 166 537 166 c 0,29,30
 568 166 568 166 593 172 c 0,31,32
 625 180 625 180 646 192 c 0,33,34
 669 205 669 205 685 228 c 0,35,36
 700 249 700 249 700 279 c 0,37,38
 700 335 700 335 677 366 c 0,39,40
 654 396 654 396 614 416 c 0,41,42
 566 439 566 439 526 445 c 0,43,44
 523 445 523 445 424 466 c 0,45,46
 374 476 374 476 323 492 c 0,47,48
 274 507 274 507 234 539 c 0,49,50
 196 569 196 569 172 620 c 128,-1,51
 148 671 148 671 148 750 c 0,52,53
 148 825 148 825 173 879 c 0,54,55
 197 932 197 932 242 968 c 0,56,57
 284 1003 284 1003 345 1020 c 0,58,59
 404 1037 404 1037 474 1037 c 0,60,61
 499 1037 499 1037 537 1036 c 0,62,63
 560 1035 560 1035 618 1030 c 0,64,65
 652 1027 652 1027 704 1016 c 0,66,67
 753 1006 753 1006 782 992 c 0,68,69
 816 976 816 976 838 952 c 128,-1,70
 860 928 860 928 860 894 c 0,71,72
 860 855 860 855 839 832 c 128,-1,73
 818 809 818 809 780 809 c 128,-1,74
 742 809 742 809 704 817 c 0,75,76
 652 828 652 828 629 834 c 0,77,78
 587 845 587 845 554 852 c 0,79,80
 516 860 516 860 478 860 c 0,81,82
 456 860 456 860 419 856 c 0,83,84
 392 853 392 853 371 842 c 128,-1,85
 350 831 350 831 338 810 c 128,-1,86
 326 789 326 789 326 754 c 0,87,88
 326 714 326 714 350 686 c 0,89,90
 372 661 372 661 412 642 c 0,91,92
 454 622 454 622 501 612 c 0,93,94
 550 601 550 601 602 588 c 0,95,96
 665 573 665 573 703 560 c 0,97,98
 755 542 755 542 791 516 c 0,99,100
 832 487 832 487 854 447 c 0,101,102
 877 406 877 406 877 344 c 2,103,-1
 877 217 l 2,104,105
 877 179 877 179 860 148 c 128,-1,106
 843 117 843 117 815 92 c 0,107,108
 783 64 783 64 750 46 c 0,109,110
 714 27 714 27 676 14 c 0,111,112
 632 -1 632 -1 602 -6 c 0,113,114
 566 -12 566 -12 537 -12 c 0,115,116
 481 -12 481 -12 417 2 c 128,-1,117
 353 16 353 16 293 42 c 0,118,119
 233 67 233 67 180.5 102.5 c 128,-1,120
 128 138 128 138 93 182 c 1,0,1
EndSplineSet
Validated: 1
EndChar

StartChar: t
Encoding: 116 116 87
Width: 825
GlyphClass: 2
Flags: W
LayerCount: 2
Fore
SplineSet
200 1432 m 2,0,1
 200 1473 200 1473 227 1496.5 c 128,-1,2
 254 1520 254 1520 292 1521 c 0,3,4
 323 1522 323 1522 342 1501.5 c 128,-1,5
 361 1481 361 1481 371.5 1446.5 c 128,-1,6
 382 1412 382 1412 385 1366 c 0,7,8
 387 1332 387 1332 387 1295 c 0,9,10
 387 1283 387 1283 387 1270 c 0,11,12
 386 1220 386 1220 381.5 1169 c 128,-1,13
 377 1118 377 1118 372.5 1072 c 128,-1,14
 368 1026 368 1026 364.5 989 c 128,-1,15
 361 952 361 952 362 930 c 1,16,-1
 573 930 l 2,17,18
 591 930 591 930 604.5 920 c 128,-1,19
 618 910 618 910 626.5 895.5 c 128,-1,20
 635 881 635 881 639.5 864.5 c 128,-1,21
 644 848 644 848 644 835 c 0,22,23
 644 824 644 824 639.5 808.5 c 128,-1,24
 635 793 635 793 627.5 779 c 128,-1,25
 620 765 620 765 609.5 755 c 128,-1,26
 599 745 599 745 587 745 c 2,27,-1
 353 745 l 1,28,-1
 353 716 l 2,29,30
 353 698 353 698 348 662 c 128,-1,31
 343 626 343 626 335.5 581 c 128,-1,32
 328 536 328 536 319.5 486 c 128,-1,33
 311 436 311 436 303.5 390.5 c 128,-1,34
 296 345 296 345 291 309 c 128,-1,35
 286 273 286 273 286 256 c 0,36,37
 288 207 288 207 316.5 186.5 c 128,-1,38
 345 166 345 166 392 166 c 0,39,40
 425 166 425 166 450.5 179 c 128,-1,41
 476 192 476 192 497 211 c 128,-1,42
 518 230 518 230 536 252.5 c 128,-1,43
 554 275 554 275 573 294 c 128,-1,44
 592 313 592 313 614 326 c 128,-1,45
 636 339 636 339 665 339 c 0,46,47
 706 339 706 339 729 316.5 c 128,-1,48
 752 294 752 294 752 253 c 0,49,50
 752 211 752 211 735 174.5 c 128,-1,51
 718 138 718 138 689.5 107 c 128,-1,52
 661 76 661 76 623.5 51.5 c 128,-1,53
 586 27 586 27 545 10 c 128,-1,54
 504 -7 504 -7 462.5 -16 c 128,-1,55
 421 -25 421 -25 385 -25 c 0,56,57
 334 -25 334 -25 283.5 -7 c 128,-1,58
 233 11 233 11 192.5 44 c 128,-1,59
 152 77 152 77 126.5 123 c 128,-1,60
 101 169 101 169 100 224 c 1,61,-1
 184 741 l 1,62,63
 142 744 142 744 114.5 767 c 128,-1,64
 87 790 87 790 87 835 c 0,65,66
 87 859 87 859 103.5 872 c 128,-1,67
 120 885 120 885 140.5 893.5 c 128,-1,68
 161 902 161 902 177.5 909.5 c 128,-1,69
 194 917 194 917 194 930 c 0,70,71
 194 984 194 984 194 1027 c 128,-1,72
 194 1070 194 1070 194 1107 c 128,-1,73
 194 1144 194 1144 194.5 1178.5 c 128,-1,74
 195 1213 195 1213 195.5 1249 c 128,-1,75
 196 1285 196 1285 197 1326.5 c 128,-1,76
 198 1368 198 1368 200 1419 c 1,77,-1
 200 1432 l 2,0,1
EndSplineSet
Validated: 1
EndChar

StartChar: u
Encoding: 117 117 88
Width: 1010
GlyphClass: 2
Flags: W
LayerCount: 2
Fore
SplineSet
93 977 m 1,0,1
 103 1010 103 1010 124 1033.5 c 128,-1,2
 145 1057 145 1057 181 1057 c 0,3,4
 194 1057 194 1057 208.5 1052 c 128,-1,5
 223 1047 223 1047 236 1039 c 128,-1,6
 249 1031 249 1031 258 1019 c 128,-1,7
 267 1007 267 1007 270 994 c 1,8,9
 269 964 269 964 266.5 912 c 128,-1,10
 264 860 264 860 264 796 c 0,11,12
 264 785 264 785 263 774 c 0,13,14
 264 720 264 720 266 660 c 0,15,16
 268 588 268 588 277 517 c 128,-1,17
 286 446 286 446 304 381 c 128,-1,18
 322 316 322 316 352 267 c 128,-1,19
 382 218 382 218 425.5 188.5 c 128,-1,20
 469 159 469 159 530 159 c 0,21,22
 583 159 583 159 621 182.5 c 128,-1,23
 659 206 659 206 685 245 c 128,-1,24
 711 284 711 284 726 333 c 128,-1,25
 741 382 741 382 749 433 c 128,-1,26
 757 484 757 484 759 532 c 128,-1,27
 761 580 761 580 761 617 c 0,28,29
 761 662 761 662 757 706 c 128,-1,30
 753 750 753 750 747.5 794.5 c 128,-1,31
 742 839 742 839 738 883 c 128,-1,32
 734 927 734 927 734 972 c 0,33,34
 734 1013 734 1013 760.5 1039 c 128,-1,35
 787 1065 787 1065 827 1065 c 256,36,37
 867 1065 867 1065 891.5 1037.5 c 128,-1,38
 916 1010 916 1010 929.5 966.5 c 128,-1,39
 943 923 943 923 947.5 870.5 c 128,-1,40
 952 818 952 818 952 767.5 c 128,-1,41
 952 717 952 717 950 675 c 128,-1,42
 948 633 948 633 948 612 c 0,43,44
 948 544 948 544 940.5 470.5 c 128,-1,45
 933 397 933 397 914.5 326 c 128,-1,46
 896 255 896 255 865.5 191 c 128,-1,47
 835 127 835 127 788.5 78.5 c 128,-1,48
 742 30 742 30 678 1.5 c 128,-1,49
 614 -27 614 -27 530 -27 c 0,50,51
 428 -27 428 -27 355.5 14 c 128,-1,52
 283 55 283 55 234.5 122.5 c 128,-1,53
 186 190 186 190 158 277 c 128,-1,54
 130 364 130 364 115.5 456 c 128,-1,55
 101 548 101 548 97 638.5 c 128,-1,56
 93 729 93 729 93 803 c 2,57,-1
 93 977 l 1,0,1
EndSplineSet
Validated: 1
EndChar

StartChar: v
Encoding: 118 118 89
Width: 1010
GlyphClass: 2
Flags: W
LayerCount: 2
Fore
SplineSet
93 977 m 1,0,1
 103 1010 103 1010 124 1033.5 c 128,-1,2
 145 1057 145 1057 181 1057 c 0,3,4
 194 1057 194 1057 208.5 1052 c 128,-1,5
 223 1047 223 1047 236 1039 c 128,-1,6
 249 1031 249 1031 258 1019 c 128,-1,7
 267 1007 267 1007 270 994 c 1,8,9
 270 987 270 987 270 980 c 0,10,11
 270 944 270 944 274 896 c 0,12,13
 279 838 279 838 291 771.5 c 128,-1,14
 303 705 303 705 323 632.5 c 128,-1,15
 343 560 343 560 372 489 c 128,-1,16
 401 418 401 418 439 353 c 128,-1,17
 477 288 477 288 526 237 c 0,18,19
 535 228 535 228 555.5 242.5 c 128,-1,20
 576 257 576 257 602 287 c 128,-1,21
 628 317 628 317 656 358.5 c 128,-1,22
 684 400 684 400 707.5 445 c 128,-1,23
 731 490 731 490 746 535 c 128,-1,24
 761 580 761 580 761 617 c 0,25,26
 761 662 761 662 757 706 c 128,-1,27
 753 750 753 750 747.5 794.5 c 128,-1,28
 742 839 742 839 738 883 c 128,-1,29
 734 927 734 927 734 972 c 0,30,31
 734 1013 734 1013 760.5 1039 c 128,-1,32
 787 1065 787 1065 827 1065 c 256,33,34
 867 1065 867 1065 891.5 1037.5 c 128,-1,35
 916 1010 916 1010 929.5 966.5 c 128,-1,36
 943 923 943 923 947.5 870.5 c 128,-1,37
 952 818 952 818 952 767.5 c 128,-1,38
 952 717 952 717 950 675 c 128,-1,39
 948 633 948 633 948 612 c 0,40,41
 948 561 948 561 932 505 c 128,-1,42
 916 449 916 449 889 392.5 c 128,-1,43
 862 336 862 336 827.5 280.5 c 128,-1,44
 793 225 793 225 755.5 176 c 128,-1,45
 718 127 718 127 681.5 86.5 c 128,-1,46
 645 46 645 46 614 18.5 c 128,-1,47
 583 -9 583 -9 560.5 -21.5 c 128,-1,48
 538 -34 538 -34 530 -27 c 0,49,50
 309 168 309 168 201 373.5 c 128,-1,51
 93 579 93 579 93 803 c 2,52,-1
 93 977 l 1,0,1
EndSplineSet
Validated: 1
EndChar

StartChar: w
Encoding: 119 119 90
Width: 1323
GlyphClass: 2
Flags: W
LayerCount: 2
Fore
SplineSet
729 673 m 2,0,1
 735 689 735 689 743 673 c 128,-1,2
 751 657 751 657 765.5 624.5 c 128,-1,3
 780 592 780 592 802 549.5 c 128,-1,4
 824 507 824 507 858 470 c 1,5,6
 881 440 881 440 897.5 410.5 c 128,-1,7
 914 381 914 381 929 353.5 c 128,-1,8
 944 326 944 326 960 300.5 c 128,-1,9
 976 275 976 275 997 253 c 0,10,11
 1005 244 1005 244 1016 258.5 c 128,-1,12
 1027 273 1027 273 1038.5 303 c 128,-1,13
 1050 333 1050 333 1061 374.5 c 128,-1,14
 1072 416 1072 416 1080.5 461 c 128,-1,15
 1089 506 1089 506 1094.5 551 c 128,-1,16
 1100 596 1100 596 1100 633 c 0,17,18
 1100 678 1100 678 1096 722 c 128,-1,19
 1092 766 1092 766 1086.5 810.5 c 128,-1,20
 1081 855 1081 855 1077 899 c 128,-1,21
 1073 943 1073 943 1073 988 c 0,22,23
 1073 1029 1073 1029 1099.5 1055 c 128,-1,24
 1126 1081 1126 1081 1166 1081 c 256,25,26
 1206 1081 1206 1081 1230.5 1053.5 c 128,-1,27
 1255 1026 1255 1026 1268.5 982.5 c 128,-1,28
 1282 939 1282 939 1286.5 886.5 c 128,-1,29
 1291 834 1291 834 1291 783.5 c 128,-1,30
 1291 733 1291 733 1289 691 c 128,-1,31
 1287 649 1287 649 1287 628 c 0,32,33
 1287 560 1287 560 1269 483.5 c 128,-1,34
 1251 407 1251 407 1223 333 c 128,-1,35
 1195 259 1195 259 1160.5 192.5 c 128,-1,36
 1126 126 1126 126 1094.5 77.5 c 128,-1,37
 1063 29 1063 29 1037.5 4 c 128,-1,38
 1012 -21 1012 -21 1001 -11 c 0,39,40
 925 56 925 56 863 123.5 c 128,-1,41
 801 191 801 191 752 261 c 1,42,43
 710 196 710 196 673.5 139.5 c 128,-1,44
 637 83 637 83 608.5 43.5 c 128,-1,45
 580 4 580 4 560 -16 c 128,-1,46
 540 -36 540 -36 530 -27 c 0,47,48
 309 168 309 168 201 373.5 c 128,-1,49
 93 579 93 579 93 803 c 2,50,-1
 93 977 l 1,51,52
 103 1010 103 1010 124 1033.5 c 128,-1,53
 145 1057 145 1057 181 1057 c 0,54,55
 194 1057 194 1057 208.5 1052 c 128,-1,56
 223 1047 223 1047 236 1039 c 128,-1,57
 249 1031 249 1031 258 1019 c 128,-1,58
 267 1007 267 1007 270 994 c 1,59,60
 270 987 270 987 270 980 c 0,61,62
 270 944 270 944 274 896 c 0,63,64
 279 838 279 838 291 771.5 c 128,-1,65
 303 705 303 705 323 632.5 c 128,-1,66
 343 560 343 560 372 489 c 128,-1,67
 401 418 401 418 439 353 c 128,-1,68
 477 288 477 288 526 237 c 0,69,70
 534 228 534 228 545 242.5 c 128,-1,71
 556 257 556 257 570.5 287 c 128,-1,72
 585 317 585 317 603.5 359 c 128,-1,73
 622 401 622 401 645 446 c 1,74,-1
 729 673 l 2,0,1
EndSplineSet
Validated: 1
EndChar

StartChar: x
Encoding: 120 120 91
Width: 1082
GlyphClass: 2
Flags: W
LayerCount: 2
Fore
SplineSet
500 364 m 2,0,1
 464 364 464 364 435.5 338 c 128,-1,2
 407 312 407 312 381.5 273 c 128,-1,3
 356 234 356 234 331 188.5 c 128,-1,4
 306 143 306 143 278.5 104 c 128,-1,5
 251 65 251 65 218.5 39 c 128,-1,6
 186 13 186 13 144 13 c 0,7,8
 109 13 109 13 84.5 35.5 c 128,-1,9
 60 58 60 58 60 96 c 0,10,11
 60 109 60 109 65.5 121.5 c 128,-1,12
 71 134 71 134 77 147 c 1,13,14
 121 195 121 195 158 233.5 c 128,-1,15
 195 272 195 272 229 308.5 c 128,-1,16
 263 345 263 345 295 383.5 c 128,-1,17
 327 422 327 422 362 471 c 1,18,19
 362 474 362 474 366 479 c 128,-1,20
 370 484 370 484 370 487 c 2,21,-1
 370 491 l 2,22,23
 370 519 370 519 354 545 c 128,-1,24
 338 571 338 571 316 596 c 128,-1,25
 294 621 294 621 271.5 646 c 128,-1,26
 249 671 249 671 236 698 c 0,27,28
 231 708 231 708 220.5 726 c 128,-1,29
 210 744 210 744 197.5 766.5 c 128,-1,30
 185 789 185 789 171.5 813.5 c 128,-1,31
 158 838 158 838 146 860.5 c 128,-1,32
 134 883 134 883 124.5 901 c 128,-1,33
 115 919 115 919 111 928 c 0,34,35
 111 930 111 930 109.5 935 c 128,-1,36
 108 940 108 940 106.5 945.5 c 128,-1,37
 105 951 105 951 103.5 955.5 c 128,-1,38
 102 960 102 960 102 962 c 2,39,-1
 102 966 l 2,40,41
 102 1004 102 1004 127 1029 c 128,-1,42
 152 1054 152 1054 190 1054 c 0,43,44
 212 1054 212 1054 232 1044 c 128,-1,45
 252 1034 252 1034 261 1012 c 1,46,-1
 429 715 l 2,47,48
 429 713 429 713 435 703.5 c 128,-1,49
 441 694 441 694 449 682 c 128,-1,50
 457 670 457 670 465.5 658 c 128,-1,51
 474 646 474 646 479 640 c 2,52,-1
 487 631 l 1,53,54
 518 662 518 662 567.5 708.5 c 128,-1,55
 617 755 617 755 672.5 804.5 c 128,-1,56
 728 854 728 854 785 902.5 c 128,-1,57
 842 951 842 951 889 987 c 1,58,59
 902 993 902 993 914 998.5 c 128,-1,60
 926 1004 926 1004 939 1004 c 0,61,62
 977 1004 977 1004 1000 979.5 c 128,-1,63
 1023 955 1023 955 1023 920 c 0,64,65
 1023 901 1023 901 1021 889 c 128,-1,66
 1019 877 1019 877 1006 862 c 1,67,68
 964 826 964 826 912.5 787 c 128,-1,69
 861 748 861 748 809 705.5 c 128,-1,70
 757 663 757 663 708 617 c 128,-1,71
 659 571 659 571 621 521 c 1,72,73
 618 514 618 514 615.5 510 c 128,-1,74
 613 506 613 506 613 500 c 2,75,-1
 613 496 l 1,76,-1
 939 155 l 1,77,78
 955 136 955 136 959.5 121 c 128,-1,79
 964 106 964 106 964 84 c 0,80,81
 964 42 964 42 941.5 23 c 128,-1,82
 919 4 919 4 881 4 c 0,83,84
 847 4 847 4 812.5 24.5 c 128,-1,85
 778 45 778 45 744 77.5 c 128,-1,86
 710 110 710 110 677 151 c 128,-1,87
 644 192 644 192 613 232 c 128,-1,88
 582 272 582 272 554.5 307 c 128,-1,89
 527 342 527 342 504 364 c 1,90,-1
 500 364 l 2,0,1
EndSplineSet
Validated: 1
EndChar

StartChar: y
Encoding: 121 121 92
Width: 1039
GlyphClass: 2
Flags: W
LayerCount: 2
Fore
SplineSet
368 -437 m 2,0,1
 368 -361 368 -361 379.5 -288.5 c 128,-1,2
 391 -216 391 -216 409 -145.5 c 128,-1,3
 427 -75 427 -75 449 -4.5 c 128,-1,4
 471 66 471 66 492 139 c 1,5,-1
 492 161 l 1,6,7
 402 161 402 161 337 194 c 128,-1,8
 272 227 272 227 227 282 c 128,-1,9
 182 337 182 337 154 409.5 c 128,-1,10
 126 482 126 482 110.5 561 c 128,-1,11
 95 640 95 640 90 721 c 128,-1,12
 85 802 85 802 85 874 c 0,13,14
 85 897 85 897 88.5 920.5 c 128,-1,15
 92 944 92 944 102 963 c 128,-1,16
 112 982 112 982 130 994 c 128,-1,17
 148 1006 148 1006 177 1006 c 0,18,19
 204 1006 204 1006 229.5 988.5 c 128,-1,20
 255 971 255 971 261 944 c 0,21,22
 262 935 262 935 264 904.5 c 128,-1,23
 266 874 266 874 269.5 829.5 c 128,-1,24
 273 785 273 785 279 732 c 128,-1,25
 285 679 285 679 294 624.5 c 128,-1,26
 303 570 303 570 315.5 519 c 128,-1,27
 328 468 328 468 345 428.5 c 128,-1,28
 362 389 362 389 384.5 365 c 128,-1,29
 407 341 407 341 435 341 c 0,30,31
 489 341 489 341 526.5 367.5 c 128,-1,32
 564 394 564 394 591.5 438 c 128,-1,33
 619 482 619 482 638.5 537.5 c 128,-1,34
 658 593 658 593 675 651.5 c 128,-1,35
 692 710 692 710 710 765.5 c 128,-1,36
 728 821 728 821 751.5 865 c 128,-1,37
 775 909 775 909 807 935.5 c 128,-1,38
 839 962 839 962 886 962 c 0,39,40
 929 962 929 962 949.5 933.5 c 128,-1,41
 970 905 970 905 970 864 c 2,42,-1
 970 838 l 1,43,-1
 678 103 l 1,44,45
 618 -51 618 -51 581.5 -210.5 c 128,-1,46
 545 -370 545 -370 545 -534 c 1,47,48
 542 -567 542 -567 514.5 -581.5 c 128,-1,49
 487 -596 487 -596 457 -596 c 0,50,51
 442 -596 442 -596 426 -592 c 128,-1,52
 410 -588 410 -588 397.5 -579 c 128,-1,53
 385 -570 385 -570 376.5 -556.5 c 128,-1,54
 368 -543 368 -543 368 -525 c 2,55,-1
 368 -437 l 2,0,1
EndSplineSet
Validated: 1
EndChar

StartChar: z
Encoding: 122 122 93
Width: 1076
GlyphClass: 2
Flags: W
LayerCount: 2
Fore
SplineSet
141 68 m 0,0,1
 141 135 141 135 164.5 199.5 c 128,-1,2
 188 264 188 264 226 325.5 c 128,-1,3
 264 387 264 387 311.5 444.5 c 128,-1,4
 359 502 359 502 408.5 555.5 c 128,-1,5
 458 609 458 609 504 657.5 c 128,-1,6
 550 706 550 706 584 749 c 1,7,8
 568 749 568 749 536.5 747.5 c 128,-1,9
 505 746 505 746 464.5 745.5 c 128,-1,10
 424 745 424 745 378 745 c 128,-1,11
 332 745 332 745 287.5 748.5 c 128,-1,12
 243 752 243 752 203 758.5 c 128,-1,13
 163 765 163 765 134 777 c 0,14,15
 116 785 116 785 104.5 801.5 c 128,-1,16
 93 818 93 818 93 838 c 0,17,18
 93 854 93 854 99 871 c 128,-1,19
 105 888 105 888 115.5 902 c 128,-1,20
 126 916 126 916 139.5 924.5 c 128,-1,21
 153 933 153 933 168 933 c 0,22,23
 181 933 181 933 191 934.5 c 128,-1,24
 201 936 201 936 211 937.5 c 128,-1,25
 221 939 221 939 232 939.5 c 128,-1,26
 243 940 243 940 257 937 c 1,27,-1
 431 937 l 2,28,29
 546 937 546 937 660.5 934 c 128,-1,30
 775 931 775 931 890 931 c 0,31,32
 926 931 926 931 949 912 c 128,-1,33
 972 893 972 893 972 852 c 0,34,35
 972 829 972 829 965 817.5 c 128,-1,36
 958 806 958 806 938 790 c 1,37,38
 918 780 918 780 881 755 c 128,-1,39
 844 730 844 730 797.5 694.5 c 128,-1,40
 751 659 751 659 697.5 614 c 128,-1,41
 644 569 644 569 591.5 520.5 c 128,-1,42
 539 472 539 472 491 421.5 c 128,-1,43
 443 371 443 371 406 323.5 c 128,-1,44
 369 276 369 276 347 233 c 128,-1,45
 325 190 325 190 325 157 c 1,46,47
 415 157 415 157 502 167 c 128,-1,48
 589 177 589 177 679 177 c 0,49,50
 690 177 690 177 718 179 c 0,51,52
 746 182 746 182 780 182 c 0,53,54
 785 182 785 182 789 182 c 0,55,56
 819 182 819 182 852 179 c 0,57,58
 890 176 890 176 921 166.5 c 128,-1,59
 952 157 952 157 972 139.5 c 128,-1,60
 992 122 992 122 992 92 c 0,61,62
 992 64 992 64 974.5 42.5 c 128,-1,63
 957 21 957 21 924 21 c 0,64,65
 865 21 865 21 808.5 17.5 c 128,-1,66
 752 14 752 14 693 14 c 0,67,68
 630 14 630 14 578 15 c 0,69,70
 552 15 552 15 525.5 15.5 c 128,-1,71
 499 16 499 16 472 15 c 0,72,73
 418 14 418 14 358 11 c 128,-1,74
 298 8 298 8 223 0 c 1,75,-1
 213 0 l 2,76,77
 184 0 184 0 162.5 20 c 128,-1,78
 141 40 141 40 141 68 c 0,0,1
EndSplineSet
Validated: 1
EndChar

StartChar: braceleft
Encoding: 123 123 94
Width: 1300
GlyphClass: 2
Flags: W
LayerCount: 2
Fore
SplineSet
1007 1496 m 0,0,1
 1029 1496 1029 1496 1048.5 1492.5 c 128,-1,2
 1068 1489 1068 1489 1082 1479.5 c 128,-1,3
 1096 1470 1096 1470 1104.5 1454 c 128,-1,4
 1113 1438 1113 1438 1113 1413 c 256,5,6
 1113 1388 1113 1388 1091 1371 c 128,-1,7
 1069 1354 1069 1354 1034 1338.5 c 128,-1,8
 999 1323 999 1323 957 1307 c 128,-1,9
 915 1291 915 1291 874.5 1266.5 c 128,-1,10
 834 1242 834 1242 801 1206.5 c 128,-1,11
 768 1171 768 1171 751 1118 c 2,12,-1
 641 772 l 2,13,14
 629 737 629 737 613 707.5 c 128,-1,15
 597 678 597 678 577.5 652 c 128,-1,16
 558 626 558 626 534.5 601.5 c 128,-1,17
 511 577 511 577 484 552 c 1,18,19
 538 507 538 507 571.5 452 c 128,-1,20
 605 397 605 397 628 336.5 c 128,-1,21
 651 276 651 276 667.5 213 c 128,-1,22
 684 150 684 150 703.5 88 c 128,-1,23
 723 26 723 26 750.5 -32 c 128,-1,24
 778 -90 778 -90 822 -140 c 0,25,26
 840 -161 840 -161 868.5 -173 c 128,-1,27
 897 -185 897 -185 929 -194 c 128,-1,28
 961 -203 961 -203 994 -210.5 c 128,-1,29
 1027 -218 1027 -218 1053.5 -230 c 128,-1,30
 1080 -242 1080 -242 1096.5 -261 c 128,-1,31
 1113 -280 1113 -280 1113 -310 c 0,32,33
 1113 -354 1113 -354 1084.5 -373 c 128,-1,34
 1056 -392 1056 -392 1015 -392 c 0,35,36
 908 -392 908 -392 834 -357.5 c 128,-1,37
 760 -323 760 -323 709 -265.5 c 128,-1,38
 658 -208 658 -208 624 -132.5 c 128,-1,39
 590 -57 590 -57 562.5 25 c 128,-1,40
 535 107 535 107 508.5 190.5 c 128,-1,41
 482 274 482 274 445 347 c 0,42,43
 429 380 429 380 402.5 400.5 c 128,-1,44
 376 421 376 421 346 433.5 c 128,-1,45
 316 446 316 446 286 452.5 c 128,-1,46
 256 459 256 459 232 464.5 c 128,-1,47
 208 470 208 470 192.5 477 c 128,-1,48
 177 484 177 484 177 497 c 2,49,-1
 177 607 l 2,50,51
 177 617 177 617 192.5 623 c 128,-1,52
 208 629 208 629 232.5 635.5 c 128,-1,53
 257 642 257 642 287.5 651 c 128,-1,54
 318 660 318 660 348.5 675 c 128,-1,55
 379 690 379 690 406.5 713.5 c 128,-1,56
 434 737 434 737 453 772 c 0,57,58
 491 842 491 842 518 923 c 128,-1,59
 545 1004 545 1004 572 1084.5 c 128,-1,60
 599 1165 599 1165 631 1239 c 128,-1,61
 663 1313 663 1313 712 1370.5 c 128,-1,62
 761 1428 761 1428 832 1462 c 128,-1,63
 903 1496 903 1496 1007 1496 c 0,0,1
EndSplineSet
Validated: 1
EndChar

